<svg xmlns="http://www.w3.org/2000/svg" xmlns:xlink="http://www.w3.org/1999/xlink" width="160" zoomAndPan="magnify" viewBox="0 0 160 100" height="54" preserveAspectRatio="xMidYMid meet" version="1.0"><defs><g/><clipPath id="b3afcc1059"><path d="M 112.5 162.1875 L 166.5 162.1875 L 166.5 213 L 112.5 213 Z M 112.5 162.1875 " clip-rule="nonzero"/></clipPath><clipPath id="5cdb08d051"><path d="M 112.5 187.5 C 112.5 194.214844 115.167969 200.652344 119.914062 205.398438 C 124.660156 210.144531 131.097656 212.8125 137.8125 212.8125 L 141.042969 212.8125 C 147.757812 212.8125 154.195312 210.144531 158.941406 205.398438 C 163.691406 200.652344 166.355469 194.214844 166.355469 187.5 C 166.355469 180.785156 163.691406 174.347656 158.941406 169.601562 C 154.195312 164.855469 147.757812 162.1875 141.042969 162.1875 L 137.8125 162.1875 C 131.097656 162.1875 124.660156 164.855469 119.914062 169.601562 C 115.167969 174.347656 112.5 180.785156 112.5 187.5 Z M 112.5 187.5 " clip-rule="nonzero"/></clipPath><clipPath id="3f4bae66ab"><path d="M 117 166 L 162 166 L 162 188 L 117 188 Z M 117 166 " clip-rule="nonzero"/></clipPath><clipPath id="10ba878ce0"><path d="M 112.5 187.5 C 112.5 194.214844 115.167969 200.652344 119.914062 205.398438 C 124.660156 210.144531 131.097656 212.8125 137.8125 212.8125 L 141.042969 212.8125 C 147.757812 212.8125 154.195312 210.144531 158.941406 205.398438 C 163.691406 200.652344 166.355469 194.214844 166.355469 187.5 C 166.355469 180.785156 163.691406 174.347656 158.941406 169.601562 C 154.195312 164.855469 147.757812 162.1875 141.042969 162.1875 L 137.8125 162.1875 C 131.097656 162.1875 124.660156 164.855469 119.914062 169.601562 C 115.167969 174.347656 112.5 180.785156 112.5 187.5 Z M 112.5 187.5 " clip-rule="nonzero"/></clipPath><clipPath id="499f5ea214"><path d="M 122 197 L 157 197 L 157 209 L 122 209 Z M 122 197 " clip-rule="nonzero"/></clipPath><clipPath id="3e55309b7a"><path d="M 112.5 187.5 C 112.5 194.214844 115.167969 200.652344 119.914062 205.398438 C 124.660156 210.144531 131.097656 212.8125 137.8125 212.8125 L 141.042969 212.8125 C 147.757812 212.8125 154.195312 210.144531 158.941406 205.398438 C 163.691406 200.652344 166.355469 194.214844 166.355469 187.5 C 166.355469 180.785156 163.691406 174.347656 158.941406 169.601562 C 154.195312 164.855469 147.757812 162.1875 141.042969 162.1875 L 137.8125 162.1875 C 131.097656 162.1875 124.660156 164.855469 119.914062 169.601562 C 115.167969 174.347656 112.5 180.785156 112.5 187.5 Z M 112.5 187.5 " clip-rule="nonzero"/></clipPath><clipPath id="168d5fc4e2"><path d="M 127.867188 185 L 134 185 L 134 193 L 127.867188 193 Z M 127.867188 185 " clip-rule="nonzero"/></clipPath><clipPath id="1ab58d4d18"><path d="M 112.5 187.5 C 112.5 194.214844 115.167969 200.652344 119.914062 205.398438 C 124.660156 210.144531 131.097656 212.8125 137.8125 212.8125 L 141.042969 212.8125 C 147.757812 212.8125 154.195312 210.144531 158.941406 205.398438 C 163.691406 200.652344 166.355469 194.214844 166.355469 187.5 C 166.355469 180.785156 163.691406 174.347656 158.941406 169.601562 C 154.195312 164.855469 147.757812 162.1875 141.042969 162.1875 L 137.8125 162.1875 C 131.097656 162.1875 124.660156 164.855469 119.914062 169.601562 C 115.167969 174.347656 112.5 180.785156 112.5 187.5 Z M 112.5 187.5 " clip-rule="nonzero"/></clipPath><clipPath id="f33c245dc7"><path d="M 127.867188 179 L 136 179 L 136 188 L 127.867188 188 Z M 127.867188 179 " clip-rule="nonzero"/></clipPath><clipPath id="5fac4f2a5e"><path d="M 112.5 187.5 C 112.5 194.214844 115.167969 200.652344 119.914062 205.398438 C 124.660156 210.144531 131.097656 212.8125 137.8125 212.8125 L 141.042969 212.8125 C 147.757812 212.8125 154.195312 210.144531 158.941406 205.398438 C 163.691406 200.652344 166.355469 194.214844 166.355469 187.5 C 166.355469 180.785156 163.691406 174.347656 158.941406 169.601562 C 154.195312 164.855469 147.757812 162.1875 141.042969 162.1875 L 137.8125 162.1875 C 131.097656 162.1875 124.660156 164.855469 119.914062 169.601562 C 115.167969 174.347656 112.5 180.785156 112.5 187.5 Z M 112.5 187.5 " clip-rule="nonzero"/></clipPath><clipPath id="92926b6938"><path d="M 129 191 L 139 191 L 139 201.449219 L 129 201.449219 Z M 129 191 " clip-rule="nonzero"/></clipPath><clipPath id="c223ba5777"><path d="M 112.5 187.5 C 112.5 194.214844 115.167969 200.652344 119.914062 205.398438 C 124.660156 210.144531 131.097656 212.8125 137.8125 212.8125 L 141.042969 212.8125 C 147.757812 212.8125 154.195312 210.144531 158.941406 205.398438 C 163.691406 200.652344 166.355469 194.214844 166.355469 187.5 C 166.355469 180.785156 163.691406 174.347656 158.941406 169.601562 C 154.195312 164.855469 147.757812 162.1875 141.042969 162.1875 L 137.8125 162.1875 C 131.097656 162.1875 124.660156 164.855469 119.914062 169.601562 C 115.167969 174.347656 112.5 180.785156 112.5 187.5 Z M 112.5 187.5 " clip-rule="nonzero"/></clipPath><clipPath id="9a8199f4af"><path d="M 131 176.28125 L 139 176.28125 L 139 184 L 131 184 Z M 131 176.28125 " clip-rule="nonzero"/></clipPath><clipPath id="2f6a599797"><path d="M 112.5 187.5 C 112.5 194.214844 115.167969 200.652344 119.914062 205.398438 C 124.660156 210.144531 131.097656 212.8125 137.8125 212.8125 L 141.042969 212.8125 C 147.757812 212.8125 154.195312 210.144531 158.941406 205.398438 C 163.691406 200.652344 166.355469 194.214844 166.355469 187.5 C 166.355469 180.785156 163.691406 174.347656 158.941406 169.601562 C 154.195312 164.855469 147.757812 162.1875 141.042969 162.1875 L 137.8125 162.1875 C 131.097656 162.1875 124.660156 164.855469 119.914062 169.601562 C 115.167969 174.347656 112.5 180.785156 112.5 187.5 Z M 112.5 187.5 " clip-rule="nonzero"/></clipPath><clipPath id="bcedcb0688"><path d="M 134 188 L 142 188 L 142 196 L 134 196 Z M 134 188 " clip-rule="nonzero"/></clipPath><clipPath id="6876c9cf7c"><path d="M 112.5 187.5 C 112.5 194.214844 115.167969 200.652344 119.914062 205.398438 C 124.660156 210.144531 131.097656 212.8125 137.8125 212.8125 L 141.042969 212.8125 C 147.757812 212.8125 154.195312 210.144531 158.941406 205.398438 C 163.691406 200.652344 166.355469 194.214844 166.355469 187.5 C 166.355469 180.785156 163.691406 174.347656 158.941406 169.601562 C 154.195312 164.855469 147.757812 162.1875 141.042969 162.1875 L 137.8125 162.1875 C 131.097656 162.1875 124.660156 164.855469 119.914062 169.601562 C 115.167969 174.347656 112.5 180.785156 112.5 187.5 Z M 112.5 187.5 " clip-rule="nonzero"/></clipPath><clipPath id="64ba5dc1f6"><path d="M 135 184 L 145 184 L 145 192 L 135 192 Z M 135 184 " clip-rule="nonzero"/></clipPath><clipPath id="d0dd9e798b"><path d="M 112.5 187.5 C 112.5 194.214844 115.167969 200.652344 119.914062 205.398438 C 124.660156 210.144531 131.097656 212.8125 137.8125 212.8125 L 141.042969 212.8125 C 147.757812 212.8125 154.195312 210.144531 158.941406 205.398438 C 163.691406 200.652344 166.355469 194.214844 166.355469 187.5 C 166.355469 180.785156 163.691406 174.347656 158.941406 169.601562 C 154.195312 164.855469 147.757812 162.1875 141.042969 162.1875 L 137.8125 162.1875 C 131.097656 162.1875 124.660156 164.855469 119.914062 169.601562 C 115.167969 174.347656 112.5 180.785156 112.5 187.5 Z M 112.5 187.5 " clip-rule="nonzero"/></clipPath><clipPath id="2345f3ec20"><path d="M 137 176.28125 L 141 176.28125 L 141 182 L 137 182 Z M 137 176.28125 " clip-rule="nonzero"/></clipPath><clipPath id="3a7d54a370"><path d="M 112.5 187.5 C 112.5 194.214844 115.167969 200.652344 119.914062 205.398438 C 124.660156 210.144531 131.097656 212.8125 137.8125 212.8125 L 141.042969 212.8125 C 147.757812 212.8125 154.195312 210.144531 158.941406 205.398438 C 163.691406 200.652344 166.355469 194.214844 166.355469 187.5 C 166.355469 180.785156 163.691406 174.347656 158.941406 169.601562 C 154.195312 164.855469 147.757812 162.1875 141.042969 162.1875 L 137.8125 162.1875 C 131.097656 162.1875 124.660156 164.855469 119.914062 169.601562 C 115.167969 174.347656 112.5 180.785156 112.5 187.5 Z M 112.5 187.5 " clip-rule="nonzero"/></clipPath><clipPath id="1221380093"><path d="M 139 184 L 143 184 L 143 190 L 139 190 Z M 139 184 " clip-rule="nonzero"/></clipPath><clipPath id="6880ea1707"><path d="M 112.5 187.5 C 112.5 194.214844 115.167969 200.652344 119.914062 205.398438 C 124.660156 210.144531 131.097656 212.8125 137.8125 212.8125 L 141.042969 212.8125 C 147.757812 212.8125 154.195312 210.144531 158.941406 205.398438 C 163.691406 200.652344 166.355469 194.214844 166.355469 187.5 C 166.355469 180.785156 163.691406 174.347656 158.941406 169.601562 C 154.195312 164.855469 147.757812 162.1875 141.042969 162.1875 L 137.8125 162.1875 C 131.097656 162.1875 124.660156 164.855469 119.914062 169.601562 C 115.167969 174.347656 112.5 180.785156 112.5 187.5 Z M 112.5 187.5 " clip-rule="nonzero"/></clipPath><clipPath id="b8dae20d82"><path d="M 139 176.28125 L 144 176.28125 L 144 180 L 139 180 Z M 139 176.28125 " clip-rule="nonzero"/></clipPath><clipPath id="ae45ee8e53"><path d="M 112.5 187.5 C 112.5 194.214844 115.167969 200.652344 119.914062 205.398438 C 124.660156 210.144531 131.097656 212.8125 137.8125 212.8125 L 141.042969 212.8125 C 147.757812 212.8125 154.195312 210.144531 158.941406 205.398438 C 163.691406 200.652344 166.355469 194.214844 166.355469 187.5 C 166.355469 180.785156 163.691406 174.347656 158.941406 169.601562 C 154.195312 164.855469 147.757812 162.1875 141.042969 162.1875 L 137.8125 162.1875 C 131.097656 162.1875 124.660156 164.855469 119.914062 169.601562 C 115.167969 174.347656 112.5 180.785156 112.5 187.5 Z M 112.5 187.5 " clip-rule="nonzero"/></clipPath><clipPath id="459d959a86"><path d="M 139 176.28125 L 143 176.28125 L 143 179 L 139 179 Z M 139 176.28125 " clip-rule="nonzero"/></clipPath><clipPath id="afe434dd53"><path d="M 112.5 187.5 C 112.5 194.214844 115.167969 200.652344 119.914062 205.398438 C 124.660156 210.144531 131.097656 212.8125 137.8125 212.8125 L 141.042969 212.8125 C 147.757812 212.8125 154.195312 210.144531 158.941406 205.398438 C 163.691406 200.652344 166.355469 194.214844 166.355469 187.5 C 166.355469 180.785156 163.691406 174.347656 158.941406 169.601562 C 154.195312 164.855469 147.757812 162.1875 141.042969 162.1875 L 137.8125 162.1875 C 131.097656 162.1875 124.660156 164.855469 119.914062 169.601562 C 115.167969 174.347656 112.5 180.785156 112.5 187.5 Z M 112.5 187.5 " clip-rule="nonzero"/></clipPath><clipPath id="6f655a96cf"><path d="M 140 176.28125 L 148 176.28125 L 148 184 L 140 184 Z M 140 176.28125 " clip-rule="nonzero"/></clipPath><clipPath id="6284f8ee6b"><path d="M 112.5 187.5 C 112.5 194.214844 115.167969 200.652344 119.914062 205.398438 C 124.660156 210.144531 131.097656 212.8125 137.8125 212.8125 L 141.042969 212.8125 C 147.757812 212.8125 154.195312 210.144531 158.941406 205.398438 C 163.691406 200.652344 166.355469 194.214844 166.355469 187.5 C 166.355469 180.785156 163.691406 174.347656 158.941406 169.601562 C 154.195312 164.855469 147.757812 162.1875 141.042969 162.1875 L 137.8125 162.1875 C 131.097656 162.1875 124.660156 164.855469 119.914062 169.601562 C 115.167969 174.347656 112.5 180.785156 112.5 187.5 Z M 112.5 187.5 " clip-rule="nonzero"/></clipPath><clipPath id="8d6904fc82"><path d="M 140 191 L 150 191 L 150 201.449219 L 140 201.449219 Z M 140 191 " clip-rule="nonzero"/></clipPath><clipPath id="b5a1880a33"><path d="M 112.5 187.5 C 112.5 194.214844 115.167969 200.652344 119.914062 205.398438 C 124.660156 210.144531 131.097656 212.8125 137.8125 212.8125 L 141.042969 212.8125 C 147.757812 212.8125 154.195312 210.144531 158.941406 205.398438 C 163.691406 200.652344 166.355469 194.214844 166.355469 187.5 C 166.355469 180.785156 163.691406 174.347656 158.941406 169.601562 C 154.195312 164.855469 147.757812 162.1875 141.042969 162.1875 L 137.8125 162.1875 C 131.097656 162.1875 124.660156 164.855469 119.914062 169.601562 C 115.167969 174.347656 112.5 180.785156 112.5 187.5 Z M 112.5 187.5 " clip-rule="nonzero"/></clipPath><clipPath id="b3eb08191f"><path d="M 143 179 L 151 179 L 151 188 L 143 188 Z M 143 179 " clip-rule="nonzero"/></clipPath><clipPath id="cbe6eac282"><path d="M 112.5 187.5 C 112.5 194.214844 115.167969 200.652344 119.914062 205.398438 C 124.660156 210.144531 131.097656 212.8125 137.8125 212.8125 L 141.042969 212.8125 C 147.757812 212.8125 154.195312 210.144531 158.941406 205.398438 C 163.691406 200.652344 166.355469 194.214844 166.355469 187.5 C 166.355469 180.785156 163.691406 174.347656 158.941406 169.601562 C 154.195312 164.855469 147.757812 162.1875 141.042969 162.1875 L 137.8125 162.1875 C 131.097656 162.1875 124.660156 164.855469 119.914062 169.601562 C 115.167969 174.347656 112.5 180.785156 112.5 187.5 Z M 112.5 187.5 " clip-rule="nonzero"/></clipPath><clipPath id="afc88d7492"><path d="M 145 185 L 151.089844 185 L 151.089844 193 L 145 193 Z M 145 185 " clip-rule="nonzero"/></clipPath><clipPath id="2f9361760e"><path d="M 112.5 187.5 C 112.5 194.214844 115.167969 200.652344 119.914062 205.398438 C 124.660156 210.144531 131.097656 212.8125 137.8125 212.8125 L 141.042969 212.8125 C 147.757812 212.8125 154.195312 210.144531 158.941406 205.398438 C 163.691406 200.652344 166.355469 194.214844 166.355469 187.5 C 166.355469 180.785156 163.691406 174.347656 158.941406 169.601562 C 154.195312 164.855469 147.757812 162.1875 141.042969 162.1875 L 137.8125 162.1875 C 131.097656 162.1875 124.660156 164.855469 119.914062 169.601562 C 115.167969 174.347656 112.5 180.785156 112.5 187.5 Z M 112.5 187.5 " clip-rule="nonzero"/></clipPath><clipPath id="086b84d459"><path d="M 119 192 L 122 192 L 122 195 L 119 195 Z M 119 192 " clip-rule="nonzero"/></clipPath><clipPath id="836911fe4f"><path d="M 112.5 187.5 C 112.5 194.214844 115.167969 200.652344 119.914062 205.398438 C 124.660156 210.144531 131.097656 212.8125 137.8125 212.8125 L 141.042969 212.8125 C 147.757812 212.8125 154.195312 210.144531 158.941406 205.398438 C 163.691406 200.652344 166.355469 194.214844 166.355469 187.5 C 166.355469 180.785156 163.691406 174.347656 158.941406 169.601562 C 154.195312 164.855469 147.757812 162.1875 141.042969 162.1875 L 137.8125 162.1875 C 131.097656 162.1875 124.660156 164.855469 119.914062 169.601562 C 115.167969 174.347656 112.5 180.785156 112.5 187.5 Z M 112.5 187.5 " clip-rule="nonzero"/></clipPath><clipPath id="04735f0c6f"><path d="M 116.375 196.257812 L 114.433594 190.261719 L 120.402344 188.3125 L 122.34375 194.308594 Z M 116.375 196.257812 " clip-rule="nonzero"/></clipPath><clipPath id="42a9ab6fcd"><path d="M 119.089844 195.277344 L 118.136719 192.339844 L 121.0625 191.386719 L 122.015625 194.324219 Z M 119.089844 195.277344 " clip-rule="nonzero"/></clipPath><clipPath id="563b0f6ca2"><path d="M 157 192 L 160 192 L 160 195 L 157 195 Z M 157 192 " clip-rule="nonzero"/></clipPath><clipPath id="1ac229a729"><path d="M 112.5 187.5 C 112.5 194.214844 115.167969 200.652344 119.914062 205.398438 C 124.660156 210.144531 131.097656 212.8125 137.8125 212.8125 L 141.042969 212.8125 C 147.757812 212.8125 154.195312 210.144531 158.941406 205.398438 C 163.691406 200.652344 166.355469 194.214844 166.355469 187.5 C 166.355469 180.785156 163.691406 174.347656 158.941406 169.601562 C 154.195312 164.855469 147.757812 162.1875 141.042969 162.1875 L 137.8125 162.1875 C 131.097656 162.1875 124.660156 164.855469 119.914062 169.601562 C 115.167969 174.347656 112.5 180.785156 112.5 187.5 Z M 112.5 187.5 " clip-rule="nonzero"/></clipPath><clipPath id="1c850586b1"><path d="M 162.222656 197.347656 L 164.164062 191.351562 L 158.195312 189.398438 L 156.253906 195.394531 Z M 162.222656 197.347656 " clip-rule="nonzero"/></clipPath><clipPath id="01d3bf4f26"><path d="M 159.863281 195.277344 L 160.8125 192.335938 L 157.890625 191.382812 L 156.9375 194.320312 Z M 159.863281 195.277344 " clip-rule="nonzero"/></clipPath></defs><g clip-path="url(#b3afcc1059)"><g clip-path="url(#5cdb08d051)"><path fill="#ffffff" d="M 112.960938 161.027344 L 166.042969 161.027344 L 166.042969 214.351562 L 112.960938 214.351562 Z M 112.960938 161.027344 " fill-opacity="1" fill-rule="nonzero"/></g></g><g clip-path="url(#3f4bae66ab)"><g clip-path="url(#10ba878ce0)"><path fill="#1e3e4f" d="M 121.894531 187.734375 L 117.363281 187.28125 L 117.488281 186.03125 L 122.019531 186.484375 L 121.894531 187.734375 M 122.121094 185.542969 L 117.734375 184.324219 L 118.257812 182.425781 C 118.316406 182.210938 118.414062 182.023438 118.550781 181.867188 C 118.6875 181.707031 118.847656 181.582031 119.03125 181.492188 C 119.214844 181.398438 119.40625 181.34375 119.605469 181.320312 C 119.808594 181.296875 120 181.3125 120.1875 181.363281 C 120.445312 181.4375 120.675781 181.566406 120.871094 181.75 C 121.070312 181.9375 121.210938 182.160156 121.296875 182.417969 C 121.382812 182.675781 121.386719 182.949219 121.308594 183.238281 L 121.109375 183.960938 L 122.457031 184.332031 L 122.121094 185.542969 M 120.058594 183.667969 L 120.234375 183.027344 C 120.246094 182.976562 120.246094 182.925781 120.230469 182.875 C 120.214844 182.820312 120.175781 182.769531 120.113281 182.71875 C 120.050781 182.667969 119.964844 182.625 119.847656 182.59375 C 119.726562 182.558594 119.625 182.550781 119.546875 182.566406 C 119.46875 182.582031 119.410156 182.613281 119.367188 182.65625 C 119.328125 182.703125 119.300781 182.75 119.285156 182.796875 L 119.117188 183.40625 L 120.058594 183.667969 M 119.714844 178.777344 L 120.375 177.542969 L 125.074219 178.417969 L 124.472656 179.542969 L 123.558594 179.363281 L 122.984375 180.4375 L 123.644531 181.097656 L 123.039062 182.226562 L 119.714844 178.777344 M 122.730469 179.144531 L 121.125 178.742188 L 122.339844 179.875 L 122.730469 179.144531 M 124.957031 173.394531 L 124.09375 174.382812 L 126.699219 176.671875 L 125.875 177.617188 L 123.269531 175.328125 L 122.40625 176.320312 L 121.585938 175.601562 L 124.136719 172.671875 L 124.957031 173.394531 M 130.007812 170.367188 C 130.007812 170.367188 129.964844 170.367188 129.878906 170.367188 C 129.796875 170.367188 129.6875 170.375 129.558594 170.390625 C 129.425781 170.40625 129.289062 170.429688 129.148438 170.464844 C 129.003906 170.5 128.875 170.550781 128.757812 170.621094 C 128.664062 170.675781 128.597656 170.734375 128.554688 170.800781 C 128.515625 170.863281 128.511719 170.929688 128.554688 171 C 128.59375 171.066406 128.65625 171.105469 128.738281 171.109375 C 128.820312 171.117188 128.925781 171.105469 129.054688 171.074219 C 129.183594 171.042969 129.335938 171.003906 129.515625 170.964844 C 129.800781 170.894531 130.0625 170.855469 130.292969 170.847656 C 130.527344 170.839844 130.734375 170.882812 130.917969 170.976562 C 131.101562 171.070312 131.265625 171.238281 131.414062 171.488281 C 131.550781 171.722656 131.625 171.949219 131.636719 172.160156 C 131.644531 172.371094 131.605469 172.566406 131.519531 172.746094 C 131.429688 172.929688 131.3125 173.09375 131.160156 173.238281 C 131.007812 173.386719 130.839844 173.515625 130.65625 173.625 C 130.46875 173.734375 130.257812 173.832031 130.03125 173.914062 C 129.804688 173.996094 129.574219 174.058594 129.34375 174.101562 C 129.113281 174.148438 128.890625 174.171875 128.675781 174.171875 L 128.585938 172.949219 C 128.585938 172.949219 128.636719 172.949219 128.734375 172.949219 C 128.835938 172.949219 128.960938 172.941406 129.117188 172.925781 C 129.269531 172.910156 129.433594 172.878906 129.609375 172.835938 C 129.785156 172.792969 129.949219 172.726562 130.101562 172.636719 C 130.21875 172.566406 130.289062 172.503906 130.316406 172.445312 C 130.34375 172.386719 130.34375 172.332031 130.3125 172.277344 C 130.269531 172.199219 130.191406 172.164062 130.085938 172.167969 C 129.980469 172.175781 129.851562 172.195312 129.699219 172.234375 C 129.542969 172.273438 129.371094 172.3125 129.183594 172.355469 C 128.910156 172.414062 128.671875 172.4375 128.464844 172.425781 C 128.261719 172.414062 128.085938 172.363281 127.933594 172.269531 C 127.785156 172.175781 127.65625 172.03125 127.542969 171.839844 C 127.371094 171.546875 127.296875 171.261719 127.316406 170.984375 C 127.339844 170.707031 127.433594 170.453125 127.59375 170.21875 C 127.757812 169.984375 127.96875 169.792969 128.226562 169.640625 C 128.417969 169.527344 128.617188 169.441406 128.824219 169.382812 C 129.027344 169.324219 129.230469 169.28125 129.425781 169.253906 C 129.621094 169.230469 129.792969 169.210938 129.945312 169.199219 L 130.007812 170.367188 M 134.761719 171.863281 C 134.425781 171.957031 134.105469 171.976562 133.800781 171.925781 C 133.492188 171.878906 133.210938 171.773438 132.957031 171.613281 C 132.703125 171.457031 132.488281 171.257812 132.308594 171.019531 C 132.128906 170.785156 132 170.523438 131.921875 170.238281 C 131.839844 169.941406 131.816406 169.648438 131.855469 169.351562 C 131.894531 169.054688 131.984375 168.777344 132.125 168.511719 C 132.265625 168.246094 132.457031 168.015625 132.699219 167.820312 C 132.941406 167.621094 133.222656 167.480469 133.546875 167.386719 C 133.882812 167.296875 134.203125 167.273438 134.507812 167.324219 C 134.816406 167.375 135.09375 167.480469 135.347656 167.640625 C 135.601562 167.800781 135.816406 168 135.996094 168.238281 C 136.175781 168.476562 136.304688 168.734375 136.382812 169.015625 C 136.460938 169.304688 136.484375 169.597656 136.449219 169.894531 C 136.410156 170.1875 136.324219 170.46875 136.179688 170.734375 C 136.039062 171 135.847656 171.230469 135.609375 171.429688 C 135.375 171.625 135.089844 171.769531 134.761719 171.863281 M 133.148438 169.90625 C 133.1875 170.054688 133.25 170.195312 133.328125 170.320312 C 133.40625 170.449219 133.503906 170.554688 133.617188 170.640625 C 133.730469 170.726562 133.859375 170.785156 134 170.816406 C 134.144531 170.84375 134.300781 170.835938 134.476562 170.785156 C 134.648438 170.738281 134.789062 170.664062 134.898438 170.5625 C 135.007812 170.460938 135.085938 170.339844 135.136719 170.203125 C 135.183594 170.066406 135.210938 169.925781 135.210938 169.773438 C 135.210938 169.625 135.191406 169.480469 135.152344 169.332031 C 135.109375 169.183594 135.050781 169.046875 134.972656 168.921875 C 134.890625 168.796875 134.796875 168.691406 134.683594 168.605469 C 134.570312 168.519531 134.441406 168.460938 134.296875 168.4375 C 134.152344 168.410156 133.996094 168.421875 133.828125 168.46875 C 133.652344 168.515625 133.511719 168.589844 133.40625 168.691406 C 133.300781 168.792969 133.21875 168.910156 133.167969 169.042969 C 133.117188 169.175781 133.089844 169.316406 133.089844 169.464844 C 133.085938 169.613281 133.105469 169.761719 133.148438 169.90625 M 137.699219 171.207031 L 137.613281 166.632812 L 138.863281 166.609375 L 138.929688 170.089844 L 140.992188 170.050781 L 141.011719 171.144531 L 137.699219 171.207031 M 143.476562 171.679688 C 143.121094 171.59375 142.832031 171.464844 142.605469 171.289062 C 142.378906 171.113281 142.210938 170.902344 142.097656 170.660156 C 141.984375 170.417969 141.921875 170.152344 141.90625 169.871094 C 141.894531 169.585938 141.921875 169.300781 141.992188 169.007812 L 142.523438 166.71875 L 143.742188 167.003906 L 143.207031 169.292969 C 143.175781 169.441406 143.15625 169.582031 143.152344 169.722656 C 143.152344 169.863281 143.171875 169.996094 143.207031 170.113281 C 143.246094 170.234375 143.308594 170.335938 143.390625 170.417969 C 143.472656 170.5 143.585938 170.558594 143.730469 170.59375 C 143.875 170.628906 144.003906 170.625 144.117188 170.589844 C 144.230469 170.550781 144.332031 170.488281 144.417969 170.394531 C 144.503906 170.300781 144.574219 170.191406 144.636719 170.066406 C 144.695312 169.9375 144.742188 169.804688 144.773438 169.660156 L 145.308594 167.371094 L 146.527344 167.660156 L 145.992188 169.949219 C 145.921875 170.257812 145.8125 170.535156 145.667969 170.785156 C 145.527344 171.03125 145.347656 171.238281 145.140625 171.402344 C 144.929688 171.5625 144.6875 171.671875 144.410156 171.722656 C 144.132812 171.773438 143.820312 171.757812 143.476562 171.679688 M 151.054688 171.074219 L 149.898438 170.457031 L 148.277344 173.53125 L 147.175781 172.941406 L 148.796875 169.871094 L 147.632812 169.25 L 148.144531 168.285156 L 151.566406 170.105469 L 151.054688 171.074219 M 149.886719 174.582031 L 152.703125 170.992188 L 153.683594 171.769531 L 150.867188 175.359375 L 149.886719 174.582031 M 152.9375 177.519531 C 152.714844 177.253906 152.5625 176.96875 152.480469 176.667969 C 152.398438 176.367188 152.378906 176.066406 152.417969 175.769531 C 152.453125 175.46875 152.542969 175.1875 152.6875 174.925781 C 152.828125 174.664062 153.011719 174.441406 153.238281 174.25 C 153.46875 174.054688 153.726562 173.910156 154.011719 173.824219 C 154.292969 173.734375 154.585938 173.703125 154.882812 173.722656 C 155.183594 173.742188 155.472656 173.824219 155.75 173.960938 C 156.027344 174.101562 156.273438 174.300781 156.492188 174.558594 C 156.714844 174.828125 156.863281 175.109375 156.945312 175.410156 C 157.027344 175.710938 157.046875 176.011719 157.007812 176.308594 C 156.964844 176.609375 156.875 176.886719 156.734375 177.152344 C 156.589844 177.414062 156.410156 177.636719 156.1875 177.824219 C 155.957031 178.019531 155.703125 178.160156 155.417969 178.25 C 155.136719 178.335938 154.847656 178.371094 154.546875 178.351562 C 154.25 178.332031 153.960938 178.253906 153.683594 178.117188 C 153.40625 177.980469 153.15625 177.78125 152.9375 177.519531 M 154.042969 175.234375 C 153.925781 175.335938 153.824219 175.445312 153.742188 175.570312 C 153.660156 175.695312 153.601562 175.828125 153.570312 175.96875 C 153.539062 176.105469 153.539062 176.246094 153.574219 176.390625 C 153.605469 176.535156 153.679688 176.675781 153.792969 176.8125 C 153.910156 176.953125 154.035156 177.050781 154.175781 177.105469 C 154.3125 177.164062 154.453125 177.1875 154.597656 177.175781 C 154.738281 177.164062 154.878906 177.128906 155.015625 177.066406 C 155.152344 177.007812 155.277344 176.925781 155.390625 176.832031 C 155.507812 176.730469 155.609375 176.621094 155.6875 176.496094 C 155.769531 176.371094 155.824219 176.242188 155.855469 176.101562 C 155.890625 175.960938 155.886719 175.820312 155.851562 175.679688 C 155.816406 175.535156 155.742188 175.394531 155.628906 175.261719 C 155.511719 175.121094 155.386719 175.023438 155.25 174.96875 C 155.113281 174.914062 154.976562 174.886719 154.835938 174.894531 C 154.691406 174.902344 154.554688 174.9375 154.417969 175 C 154.28125 175.058594 154.15625 175.136719 154.042969 175.234375 M 157.347656 180.160156 L 155.300781 181.0625 L 154.796875 179.910156 L 158.96875 178.078125 L 159.359375 178.976562 L 157.972656 181.589844 L 160.09375 180.65625 L 160.59375 181.808594 L 156.421875 183.640625 L 156.023438 182.726562 L 157.347656 180.160156 M 160.085938 186.839844 C 160.085938 186.839844 160.101562 186.800781 160.132812 186.722656 C 160.164062 186.644531 160.195312 186.542969 160.230469 186.414062 C 160.265625 186.289062 160.292969 186.152344 160.3125 186.003906 C 160.332031 185.855469 160.332031 185.714844 160.3125 185.582031 C 160.296875 185.472656 160.265625 185.390625 160.222656 185.328125 C 160.175781 185.265625 160.113281 185.238281 160.035156 185.253906 C 159.957031 185.265625 159.902344 185.308594 159.867188 185.382812 C 159.832031 185.457031 159.804688 185.5625 159.785156 185.691406 C 159.765625 185.824219 159.742188 185.980469 159.714844 186.164062 C 159.671875 186.457031 159.613281 186.710938 159.535156 186.933594 C 159.457031 187.152344 159.339844 187.332031 159.1875 187.46875 C 159.03125 187.605469 158.816406 187.699219 158.53125 187.742188 C 158.261719 187.785156 158.027344 187.769531 157.828125 187.703125 C 157.628906 187.632812 157.460938 187.523438 157.328125 187.375 C 157.191406 187.226562 157.082031 187.054688 157.003906 186.859375 C 156.921875 186.664062 156.867188 186.457031 156.835938 186.246094 C 156.800781 186.03125 156.789062 185.800781 156.796875 185.558594 C 156.804688 185.316406 156.828125 185.078125 156.875 184.84375 C 156.917969 184.613281 156.980469 184.398438 157.054688 184.199219 L 158.222656 184.5625 C 158.222656 184.5625 158.203125 184.609375 158.164062 184.703125 C 158.128906 184.796875 158.089844 184.917969 158.046875 185.066406 C 158.003906 185.214844 157.972656 185.382812 157.949219 185.5625 C 157.925781 185.742188 157.925781 185.917969 157.953125 186.09375 C 157.972656 186.226562 158.003906 186.320312 158.050781 186.367188 C 158.09375 186.414062 158.144531 186.433594 158.203125 186.425781 C 158.292969 186.410156 158.355469 186.351562 158.390625 186.25 C 158.421875 186.152344 158.449219 186.023438 158.472656 185.863281 C 158.492188 185.707031 158.519531 185.53125 158.550781 185.339844 C 158.597656 185.0625 158.664062 184.832031 158.75 184.644531 C 158.835938 184.457031 158.949219 184.3125 159.089844 184.207031 C 159.234375 184.101562 159.414062 184.03125 159.632812 184 C 159.96875 183.945312 160.257812 183.980469 160.507812 184.101562 C 160.753906 184.226562 160.957031 184.40625 161.113281 184.644531 C 161.269531 184.882812 161.367188 185.152344 161.414062 185.449219 C 161.449219 185.667969 161.457031 185.886719 161.433594 186.097656 C 161.414062 186.3125 161.378906 186.515625 161.332031 186.707031 C 161.28125 186.902344 161.234375 187.070312 161.1875 187.214844 L 160.085938 186.839844 " fill-opacity="1" fill-rule="nonzero"/></g></g><g clip-path="url(#499f5ea214)"><g clip-path="url(#3e55309b7a)"><path fill="#1f4353" d="M 124.414062 198.058594 L 124.511719 198.21875 L 123.097656 200.183594 L 122.976562 199.984375 L 123.421875 199.371094 L 122.894531 198.511719 L 122.152344 198.636719 L 122.03125 198.433594 L 124.414062 198.058594 M 123.539062 199.234375 L 124.246094 198.273438 L 123.066406 198.460938 L 123.539062 199.234375 M 125.042969 199.742188 L 123.628906 200.898438 L 123.492188 200.726562 L 125.21875 199.3125 L 125.328125 199.445312 L 124.820312 201.769531 L 126.253906 200.597656 L 126.394531 200.769531 L 124.667969 202.179688 L 124.546875 202.03125 L 125.042969 199.742188 M 125.925781 203.441406 L 127.4375 201.796875 L 127.601562 201.945312 L 126.089844 203.589844 L 125.925781 203.441406 M 126.671875 204.117188 L 128.050781 202.359375 L 128.777344 202.933594 C 128.851562 202.996094 128.90625 203.066406 128.945312 203.148438 C 128.984375 203.230469 129.003906 203.316406 129.011719 203.402344 C 129.015625 203.492188 129.003906 203.578125 128.980469 203.667969 C 128.953125 203.753906 128.914062 203.832031 128.863281 203.898438 C 128.804688 203.972656 128.738281 204.03125 128.660156 204.078125 C 128.585938 204.125 128.503906 204.15625 128.417969 204.171875 C 128.335938 204.1875 128.25 204.1875 128.164062 204.171875 C 128.078125 204.152344 127.996094 204.113281 127.917969 204.054688 L 127.351562 203.605469 L 126.84375 204.253906 L 126.671875 204.117188 M 127.472656 203.453125 L 128.03125 203.894531 C 128.082031 203.9375 128.140625 203.960938 128.199219 203.972656 C 128.257812 203.984375 128.316406 203.980469 128.375 203.96875 C 128.433594 203.953125 128.492188 203.929688 128.546875 203.894531 C 128.601562 203.859375 128.648438 203.816406 128.691406 203.761719 C 128.734375 203.707031 128.761719 203.648438 128.78125 203.585938 C 128.800781 203.519531 128.808594 203.457031 128.804688 203.398438 C 128.804688 203.335938 128.789062 203.277344 128.761719 203.222656 C 128.734375 203.167969 128.695312 203.121094 128.648438 203.082031 L 128.101562 202.652344 L 127.472656 203.453125 M 129.632812 204.890625 C 129.699219 204.773438 129.785156 204.667969 129.890625 204.574219 C 129.992188 204.480469 130.109375 204.40625 130.242188 204.359375 C 130.371094 204.3125 130.507812 204.289062 130.65625 204.296875 C 130.800781 204.300781 130.949219 204.34375 131.097656 204.425781 C 131.269531 204.523438 131.398438 204.644531 131.476562 204.792969 C 131.558594 204.9375 131.59375 205.09375 131.582031 205.253906 L 131.378906 205.261719 C 131.382812 205.179688 131.375 205.105469 131.355469 205.035156 C 131.332031 204.96875 131.304688 204.90625 131.269531 204.847656 C 131.234375 204.792969 131.191406 204.742188 131.140625 204.703125 C 131.09375 204.660156 131.042969 204.625 130.988281 204.59375 C 130.871094 204.527344 130.753906 204.496094 130.640625 204.492188 C 130.523438 204.492188 130.414062 204.511719 130.308594 204.554688 C 130.207031 204.597656 130.113281 204.660156 130.027344 204.742188 C 129.945312 204.820312 129.875 204.910156 129.820312 205.007812 C 129.761719 205.117188 129.722656 205.230469 129.707031 205.351562 C 129.6875 205.472656 129.691406 205.589844 129.714844 205.699219 C 129.738281 205.8125 129.78125 205.917969 129.847656 206.011719 C 129.910156 206.105469 129.996094 206.179688 130.097656 206.238281 C 130.15625 206.269531 130.214844 206.292969 130.28125 206.3125 C 130.34375 206.328125 130.414062 206.339844 130.484375 206.339844 C 130.554688 206.335938 130.625 206.328125 130.695312 206.308594 C 130.765625 206.289062 130.835938 206.253906 130.902344 206.207031 L 131.015625 206.378906 C 130.945312 206.433594 130.863281 206.476562 130.777344 206.5 C 130.6875 206.523438 130.601562 206.539062 130.507812 206.539062 C 130.417969 206.539062 130.328125 206.527344 130.238281 206.503906 C 130.148438 206.480469 130.066406 206.449219 129.992188 206.40625 C 129.859375 206.332031 129.753906 206.234375 129.671875 206.113281 C 129.59375 205.992188 129.539062 205.863281 129.511719 205.722656 C 129.480469 205.585938 129.476562 205.441406 129.5 205.296875 C 129.519531 205.152344 129.566406 205.015625 129.632812 204.890625 M 132.242188 207.453125 C 132.097656 207.394531 131.976562 207.316406 131.878906 207.207031 C 131.78125 207.101562 131.710938 206.980469 131.664062 206.847656 C 131.617188 206.714844 131.59375 206.578125 131.597656 206.429688 C 131.601562 206.285156 131.628906 206.148438 131.679688 206.011719 C 131.734375 205.875 131.808594 205.75 131.910156 205.644531 C 132.007812 205.535156 132.121094 205.449219 132.246094 205.386719 C 132.371094 205.324219 132.503906 205.285156 132.648438 205.273438 C 132.789062 205.265625 132.929688 205.285156 133.066406 205.339844 C 133.210938 205.398438 133.332031 205.480469 133.425781 205.589844 C 133.523438 205.695312 133.59375 205.816406 133.640625 205.949219 C 133.683594 206.082031 133.707031 206.222656 133.703125 206.367188 C 133.703125 206.511719 133.675781 206.648438 133.625 206.78125 C 133.570312 206.921875 133.492188 207.042969 133.394531 207.152344 C 133.296875 207.257812 133.183594 207.34375 133.058594 207.40625 C 132.933594 207.46875 132.800781 207.507812 132.660156 207.519531 C 132.519531 207.527344 132.378906 207.507812 132.242188 207.453125 M 131.882812 206.09375 C 131.839844 206.207031 131.816406 206.324219 131.8125 206.441406 C 131.808594 206.5625 131.824219 206.675781 131.859375 206.785156 C 131.898438 206.890625 131.953125 206.988281 132.027344 207.074219 C 132.101562 207.15625 132.199219 207.222656 132.3125 207.269531 C 132.429688 207.3125 132.546875 207.328125 132.660156 207.316406 C 132.777344 207.304688 132.882812 207.269531 132.980469 207.210938 C 133.078125 207.15625 133.167969 207.082031 133.242188 206.992188 C 133.320312 206.902344 133.378906 206.804688 133.421875 206.699219 C 133.464844 206.585938 133.488281 206.46875 133.492188 206.347656 C 133.492188 206.226562 133.476562 206.113281 133.441406 206.007812 C 133.402344 205.902344 133.347656 205.804688 133.273438 205.71875 C 133.199219 205.636719 133.101562 205.570312 132.992188 205.527344 C 132.875 205.480469 132.757812 205.464844 132.644531 205.476562 C 132.527344 205.488281 132.421875 205.523438 132.324219 205.578125 C 132.226562 205.636719 132.136719 205.707031 132.0625 205.796875 C 131.984375 205.886719 131.925781 205.984375 131.882812 206.09375 M 134.601562 206.320312 L 134.179688 208.097656 L 133.964844 208.046875 L 134.480469 205.871094 L 134.644531 205.910156 L 135.652344 208.066406 L 136.082031 206.253906 L 136.292969 206.308594 L 135.777344 208.480469 L 135.589844 208.4375 L 134.601562 206.320312 M 138.152344 206.949219 C 138.097656 206.875 138.019531 206.808594 137.917969 206.75 C 137.820312 206.695312 137.703125 206.660156 137.570312 206.648438 C 137.375 206.625 137.230469 206.648438 137.132812 206.710938 C 137.035156 206.777344 136.976562 206.871094 136.964844 207 C 136.957031 207.066406 136.964844 207.121094 136.984375 207.167969 C 137 207.214844 137.035156 207.253906 137.082031 207.289062 C 137.128906 207.328125 137.1875 207.363281 137.265625 207.394531 C 137.339844 207.425781 137.429688 207.457031 137.53125 207.492188 C 137.648438 207.53125 137.753906 207.570312 137.84375 207.613281 C 137.933594 207.652344 138.011719 207.703125 138.074219 207.757812 C 138.132812 207.808594 138.179688 207.871094 138.207031 207.945312 C 138.234375 208.015625 138.242188 208.101562 138.234375 208.199219 C 138.222656 208.300781 138.191406 208.390625 138.144531 208.460938 C 138.097656 208.53125 138.035156 208.585938 137.960938 208.628906 C 137.882812 208.671875 137.792969 208.699219 137.695312 208.714844 C 137.59375 208.726562 137.484375 208.726562 137.367188 208.714844 C 137.027344 208.675781 136.742188 208.535156 136.515625 208.292969 L 136.644531 208.128906 C 136.679688 208.175781 136.722656 208.21875 136.773438 208.261719 C 136.824219 208.304688 136.882812 208.34375 136.945312 208.382812 C 137.011719 208.417969 137.082031 208.445312 137.15625 208.472656 C 137.230469 208.496094 137.3125 208.511719 137.394531 208.519531 C 137.574219 208.539062 137.714844 208.523438 137.820312 208.46875 C 137.925781 208.417969 137.984375 208.328125 138 208.195312 C 138.007812 208.128906 138 208.066406 137.976562 208.019531 C 137.953125 207.96875 137.914062 207.921875 137.863281 207.882812 C 137.8125 207.839844 137.746094 207.804688 137.664062 207.769531 C 137.582031 207.734375 137.488281 207.699219 137.382812 207.664062 C 137.269531 207.625 137.167969 207.582031 137.085938 207.546875 C 137 207.507812 136.929688 207.460938 136.875 207.410156 C 136.820312 207.359375 136.78125 207.304688 136.757812 207.238281 C 136.734375 207.171875 136.726562 207.09375 136.738281 207.003906 C 136.746094 206.902344 136.777344 206.8125 136.824219 206.738281 C 136.871094 206.660156 136.933594 206.601562 137.007812 206.554688 C 137.085938 206.507812 137.171875 206.476562 137.273438 206.460938 C 137.371094 206.441406 137.480469 206.441406 137.59375 206.453125 C 137.742188 206.46875 137.871094 206.503906 137.984375 206.5625 C 138.09375 206.621094 138.191406 206.695312 138.277344 206.789062 L 138.152344 206.949219 M 139.785156 208.621094 C 139.925781 208.621094 140.042969 208.59375 140.136719 208.535156 C 140.226562 208.480469 140.300781 208.410156 140.355469 208.324219 C 140.410156 208.234375 140.445312 208.132812 140.464844 208.023438 C 140.484375 207.910156 140.496094 207.796875 140.492188 207.683594 L 140.476562 206.554688 L 140.695312 206.554688 L 140.714844 207.679688 C 140.714844 207.832031 140.699219 207.976562 140.667969 208.113281 C 140.636719 208.25 140.585938 208.367188 140.515625 208.472656 C 140.441406 208.578125 140.34375 208.660156 140.226562 208.722656 C 140.109375 208.785156 139.964844 208.820312 139.792969 208.820312 C 139.617188 208.824219 139.46875 208.792969 139.347656 208.734375 C 139.226562 208.671875 139.128906 208.585938 139.054688 208.484375 C 138.976562 208.378906 138.921875 208.261719 138.890625 208.125 C 138.855469 207.992188 138.839844 207.855469 138.835938 207.710938 L 138.820312 206.582031 L 139.035156 206.578125 L 139.054688 207.707031 C 139.054688 207.824219 139.070312 207.941406 139.09375 208.050781 C 139.117188 208.160156 139.160156 208.261719 139.214844 208.34375 C 139.273438 208.429688 139.347656 208.5 139.441406 208.550781 C 139.53125 208.601562 139.648438 208.625 139.785156 208.621094 M 141.550781 208.703125 L 141.269531 206.484375 L 141.488281 206.457031 L 141.746094 208.480469 L 143.023438 208.316406 L 143.046875 208.511719 L 141.550781 208.703125 M 144.351562 206.105469 L 143.578125 206.285156 L 144.03125 208.277344 L 143.820312 208.324219 L 143.363281 206.335938 L 142.589844 206.515625 L 142.546875 206.324219 L 144.308594 205.917969 L 144.351562 206.105469 M 145.339844 207.917969 L 144.671875 205.785156 L 144.878906 205.71875 L 145.550781 207.851562 L 145.339844 207.917969 M 145.828125 205.835938 L 146.535156 207.519531 L 146.332031 207.605469 L 145.464844 205.542969 L 145.621094 205.476562 L 147.703125 206.617188 L 146.984375 204.902344 L 147.183594 204.816406 L 148.050781 206.878906 L 147.875 206.953125 L 145.828125 205.835938 M 150.082031 205.351562 C 150.019531 205.65625 149.875 205.875 149.640625 206.015625 C 149.511719 206.089844 149.375 206.132812 149.234375 206.144531 C 149.09375 206.152344 148.953125 206.132812 148.820312 206.089844 C 148.683594 206.046875 148.5625 205.976562 148.449219 205.886719 C 148.332031 205.796875 148.242188 205.691406 148.167969 205.570312 C 148.09375 205.441406 148.042969 205.304688 148.015625 205.160156 C 147.992188 205.015625 147.992188 204.875 148.019531 204.738281 C 148.046875 204.601562 148.097656 204.476562 148.171875 204.359375 C 148.25 204.242188 148.351562 204.144531 148.480469 204.066406 C 148.574219 204.011719 148.664062 203.972656 148.753906 203.945312 C 148.84375 203.921875 148.929688 203.910156 149.011719 203.910156 C 149.09375 203.910156 149.171875 203.925781 149.246094 203.949219 C 149.320312 203.976562 149.394531 204.011719 149.460938 204.054688 L 149.371094 204.238281 C 149.238281 204.15625 149.105469 204.117188 148.96875 204.121094 C 148.835938 204.125 148.707031 204.164062 148.578125 204.242188 C 148.472656 204.304688 148.390625 204.382812 148.332031 204.480469 C 148.273438 204.574219 148.234375 204.679688 148.21875 204.789062 C 148.203125 204.902344 148.207031 205.015625 148.230469 205.128906 C 148.253906 205.246094 148.296875 205.355469 148.359375 205.457031 C 148.421875 205.566406 148.5 205.660156 148.597656 205.734375 C 148.691406 205.8125 148.792969 205.867188 148.898438 205.902344 C 149.007812 205.933594 149.117188 205.949219 149.230469 205.941406 C 149.34375 205.929688 149.453125 205.898438 149.554688 205.835938 C 149.664062 205.769531 149.753906 205.683594 149.824219 205.570312 C 149.894531 205.460938 149.941406 205.320312 149.964844 205.15625 L 149.777344 204.835938 L 149.351562 205.089844 L 149.265625 204.941406 L 149.851562 204.59375 L 150.410156 205.539062 L 150.25 205.636719 L 150.082031 205.351562 M 151.804688 204.511719 L 150.363281 202.804688 L 151.480469 201.855469 L 151.609375 202.003906 L 150.660156 202.808594 L 151.1875 203.4375 L 151.988281 202.757812 L 152.105469 202.898438 L 151.304688 203.578125 L 151.972656 204.371094 L 151.804688 204.511719 M 153.351562 203.128906 L 151.785156 201.539062 L 151.941406 201.382812 L 153.507812 202.972656 L 153.351562 203.128906 M 154.070312 202.40625 L 152.378906 200.953125 L 152.992188 200.234375 C 153.054688 200.160156 153.125 200.105469 153.210938 200.070312 C 153.292969 200.035156 153.378906 200.019531 153.46875 200.015625 C 153.554688 200.015625 153.640625 200.027344 153.726562 200.058594 C 153.8125 200.089844 153.886719 200.132812 153.949219 200.1875 C 154.011719 200.242188 154.0625 200.300781 154.105469 200.367188 C 154.144531 200.433594 154.175781 200.503906 154.191406 200.574219 C 154.210938 200.648438 154.214844 200.71875 154.207031 200.792969 C 154.195312 200.867188 154.175781 200.9375 154.136719 201.003906 L 155.144531 201.148438 L 154.984375 201.335938 L 154.015625 201.199219 L 153.589844 201.703125 L 154.214844 202.238281 L 154.070312 202.40625 M 153.441406 201.574219 L 153.914062 201.019531 C 153.957031 200.96875 153.984375 200.917969 153.996094 200.855469 C 154.011719 200.796875 154.011719 200.738281 154 200.679688 C 153.988281 200.617188 153.964844 200.558594 153.933594 200.503906 C 153.902344 200.449219 153.859375 200.398438 153.808594 200.355469 C 153.757812 200.3125 153.699219 200.277344 153.636719 200.257812 C 153.574219 200.234375 153.511719 200.222656 153.453125 200.226562 C 153.390625 200.226562 153.332031 200.238281 153.273438 200.261719 C 153.21875 200.289062 153.167969 200.324219 153.128906 200.371094 L 152.667969 200.910156 L 153.441406 201.574219 M 156.675781 198.871094 L 155.132812 197.878906 L 155.886719 199.332031 L 155.816406 199.441406 L 154.1875 199.363281 L 155.730469 200.355469 L 155.609375 200.539062 L 153.734375 199.332031 L 153.855469 199.144531 L 155.609375 199.234375 L 154.796875 197.667969 L 154.914062 197.476562 L 156.792969 198.683594 L 156.675781 198.871094 " fill-opacity="1" fill-rule="nonzero"/></g></g><g clip-path="url(#168d5fc4e2)"><g clip-path="url(#1ab58d4d18)"><path fill="#ee870d" d="M 127.871094 187.925781 C 127.878906 187.757812 127.859375 187.578125 127.890625 187.414062 C 127.964844 187.34375 128.078125 187.304688 128.164062 187.261719 C 128.316406 187.191406 128.46875 187.109375 128.617188 187.03125 C 129.113281 186.761719 129.605469 186.488281 130.105469 186.222656 C 130.238281 186.152344 130.367188 186.082031 130.503906 186.011719 C 130.601562 185.964844 130.71875 185.921875 130.804688 185.855469 C 130.882812 185.953125 130.953125 186.058594 131.03125 186.15625 C 131.335938 186.550781 131.695312 186.976562 131.59375 187.511719 C 131.578125 187.59375 131.554688 187.675781 131.519531 187.75 C 131.472656 187.847656 131.417969 187.929688 131.335938 188 C 131.210938 188.113281 131.023438 188.164062 130.855469 188.128906 C 130.695312 188.097656 130.519531 188.007812 130.351562 188.023438 C 130.207031 188.039062 130.113281 188.15625 130.050781 188.28125 C 129.925781 188.535156 129.90625 188.808594 130.015625 189.070312 C 130.214844 189.546875 130.859375 189.789062 131.300781 189.492188 C 131.386719 189.433594 131.417969 189.335938 131.457031 189.25 C 131.511719 189.140625 131.578125 189.027344 131.667969 188.941406 C 131.929688 188.699219 132.351562 188.675781 132.667969 188.820312 C 132.824219 188.890625 132.960938 189 133.074219 189.132812 C 133.191406 189.273438 133.269531 189.433594 133.328125 189.609375 C 133.511719 190.15625 133.34375 190.792969 132.902344 191.167969 C 132.820312 191.234375 132.71875 191.285156 132.625 191.339844 C 132.433594 191.445312 132.238281 191.542969 132.039062 191.640625 C 131.917969 191.703125 131.792969 191.765625 131.671875 191.832031 C 131.609375 191.863281 131.550781 191.902344 131.484375 191.929688 C 131.472656 191.90625 131.46875 191.855469 131.464844 191.828125 C 131.453125 191.757812 131.4375 191.683594 131.414062 191.617188 C 131.332031 191.375 131.210938 191.148438 131.027344 190.972656 C 130.851562 190.796875 130.640625 190.664062 130.398438 190.605469 C 129.796875 190.457031 129.136719 190.734375 128.90625 191.328125 C 128.832031 191.519531 128.835938 191.710938 128.835938 191.914062 C 128.835938 192.21875 128.859375 192.53125 128.835938 192.835938 C 128.824219 192.847656 128.8125 192.847656 128.792969 192.84375 C 128.761719 192.800781 128.746094 192.738281 128.730469 192.6875 C 128.699219 192.597656 128.664062 192.507812 128.632812 192.417969 C 128.585938 192.289062 128.53125 192.160156 128.484375 192.027344 C 128.4375 191.890625 128.398438 191.746094 128.359375 191.601562 C 128.285156 191.351562 128.214844 191.097656 128.15625 190.839844 C 128.105469 190.613281 128.074219 190.378906 128.035156 190.152344 C 127.992188 189.890625 127.945312 189.625 127.917969 189.359375 C 127.871094 188.886719 127.859375 188.40625 127.871094 187.925781 Z M 127.871094 187.925781 " fill-opacity="1" fill-rule="evenodd"/></g></g><g clip-path="url(#f33c245dc7)"><g clip-path="url(#5fac4f2a5e)"><path fill="#069fdc" d="M 127.964844 186.3125 C 128.023438 186.070312 128.050781 185.816406 128.101562 185.570312 C 128.1875 185.148438 128.300781 184.734375 128.429688 184.324219 C 128.5625 183.90625 128.742188 183.503906 128.929688 183.109375 C 129.273438 182.394531 129.691406 181.722656 130.171875 181.09375 C 130.398438 180.796875 130.628906 180.507812 130.886719 180.230469 C 130.996094 180.113281 131.101562 179.996094 131.226562 179.894531 C 131.359375 180.042969 131.472656 180.203125 131.589844 180.359375 C 131.835938 180.6875 132.078125 181.019531 132.328125 181.347656 C 132.421875 181.472656 132.515625 181.601562 132.605469 181.726562 C 132.640625 181.773438 132.6875 181.851562 132.746094 181.871094 C 132.773438 181.859375 132.796875 181.828125 132.816406 181.808594 C 132.855469 181.773438 132.894531 181.738281 132.9375 181.710938 C 133.121094 181.574219 133.320312 181.484375 133.546875 181.46875 C 133.953125 181.441406 134.378906 181.695312 134.554688 182.0625 C 134.679688 182.320312 134.707031 182.621094 134.632812 182.894531 C 134.574219 183.097656 134.476562 183.289062 134.332031 183.441406 C 134.09375 183.683594 133.726562 183.777344 133.394531 183.714844 C 133.296875 183.695312 133.195312 183.648438 133.109375 183.59375 C 133.027344 183.542969 132.933594 183.464844 132.832031 183.460938 C 132.574219 183.449219 132.417969 183.75 132.390625 183.96875 C 132.382812 184.015625 132.375 184.066406 132.378906 184.113281 C 132.40625 184.449219 132.59375 184.785156 132.894531 184.949219 C 132.988281 185 133.089844 185.039062 133.195312 185.046875 C 133.339844 185.0625 133.488281 185.035156 133.632812 185.027344 C 133.8125 185.023438 133.988281 185.039062 134.15625 185.097656 C 134.460938 185.203125 134.730469 185.421875 134.882812 185.703125 C 135.164062 186.226562 135.039062 186.917969 134.609375 187.316406 C 134.023438 187.863281 133.011719 187.761719 132.582031 187.078125 C 132.476562 186.910156 132.40625 186.695312 132.398438 186.5 C 132.390625 186.371094 132.417969 186.238281 132.394531 186.113281 C 132.296875 185.605469 131.839844 185.1875 131.351562 185.058594 C 131.050781 184.980469 130.714844 184.988281 130.421875 185.097656 C 130.183594 185.183594 129.957031 185.328125 129.738281 185.457031 C 129.355469 185.675781 128.960938 185.871094 128.570312 186.082031 C 128.367188 186.191406 128.164062 186.328125 127.945312 186.410156 C 127.949219 186.378906 127.960938 186.34375 127.964844 186.3125 Z M 127.964844 186.3125 " fill-opacity="1" fill-rule="evenodd"/></g></g><g clip-path="url(#92926b6938)"><g clip-path="url(#c223ba5777)"><path fill="#1f4353" d="M 129.59375 191.8125 C 129.605469 191.746094 129.613281 191.6875 129.644531 191.628906 C 129.773438 191.398438 130.074219 191.34375 130.304688 191.449219 C 130.425781 191.503906 130.519531 191.605469 130.585938 191.722656 C 130.652344 191.847656 130.679688 191.992188 130.703125 192.132812 C 130.730469 192.289062 130.757812 192.445312 130.777344 192.601562 C 130.828125 192.96875 130.878906 193.332031 130.9375 193.695312 C 130.96875 193.878906 130.992188 194.0625 131.046875 194.242188 C 131.160156 194.632812 131.421875 194.972656 131.714844 195.246094 C 132.191406 195.675781 132.757812 195.980469 133.371094 196.167969 C 133.554688 196.222656 133.738281 196.265625 133.925781 196.296875 C 134.027344 196.3125 134.136719 196.332031 134.238281 196.328125 C 134.289062 196.328125 134.339844 196.324219 134.386719 196.3125 C 134.539062 196.269531 134.585938 196.109375 134.519531 195.96875 C 134.46875 195.867188 134.371094 195.789062 134.277344 195.726562 C 133.953125 195.519531 133.582031 195.394531 133.230469 195.246094 C 133.035156 195.164062 132.835938 195.082031 132.664062 194.953125 C 132.496094 194.824219 132.359375 194.648438 132.246094 194.46875 C 132.109375 194.253906 131.988281 194.027344 131.882812 193.792969 C 131.855469 193.738281 131.828125 193.6875 131.808594 193.628906 C 131.683594 193.3125 131.5625 192.851562 131.902344 192.621094 C 131.957031 192.582031 132.011719 192.550781 132.074219 192.527344 C 132.289062 192.453125 132.539062 192.492188 132.726562 192.621094 C 132.816406 192.683594 132.894531 192.769531 132.964844 192.851562 C 133.242188 193.175781 133.441406 193.578125 133.753906 193.871094 C 133.875 193.984375 134.015625 194.066406 134.164062 194.140625 C 134.53125 194.328125 134.9375 194.375 135.335938 194.457031 C 135.675781 194.527344 136.023438 194.59375 136.355469 194.703125 C 136.605469 194.785156 136.847656 194.898438 137.074219 195.027344 C 137.289062 195.148438 137.496094 195.292969 137.675781 195.460938 C 137.863281 195.628906 138.027344 195.820312 138.167969 196.03125 C 138.738281 196.882812 138.765625 197.933594 138.765625 198.917969 C 138.765625 199.449219 138.765625 199.976562 138.765625 200.503906 C 138.765625 200.816406 138.757812 201.132812 138.769531 201.445312 C 137.902344 201.457031 137.035156 201.414062 136.167969 201.378906 C 135.910156 201.367188 135.652344 201.363281 135.394531 201.347656 C 134.398438 201.289062 133.402344 201.21875 132.40625 201.144531 C 131.914062 201.105469 131.410156 201.066406 130.925781 200.957031 C 130.808594 200.933594 130.691406 200.910156 130.585938 200.859375 C 130.53125 200.835938 130.480469 200.792969 130.480469 200.730469 C 130.492188 200.695312 130.523438 200.675781 130.554688 200.660156 C 130.628906 200.617188 130.722656 200.601562 130.804688 200.582031 C 131.136719 200.507812 131.476562 200.472656 131.816406 200.433594 C 132.304688 200.375 132.796875 200.34375 133.285156 200.316406 C 133.378906 200.308594 133.472656 200.3125 133.5625 200.304688 C 134.433594 200.246094 135.300781 200.207031 136.171875 200.179688 C 136.113281 199.851562 136.035156 199.507812 135.816406 199.242188 C 135.679688 199.074219 135.484375 198.953125 135.296875 198.847656 C 135.042969 198.703125 134.789062 198.574219 134.527344 198.453125 C 134.199219 198.300781 133.882812 198.128906 133.566406 197.953125 C 133.304688 197.8125 133.042969 197.664062 132.792969 197.5 C 131.960938 196.953125 131.171875 196.292969 130.542969 195.515625 C 130.296875 195.214844 130.042969 194.90625 129.890625 194.542969 C 129.828125 194.394531 129.804688 194.242188 129.78125 194.082031 C 129.75 193.84375 129.730469 193.609375 129.710938 193.371094 C 129.675781 192.992188 129.640625 192.613281 129.621094 192.230469 C 129.613281 192.09375 129.589844 191.953125 129.59375 191.8125 Z M 129.59375 191.8125 " fill-opacity="1" fill-rule="evenodd"/></g></g><g clip-path="url(#9a8199f4af)"><g clip-path="url(#2f6a599797)"><path fill="#07a7e5" d="M 131.816406 179.273438 C 132.09375 179.046875 132.371094 178.820312 132.660156 178.609375 C 132.816406 178.492188 132.980469 178.394531 133.140625 178.285156 C 133.886719 177.785156 134.691406 177.371094 135.527344 177.050781 C 135.839844 176.929688 136.15625 176.828125 136.476562 176.722656 C 136.550781 176.699219 136.625 176.675781 136.699219 176.648438 C 136.714844 176.640625 136.757812 176.613281 136.769531 176.625 C 136.957031 177.078125 137.164062 177.523438 137.367188 177.96875 C 137.433594 178.113281 137.496094 178.261719 137.5625 178.40625 C 137.601562 178.484375 137.65625 178.582031 137.671875 178.667969 C 137.460938 178.730469 137.257812 178.820312 137.082031 178.953125 C 136.59375 179.328125 136.328125 179.980469 136.5 180.585938 C 136.550781 180.765625 136.640625 180.945312 136.78125 181.078125 C 136.980469 181.269531 137.261719 181.277344 137.515625 181.347656 C 137.75 181.410156 137.992188 181.566406 138.140625 181.765625 C 138.210938 181.859375 138.265625 181.960938 138.308594 182.074219 C 138.371094 182.230469 138.410156 182.414062 138.40625 182.585938 C 138.394531 183.117188 138.035156 183.609375 137.546875 183.808594 C 137.222656 183.941406 136.847656 183.953125 136.515625 183.832031 C 136.070312 183.667969 135.710938 183.222656 135.660156 182.742188 C 135.644531 182.582031 135.652344 182.417969 135.695312 182.261719 C 135.726562 182.140625 135.789062 182.023438 135.796875 181.898438 C 135.808594 181.714844 135.738281 181.542969 135.644531 181.386719 C 135.25 180.722656 134.398438 180.449219 133.667969 180.597656 C 133.503906 180.632812 133.335938 180.699219 133.183594 180.769531 C 133.136719 180.792969 133.089844 180.816406 133.042969 180.839844 C 133.019531 180.855469 132.996094 180.875 132.972656 180.882812 C 132.914062 180.777344 132.828125 180.679688 132.757812 180.582031 C 132.550781 180.292969 132.332031 180.011719 132.125 179.722656 C 132.054688 179.621094 131.980469 179.515625 131.910156 179.414062 C 131.878906 179.375 131.828125 179.324219 131.816406 179.273438 Z M 131.816406 179.273438 " fill-opacity="1" fill-rule="evenodd"/></g></g><g clip-path="url(#bcedcb0688)"><g clip-path="url(#6876c9cf7c)"><path fill="#214a5c" d="M 138.304688 188.109375 C 138.328125 188.109375 138.335938 188.136719 138.347656 188.160156 C 138.367188 188.207031 138.378906 188.257812 138.398438 188.304688 C 138.484375 188.515625 138.609375 188.714844 138.730469 188.90625 C 138.945312 189.234375 139.199219 189.539062 139.496094 189.792969 C 139.640625 189.917969 139.796875 190.023438 139.957031 190.128906 C 140.308594 190.367188 140.703125 190.523438 141.097656 190.671875 C 141.230469 190.722656 141.367188 190.773438 141.488281 190.847656 C 141.535156 190.871094 141.582031 190.898438 141.621094 190.933594 C 141.636719 190.941406 141.683594 190.964844 141.648438 190.972656 C 141.558594 190.953125 141.476562 190.929688 141.386719 190.925781 C 140.804688 190.910156 140.164062 191.261719 140.027344 191.859375 C 140 191.980469 139.992188 192.101562 140.019531 192.222656 C 140.039062 192.324219 140.082031 192.425781 140.15625 192.496094 C 140.234375 192.570312 140.339844 192.617188 140.421875 192.683594 C 140.542969 192.789062 140.636719 192.917969 140.710938 193.058594 C 140.765625 193.164062 140.804688 193.28125 140.828125 193.398438 C 140.914062 193.90625 140.707031 194.433594 140.292969 194.738281 C 140.125 194.859375 139.933594 194.941406 139.730469 194.980469 C 139.441406 195.039062 139.121094 195.007812 138.847656 194.882812 C 138.394531 194.671875 138.050781 194.210938 138.03125 193.699219 C 138.027344 193.523438 138.054688 193.328125 138.117188 193.160156 C 138.1875 192.96875 138.300781 192.800781 138.453125 192.664062 C 138.515625 192.605469 138.597656 192.570312 138.664062 192.515625 C 138.769531 192.429688 138.824219 192.308594 138.84375 192.175781 C 138.902344 191.761719 138.726562 191.378906 138.410156 191.117188 C 138.085938 190.847656 137.664062 190.710938 137.25 190.824219 C 137.144531 190.851562 137.035156 190.90625 136.957031 190.992188 C 136.855469 191.105469 136.804688 191.253906 136.71875 191.382812 C 136.601562 191.558594 136.429688 191.710938 136.238281 191.800781 C 136.089844 191.871094 135.929688 191.910156 135.765625 191.921875 C 135.480469 191.941406 135.1875 191.894531 134.9375 191.746094 C 134.378906 191.410156 134.128906 190.707031 134.3125 190.089844 C 134.394531 189.820312 134.535156 189.570312 134.75 189.386719 C 135.125 189.070312 135.695312 188.988281 136.148438 189.164062 C 136.296875 189.222656 136.4375 189.316406 136.558594 189.421875 C 136.648438 189.496094 136.746094 189.609375 136.863281 189.628906 C 137.351562 189.707031 137.867188 189.363281 138.101562 188.945312 C 138.246094 188.6875 138.292969 188.402344 138.304688 188.109375 Z M 138.304688 188.109375 " fill-opacity="1" fill-rule="evenodd"/></g></g><g clip-path="url(#64ba5dc1f6)"><g clip-path="url(#d0dd9e798b)"><path fill="#589d1e" d="M 139.101562 186.515625 C 139.089844 186.566406 139.125 186.640625 139.136719 186.691406 C 139.175781 186.847656 139.214844 187 139.261719 187.152344 C 139.308594 187.296875 139.355469 187.445312 139.417969 187.585938 C 139.59375 187.980469 139.84375 188.324219 140.125 188.648438 C 140.210938 188.746094 140.296875 188.847656 140.386719 188.941406 C 140.425781 188.984375 140.460938 189.042969 140.515625 189.0625 C 140.496094 189.042969 140.527344 189.09375 140.53125 189.101562 C 140.554688 189.132812 140.578125 189.164062 140.605469 189.191406 C 140.683594 189.269531 140.773438 189.339844 140.867188 189.402344 C 141.148438 189.59375 141.480469 189.703125 141.820312 189.675781 C 141.875 189.671875 141.933594 189.667969 141.984375 189.648438 C 142.113281 189.597656 142.210938 189.484375 142.316406 189.398438 C 142.4375 189.296875 142.574219 189.210938 142.722656 189.15625 C 142.847656 189.109375 142.984375 189.082031 143.121094 189.074219 C 143.300781 189.0625 143.484375 189.078125 143.660156 189.136719 C 144.144531 189.300781 144.503906 189.746094 144.601562 190.246094 C 144.636719 190.417969 144.625 190.609375 144.585938 190.78125 C 144.511719 191.117188 144.351562 191.429688 144.078125 191.648438 C 143.652344 191.988281 143 192.027344 142.527344 191.765625 C 142.261719 191.621094 142.125 191.347656 141.90625 191.144531 C 141.851562 191.089844 141.785156 191.046875 141.71875 191.007812 C 141.703125 191 141.667969 190.964844 141.648438 190.972656 C 141.683594 190.964844 141.636719 190.941406 141.621094 190.933594 C 141.582031 190.898438 141.535156 190.871094 141.488281 190.847656 C 141.367188 190.773438 141.230469 190.722656 141.097656 190.671875 C 140.703125 190.523438 140.308594 190.367188 139.957031 190.128906 C 139.796875 190.023438 139.640625 189.917969 139.496094 189.792969 C 139.199219 189.539062 138.945312 189.234375 138.730469 188.90625 C 138.609375 188.714844 138.484375 188.515625 138.398438 188.304688 C 138.378906 188.257812 138.367188 188.207031 138.347656 188.160156 C 138.335938 188.136719 138.328125 188.109375 138.304688 188.109375 C 138.3125 188.023438 138.273438 187.917969 138.246094 187.835938 C 138.222656 187.765625 138.1875 187.695312 138.140625 187.628906 C 138.105469 187.578125 138.0625 187.535156 138.015625 187.496094 C 137.886719 187.390625 137.730469 187.355469 137.566406 187.375 C 137.484375 187.386719 137.40625 187.414062 137.324219 187.425781 C 137.195312 187.445312 137.066406 187.445312 136.9375 187.425781 C 136.394531 187.328125 135.992188 186.890625 135.863281 186.367188 C 135.757812 185.9375 135.871094 185.433594 136.152344 185.097656 C 136.296875 184.929688 136.492188 184.796875 136.695312 184.714844 C 136.933594 184.613281 137.183594 184.601562 137.4375 184.625 C 137.660156 184.644531 137.878906 184.71875 138.0625 184.84375 C 138.292969 185.003906 138.492188 185.246094 138.566406 185.519531 C 138.597656 185.625 138.605469 185.734375 138.625 185.839844 C 138.671875 186.050781 138.753906 186.253906 138.921875 186.398438 C 138.96875 186.4375 139.039062 186.503906 139.101562 186.515625 Z M 139.101562 186.515625 " fill-opacity="1" fill-rule="evenodd"/></g></g><g clip-path="url(#2345f3ec20)"><g clip-path="url(#3a7d54a370)"><path fill="#59a527" d="M 139.488281 176.28125 C 139.480469 176.335938 139.480469 176.398438 139.476562 176.453125 C 139.46875 176.527344 139.445312 176.617188 139.472656 176.6875 C 139.449219 176.6875 139.453125 176.710938 139.449219 176.730469 C 139.441406 176.78125 139.433594 176.835938 139.425781 176.886719 C 139.398438 177.105469 139.359375 177.324219 139.335938 177.542969 C 139.292969 177.996094 139.234375 178.527344 139.460938 178.941406 C 139.5 179.015625 139.546875 179.078125 139.613281 179.128906 C 139.707031 179.203125 139.824219 179.246094 139.914062 179.332031 C 140.136719 179.542969 140.195312 179.917969 140.109375 180.203125 C 140.039062 180.441406 139.882812 180.667969 139.679688 180.808594 C 139.414062 180.992188 139.03125 181.050781 138.722656 180.972656 C 138.507812 180.917969 138.316406 180.796875 138.164062 180.640625 C 138.066406 180.539062 137.984375 180.425781 137.933594 180.292969 C 137.847656 180.0625 137.871094 179.785156 138 179.574219 C 138.039062 179.507812 138.085938 179.441406 138.152344 179.398438 C 138.246094 179.34375 138.359375 179.332031 138.453125 179.289062 C 138.539062 179.25 138.617188 179.179688 138.664062 179.097656 C 138.683594 179.0625 138.695312 179.023438 138.695312 178.984375 C 138.703125 178.832031 138.628906 178.707031 138.566406 178.574219 C 138.503906 178.4375 138.449219 178.296875 138.386719 178.164062 C 138.265625 177.898438 138.15625 177.625 138.035156 177.363281 C 137.890625 177.054688 137.734375 176.753906 137.605469 176.441406 C 137.722656 176.425781 137.835938 176.398438 137.949219 176.382812 C 138.234375 176.347656 138.519531 176.320312 138.808594 176.296875 C 138.960938 176.285156 139.113281 176.285156 139.265625 176.28125 C 139.339844 176.28125 139.417969 176.292969 139.488281 176.28125 Z M 139.488281 176.28125 " fill-opacity="1" fill-rule="evenodd"/></g></g><g clip-path="url(#1221380093)"><g clip-path="url(#6880ea1707)"><path fill="#0385c1" d="M 139.101562 186.515625 C 139.140625 186.515625 139.179688 186.539062 139.222656 186.542969 C 139.339844 186.5625 139.484375 186.558594 139.597656 186.511719 C 139.839844 186.414062 139.988281 186.179688 140.046875 185.929688 C 140.078125 185.785156 140.082031 185.636719 140.125 185.492188 C 140.222656 185.1875 140.429688 184.945312 140.707031 184.792969 C 141.3125 184.453125 142.128906 184.617188 142.558594 185.164062 C 142.710938 185.359375 142.804688 185.597656 142.839844 185.84375 C 142.871094 186.050781 142.847656 186.257812 142.789062 186.457031 C 142.636719 186.984375 142.164062 187.398438 141.613281 187.425781 C 141.328125 187.441406 141.050781 187.3125 140.777344 187.425781 C 140.613281 187.492188 140.496094 187.640625 140.417969 187.796875 C 140.226562 188.183594 140.289062 188.703125 140.515625 189.0625 C 140.460938 189.042969 140.425781 188.984375 140.386719 188.941406 C 140.296875 188.847656 140.210938 188.746094 140.125 188.648438 C 139.84375 188.324219 139.59375 187.980469 139.417969 187.585938 C 139.355469 187.445312 139.308594 187.296875 139.261719 187.152344 C 139.214844 187 139.175781 186.847656 139.136719 186.691406 C 139.125 186.640625 139.089844 186.566406 139.101562 186.515625 Z M 139.101562 186.515625 " fill-opacity="1" fill-rule="evenodd"/></g></g><g clip-path="url(#b8dae20d82)"><g clip-path="url(#ae45ee8e53)"><path fill="#81bf23" d="M 139.488281 176.28125 C 139.609375 176.300781 139.746094 176.28125 139.871094 176.28125 C 140.085938 176.285156 140.300781 176.300781 140.515625 176.324219 C 140.96875 176.367188 141.410156 176.460938 141.851562 176.5625 C 141.945312 176.585938 142.039062 176.621094 142.128906 176.640625 C 142.132812 176.710938 142.230469 176.75 142.285156 176.785156 C 142.429688 176.894531 142.5625 177.019531 142.679688 177.160156 C 142.839844 177.351562 143.003906 177.546875 143.117188 177.769531 C 143.304688 178.136719 143.425781 178.535156 143.667969 178.871094 C 143.101562 179.039062 142.519531 179.144531 141.925781 179.105469 C 141.730469 179.089844 141.535156 179.058594 141.347656 179.003906 C 141.296875 178.988281 141.246094 178.972656 141.195312 178.957031 C 141.171875 178.949219 141.148438 178.9375 141.128906 178.949219 C 141.074219 178.914062 141.015625 178.902344 140.957031 178.878906 C 140.855469 178.835938 140.75 178.789062 140.65625 178.730469 C 140.175781 178.433594 139.78125 177.996094 139.597656 177.457031 C 139.546875 177.304688 139.496094 177.144531 139.480469 176.984375 C 139.472656 176.886719 139.496094 176.785156 139.472656 176.6875 C 139.445312 176.617188 139.46875 176.527344 139.476562 176.453125 C 139.480469 176.398438 139.480469 176.335938 139.488281 176.28125 Z M 139.730469 176.734375 C 139.726562 176.730469 139.726562 176.730469 139.722656 176.730469 C 139.925781 176.8125 140.136719 176.886719 140.335938 176.976562 C 140.71875 177.152344 141.082031 177.359375 141.4375 177.582031 C 141.75 177.78125 142.070312 177.984375 142.277344 178.300781 C 142.25 178.128906 142.199219 177.964844 142.109375 177.808594 C 141.980469 177.585938 141.832031 177.390625 141.625 177.234375 C 141.21875 176.917969 140.71875 176.824219 140.222656 176.773438 C 140.058594 176.757812 139.890625 176.734375 139.730469 176.734375 Z M 139.730469 176.734375 " fill-opacity="1" fill-rule="evenodd"/></g></g><g clip-path="url(#459d959a86)"><g clip-path="url(#afe434dd53)"><path fill="#fffffe" d="M 139.730469 176.734375 C 139.890625 176.734375 140.058594 176.757812 140.222656 176.773438 C 140.71875 176.824219 141.21875 176.917969 141.625 177.234375 C 141.832031 177.390625 141.980469 177.585938 142.109375 177.808594 C 142.199219 177.964844 142.25 178.128906 142.277344 178.300781 C 142.070312 177.984375 141.75 177.78125 141.4375 177.582031 C 141.082031 177.359375 140.71875 177.152344 140.335938 176.976562 C 140.136719 176.886719 139.925781 176.8125 139.722656 176.730469 C 139.726562 176.730469 139.726562 176.730469 139.730469 176.734375 Z M 139.730469 176.734375 " fill-opacity="1" fill-rule="evenodd"/></g></g><g clip-path="url(#6f655a96cf)"><g clip-path="url(#6284f8ee6b)"><path fill="#449126" d="M 141.128906 178.949219 C 141.148438 178.9375 141.171875 178.949219 141.195312 178.957031 C 141.246094 178.972656 141.296875 178.988281 141.347656 179.003906 C 141.535156 179.058594 141.730469 179.089844 141.925781 179.105469 C 142.519531 179.144531 143.101562 179.039062 143.667969 178.871094 C 143.425781 178.535156 143.304688 178.136719 143.117188 177.769531 C 143.003906 177.546875 142.839844 177.351562 142.679688 177.160156 C 142.5625 177.019531 142.429688 176.894531 142.285156 176.785156 C 142.230469 176.75 142.132812 176.710938 142.128906 176.640625 C 142.214844 176.65625 142.296875 176.683594 142.378906 176.703125 C 142.703125 176.785156 143.019531 176.898438 143.332031 177.011719 C 144.417969 177.40625 145.414062 177.992188 146.34375 178.671875 C 146.5 178.785156 146.648438 178.902344 146.796875 179.027344 C 146.875 179.089844 146.945312 179.160156 147.027344 179.21875 C 146.996094 179.265625 146.949219 179.308594 146.914062 179.347656 C 146.84375 179.425781 146.769531 179.503906 146.699219 179.585938 C 146.46875 179.84375 146.234375 180.101562 146 180.359375 C 145.90625 180.460938 145.796875 180.558594 145.710938 180.667969 C 145.699219 180.671875 145.671875 180.644531 145.660156 180.636719 C 145.617188 180.605469 145.574219 180.578125 145.527344 180.550781 C 145.363281 180.460938 145.183594 180.382812 145.003906 180.332031 C 144.28125 180.121094 143.375 180.210938 142.859375 180.8125 C 142.667969 181.039062 142.515625 181.351562 142.527344 181.65625 C 142.53125 181.722656 142.566406 181.789062 142.59375 181.851562 C 142.644531 181.976562 142.710938 182.09375 142.742188 182.226562 C 142.765625 182.339844 142.789062 182.457031 142.785156 182.574219 C 142.773438 182.988281 142.554688 183.417969 142.207031 183.648438 C 141.78125 183.925781 141.199219 183.960938 140.746094 183.722656 C 140.585938 183.636719 140.449219 183.511719 140.332031 183.371094 C 140.25 183.273438 140.179688 183.160156 140.128906 183.042969 C 140.070312 182.894531 140.039062 182.738281 140.03125 182.582031 C 140.011719 182.152344 140.195312 181.703125 140.558594 181.457031 C 140.660156 181.386719 140.78125 181.320312 140.898438 181.28125 C 141.007812 181.242188 141.117188 181.222656 141.214844 181.167969 C 141.464844 181.03125 141.597656 180.753906 141.660156 180.488281 C 141.75 180.109375 141.636719 179.71875 141.445312 179.390625 C 141.378906 179.277344 141.300781 179.167969 141.21875 179.066406 C 141.199219 179.042969 141.125 178.980469 141.128906 178.949219 Z M 141.128906 178.949219 " fill-opacity="1" fill-rule="evenodd"/></g></g><g clip-path="url(#8d6904fc82)"><g clip-path="url(#b5a1880a33)"><path fill="#1e3e4f" d="M 140.171875 200.542969 C 140.195312 200.277344 140.179688 200 140.179688 199.734375 C 140.179688 199.511719 140.179688 199.289062 140.179688 199.066406 C 140.175781 198.253906 140.191406 197.4375 140.464844 196.664062 C 140.589844 196.316406 140.757812 195.988281 141.003906 195.707031 C 141.09375 195.609375 141.183594 195.511719 141.285156 195.429688 C 141.492188 195.253906 141.707031 195.089844 141.949219 194.96875 C 142.167969 194.859375 142.394531 194.761719 142.625 194.6875 C 142.9375 194.589844 143.265625 194.519531 143.585938 194.453125 C 144.003906 194.363281 144.425781 194.316406 144.8125 194.113281 C 145.320312 193.847656 145.601562 193.316406 145.949219 192.882812 C 146.027344 192.785156 146.113281 192.6875 146.214844 192.617188 C 146.40625 192.492188 146.660156 192.453125 146.875 192.53125 C 146.9375 192.554688 147 192.582031 147.050781 192.625 C 147.09375 192.65625 147.132812 192.695312 147.164062 192.738281 C 147.367188 193.03125 147.234375 193.386719 147.105469 193.679688 C 147.074219 193.746094 147.046875 193.816406 147.015625 193.878906 C 146.78125 194.355469 146.511719 194.863281 146.027344 195.121094 C 145.667969 195.3125 145.277344 195.441406 144.914062 195.625 C 144.753906 195.707031 144.554688 195.792969 144.445312 195.945312 C 144.425781 195.976562 144.410156 196.007812 144.398438 196.042969 C 144.363281 196.144531 144.414062 196.257812 144.511719 196.296875 C 144.644531 196.347656 144.796875 196.335938 144.9375 196.316406 C 145.214844 196.277344 145.492188 196.203125 145.757812 196.109375 C 146.300781 195.917969 146.816406 195.636719 147.238281 195.238281 C 147.519531 194.96875 147.777344 194.640625 147.890625 194.261719 C 147.960938 194.019531 147.996094 193.769531 148.039062 193.523438 C 148.085938 193.238281 148.140625 192.949219 148.175781 192.660156 C 148.195312 192.484375 148.226562 192.308594 148.253906 192.132812 C 148.277344 192.007812 148.289062 191.882812 148.332031 191.761719 C 148.367188 191.65625 148.429688 191.558594 148.523438 191.492188 C 148.710938 191.359375 149.003906 191.351562 149.1875 191.496094 C 149.28125 191.574219 149.347656 191.699219 149.359375 191.820312 C 149.367188 191.925781 149.347656 192.035156 149.339844 192.140625 C 149.3125 192.644531 149.269531 193.148438 149.222656 193.652344 C 149.191406 193.933594 149.1875 194.21875 149.089844 194.484375 C 148.980469 194.777344 148.796875 195.03125 148.609375 195.273438 C 148.429688 195.5 148.246094 195.71875 148.050781 195.929688 C 147.773438 196.230469 147.476562 196.5 147.164062 196.761719 C 146.882812 196.996094 146.597656 197.226562 146.292969 197.429688 C 145.828125 197.734375 145.339844 197.996094 144.839844 198.242188 C 144.640625 198.34375 144.441406 198.457031 144.234375 198.542969 C 143.988281 198.644531 143.746094 198.765625 143.519531 198.90625 C 143.375 198.996094 143.230469 199.09375 143.117188 199.226562 C 143.003906 199.359375 142.925781 199.515625 142.875 199.683594 C 142.835938 199.800781 142.8125 199.925781 142.792969 200.046875 C 142.785156 200.085938 142.757812 200.160156 142.769531 200.195312 C 143.078125 200.179688 143.390625 200.199219 143.703125 200.214844 C 143.976562 200.226562 144.246094 200.234375 144.519531 200.25 C 145.394531 200.296875 146.265625 200.355469 147.136719 200.441406 C 147.476562 200.476562 147.820312 200.519531 148.15625 200.589844 C 148.226562 200.605469 148.300781 200.628906 148.367188 200.660156 C 148.414062 200.683594 148.453125 200.707031 148.457031 200.761719 C 148.449219 200.800781 148.394531 200.835938 148.363281 200.851562 C 148.316406 200.878906 148.265625 200.886719 148.214844 200.902344 C 148.136719 200.921875 148.0625 200.941406 147.984375 200.953125 C 147.492188 201.019531 147 201.105469 146.5 201.140625 C 146.097656 201.167969 145.695312 201.214844 145.296875 201.242188 C 144.910156 201.269531 144.523438 201.296875 144.136719 201.316406 C 143.992188 201.320312 143.84375 201.320312 143.699219 201.332031 C 143.496094 201.34375 143.292969 201.363281 143.089844 201.371094 C 142.550781 201.398438 142.007812 201.417969 141.46875 201.433594 C 141.035156 201.441406 140.601562 201.441406 140.171875 201.449219 C 140.164062 201.148438 140.15625 200.84375 140.171875 200.542969 Z M 140.171875 200.542969 " fill-opacity="1" fill-rule="evenodd"/></g></g><g clip-path="url(#b3eb08191f)"><g clip-path="url(#cbe6eac282)"><path fill="#e27406" d="M 143.632812 186.160156 C 143.652344 186.039062 143.671875 185.921875 143.714844 185.808594 C 143.855469 185.449219 144.148438 185.171875 144.515625 185.0625 C 144.664062 185.015625 144.8125 185 144.96875 185 C 145.058594 185 145.148438 185.011719 145.238281 185 C 145.605469 184.953125 145.894531 184.640625 145.976562 184.289062 C 146.027344 184.0625 146.015625 183.808594 145.875 183.613281 C 145.808594 183.523438 145.730469 183.449219 145.613281 183.4375 C 145.511719 183.425781 145.414062 183.503906 145.328125 183.550781 C 145.222656 183.605469 145.101562 183.636719 144.984375 183.65625 C 144.757812 183.6875 144.503906 183.652344 144.300781 183.542969 C 143.96875 183.367188 143.734375 183.007812 143.683594 182.636719 C 143.621094 182.140625 143.828125 181.640625 144.261719 181.378906 C 144.390625 181.300781 144.535156 181.257812 144.679688 181.226562 C 144.804688 181.199219 144.9375 181.207031 145.0625 181.222656 C 145.179688 181.234375 145.3125 181.257812 145.421875 181.308594 C 145.578125 181.378906 145.714844 181.484375 145.824219 181.617188 C 145.859375 181.660156 145.882812 181.707031 145.914062 181.753906 C 145.945312 181.722656 145.96875 181.683594 145.996094 181.652344 C 146.085938 181.554688 146.175781 181.453125 146.261719 181.355469 C 146.566406 181.015625 146.863281 180.667969 147.160156 180.324219 C 147.269531 180.199219 147.378906 180.074219 147.484375 179.949219 C 147.519531 179.910156 147.570312 179.828125 147.621094 179.816406 C 147.679688 179.847656 147.722656 179.90625 147.769531 179.953125 C 147.851562 180.039062 147.933594 180.128906 148.019531 180.21875 C 148.332031 180.550781 148.636719 180.898438 148.898438 181.273438 C 149.085938 181.542969 149.285156 181.808594 149.453125 182.085938 C 150.015625 183.019531 150.457031 184.03125 150.722656 185.089844 C 150.792969 185.371094 150.855469 185.652344 150.910156 185.9375 C 150.9375 186.089844 150.980469 186.25 150.980469 186.410156 C 150.914062 186.394531 150.84375 186.332031 150.78125 186.304688 C 150.632812 186.226562 150.484375 186.152344 150.332031 186.078125 C 149.898438 185.867188 149.464844 185.648438 149.03125 185.425781 C 148.777344 185.296875 148.527344 185.144531 148.253906 185.050781 C 147.792969 184.890625 147.242188 184.914062 146.824219 185.179688 C 146.546875 185.355469 146.289062 185.65625 146.25 186 C 146.230469 186.207031 146.285156 186.414062 146.246094 186.621094 C 146.152344 187.089844 145.824219 187.488281 145.355469 187.617188 C 144.714844 187.792969 144 187.492188 143.734375 186.867188 C 143.640625 186.648438 143.609375 186.398438 143.632812 186.160156 Z M 143.632812 186.160156 " fill-opacity="1" fill-rule="evenodd"/></g></g><g clip-path="url(#afc88d7492)"><g clip-path="url(#2f9361760e)"><path fill="#036fa2" d="M 145.496094 189.964844 C 145.519531 189.757812 145.5625 189.5625 145.660156 189.378906 C 145.777344 189.148438 145.964844 188.945312 146.199219 188.828125 C 146.488281 188.683594 146.886719 188.707031 147.144531 188.910156 C 147.25 188.992188 147.328125 189.105469 147.390625 189.222656 C 147.441406 189.324219 147.484375 189.433594 147.585938 189.496094 C 147.636719 189.527344 147.695312 189.546875 147.75 189.566406 C 148 189.65625 148.292969 189.636719 148.515625 189.488281 C 148.621094 189.414062 148.714844 189.304688 148.78125 189.191406 C 148.9375 188.933594 148.953125 188.609375 148.84375 188.332031 C 148.792969 188.203125 148.679688 188.058594 148.535156 188.03125 C 148.40625 188.007812 148.28125 188.078125 148.160156 188.105469 C 147.933594 188.160156 147.695312 188.132812 147.503906 187.988281 C 147.421875 187.925781 147.355469 187.824219 147.3125 187.730469 C 147.28125 187.667969 147.257812 187.601562 147.246094 187.53125 C 147.15625 187.035156 147.472656 186.621094 147.738281 186.242188 C 147.792969 186.167969 147.847656 186.097656 147.902344 186.023438 C 147.933594 185.976562 147.964844 185.925781 148.007812 185.882812 C 148.695312 186.207031 149.367188 186.5625 150.046875 186.902344 C 150.390625 187.074219 150.738281 187.234375 151.082031 187.410156 C 151.097656 187.601562 151.082031 187.796875 151.085938 187.988281 C 151.089844 188.351562 151.09375 188.71875 151.066406 189.082031 C 151.007812 189.859375 150.863281 190.628906 150.667969 191.382812 C 150.578125 191.734375 150.46875 192.082031 150.332031 192.417969 C 150.289062 192.519531 150.253906 192.617188 150.207031 192.714844 C 150.191406 192.753906 150.175781 192.800781 150.152344 192.835938 C 150.136719 192.84375 150.121094 192.84375 150.105469 192.84375 C 150.097656 192.738281 150.105469 192.628906 150.105469 192.523438 C 150.105469 192.332031 150.105469 192.140625 150.105469 191.949219 C 150.109375 191.757812 150.117188 191.574219 150.054688 191.386719 C 149.878906 190.882812 149.355469 190.5625 148.835938 190.554688 C 148.554688 190.554688 148.253906 190.664062 148.035156 190.835938 C 147.820312 190.996094 147.640625 191.242188 147.539062 191.492188 C 147.5 191.589844 147.472656 191.691406 147.441406 191.789062 C 147.429688 191.820312 147.421875 191.875 147.402344 191.898438 C 147.320312 191.867188 147.246094 191.824219 147.167969 191.789062 C 146.957031 191.695312 146.75 191.597656 146.542969 191.496094 C 146.292969 191.378906 146.042969 191.28125 145.851562 191.074219 C 145.585938 190.785156 145.476562 190.347656 145.496094 189.964844 Z M 145.496094 189.964844 " fill-opacity="1" fill-rule="evenodd"/></g></g><g clip-path="url(#086b84d459)"><g clip-path="url(#836911fe4f)"><g clip-path="url(#04735f0c6f)"><g clip-path="url(#42a9ab6fcd)"><path fill="#1e3e4f" d="M 121.152344 192.976562 C 121.097656 192.816406 120.96875 192.765625 120.828125 192.808594 C 120.753906 192.835938 120.695312 192.875 120.582031 192.984375 C 120.425781 193.140625 120.371094 193.179688 120.203125 193.253906 C 120.175781 193.125 120.167969 193.011719 120.179688 192.910156 C 120.210938 192.648438 120.214844 192.574219 120.183594 192.480469 C 120.144531 192.347656 120.019531 192.273438 119.863281 192.324219 C 119.707031 192.375 119.652344 192.507812 119.695312 192.640625 C 119.71875 192.714844 119.777344 192.800781 119.867188 192.894531 L 119.949219 192.984375 C 120.027344 193.070312 120.089844 193.167969 120.136719 193.273438 C 119.980469 193.308594 119.835938 193.308594 119.695312 193.285156 C 119.558594 193.261719 119.445312 193.261719 119.367188 193.289062 C 119.234375 193.332031 119.15625 193.441406 119.210938 193.613281 C 119.265625 193.785156 119.394531 193.832031 119.527344 193.785156 C 119.609375 193.757812 119.65625 193.722656 119.871094 193.523438 C 119.945312 193.457031 120.039062 193.394531 120.160156 193.339844 C 120.1875 193.46875 120.191406 193.605469 120.164062 193.761719 C 120.144531 193.914062 120.144531 194.035156 120.171875 194.117188 C 120.214844 194.246094 120.335938 194.324219 120.496094 194.273438 C 120.652344 194.222656 120.707031 194.089844 120.664062 193.957031 C 120.632812 193.863281 120.597656 193.816406 120.40625 193.609375 C 120.339844 193.535156 120.277344 193.4375 120.222656 193.320312 C 120.378906 193.289062 120.527344 193.285156 120.667969 193.308594 C 120.804688 193.332031 120.914062 193.332031 120.992188 193.308594 C 121.128906 193.261719 121.203125 193.144531 121.152344 192.976562 Z M 121.152344 192.976562 " fill-opacity="1" fill-rule="nonzero"/></g></g></g></g><g clip-path="url(#563b0f6ca2)"><g clip-path="url(#1ac229a729)"><g clip-path="url(#1c850586b1)"><g clip-path="url(#01d3bf4f26)"><path fill="#1e3e4f" d="M 157.800781 192.976562 C 157.855469 192.8125 157.980469 192.761719 158.121094 192.808594 C 158.195312 192.832031 158.257812 192.871094 158.371094 192.984375 C 158.527344 193.140625 158.582031 193.175781 158.75 193.25 C 158.777344 193.125 158.78125 193.007812 158.769531 192.90625 C 158.742188 192.648438 158.734375 192.574219 158.765625 192.476562 C 158.808594 192.347656 158.929688 192.269531 159.089844 192.320312 C 159.246094 192.371094 159.300781 192.503906 159.257812 192.636719 C 159.234375 192.714844 159.175781 192.796875 159.085938 192.894531 L 159.003906 192.984375 C 158.925781 193.066406 158.863281 193.164062 158.8125 193.273438 C 158.96875 193.304688 159.117188 193.308594 159.257812 193.285156 C 159.394531 193.257812 159.503906 193.257812 159.585938 193.285156 C 159.714844 193.328125 159.796875 193.4375 159.742188 193.609375 C 159.683594 193.78125 159.558594 193.828125 159.425781 193.785156 C 159.339844 193.757812 159.296875 193.71875 159.082031 193.523438 C 159.007812 193.453125 158.910156 193.390625 158.792969 193.335938 C 158.765625 193.464844 158.761719 193.605469 158.785156 193.757812 C 158.808594 193.910156 158.808594 194.03125 158.78125 194.113281 C 158.738281 194.246094 158.617188 194.320312 158.457031 194.269531 C 158.300781 194.21875 158.246094 194.085938 158.289062 193.953125 C 158.316406 193.863281 158.355469 193.8125 158.542969 193.609375 C 158.613281 193.53125 158.675781 193.4375 158.726562 193.316406 C 158.570312 193.285156 158.425781 193.28125 158.285156 193.304688 C 158.148438 193.328125 158.039062 193.332031 157.960938 193.304688 C 157.824219 193.261719 157.746094 193.140625 157.800781 192.976562 Z M 157.800781 192.976562 " fill-opacity="1" fill-rule="nonzero"/></g></g></g></g><g fill="#ffffff" fill-opacity="1"><g transform="translate(171.762444, 200.624987)"><g><path d="M 8.421875 0 L 3.34375 0 L 3.34375 -25.703125 L 8.421875 -25.703125 Z M 8.421875 0 "/></g></g><g transform="translate(183.539787, 200.624987)"><g><path d="M 13.265625 -25.703125 C 15.109375 -25.703125 16.679688 -25.363281 17.984375 -24.6875 C 19.296875 -24.007812 20.285156 -23.066406 20.953125 -21.859375 C 21.617188 -20.648438 21.953125 -19.238281 21.953125 -17.625 C 21.953125 -16.019531 21.617188 -14.613281 20.953125 -13.40625 C 20.285156 -12.207031 19.296875 -11.269531 17.984375 -10.59375 C 16.679688 -9.914062 15.109375 -9.578125 13.265625 -9.578125 L 8.421875 -9.578125 L 8.421875 0 L 3.34375 0 L 3.34375 -25.703125 Z M 12.609375 -13.609375 C 15.429688 -13.609375 16.84375 -14.945312 16.84375 -17.625 C 16.84375 -20.320312 15.429688 -21.671875 12.609375 -21.671875 L 8.421875 -21.671875 L 8.421875 -13.609375 Z M 12.609375 -13.609375 "/></g></g><g transform="translate(207.024161, 200.624987)"><g><path d="M 24.65625 0 L 19.3125 0 L 17.390625 -5.921875 L 7.546875 -5.921875 L 5.609375 0 L 0.390625 0 L 9.265625 -25.703125 L 15.78125 -25.703125 Z M 12.21875 -20.34375 L 8.90625 -10.203125 L 15.984375 -10.203125 L 12.65625 -20.34375 Z M 12.21875 -20.34375 "/></g></g><g transform="translate(232.072987, 200.624987)"><g><path d="M 20.609375 -25.703125 L 20.609375 -21.421875 L 13.1875 -21.421875 L 13.1875 0 L 8.125 0 L 8.125 -21.421875 L 0.703125 -21.421875 L 0.703125 -25.703125 Z M 20.609375 -25.703125 "/></g></g></g></svg>