<svg xmlns="http://www.w3.org/2000/svg" xmlns:xlink="http://www.w3.org/1999/xlink" width="500" zoomAndPan="magnify" viewBox="0 0 375 374.999991" height="500" preserveAspectRatio="xMidYMid meet" version="1.0"><defs><clipPath id="e1894fbac7"><path d="M 26 21.441406 L 40.375 21.441406 L 40.375 42.308594 L 26 42.308594 Z M 26 21.441406 " clip-rule="nonzero"/></clipPath><clipPath id="e042de1060"><path d="M 15.585938 24 L 24 24 L 24 42.308594 L 15.585938 42.308594 Z M 15.585938 24 " clip-rule="nonzero"/></clipPath><clipPath id="fc0af9bb89"><path d="M 5 32 L 8 32 L 8 35 L 5 35 Z M 5 32 " clip-rule="nonzero"/></clipPath><clipPath id="5ee164f595"><path d="M 4.078125 37.855469 L 3.230469 31.367188 L 9.722656 30.519531 L 10.570312 37.007812 Z M 4.078125 37.855469 " clip-rule="nonzero"/></clipPath><clipPath id="437b08b193"><path d="M 4.785156 35.679688 L 4.363281 32.46875 L 7.578125 32.046875 L 7.996094 35.261719 Z M 4.785156 35.679688 " clip-rule="nonzero"/></clipPath><clipPath id="ffa0a2a882"><path d="M 48 32 L 51 32 L 51 35 L 48 35 Z M 48 32 " clip-rule="nonzero"/></clipPath><clipPath id="66aa93f985"><path d="M 51.742188 38.898438 L 52.589844 32.40625 L 46.097656 31.558594 L 45.25 38.050781 Z M 51.742188 38.898438 " clip-rule="nonzero"/></clipPath><clipPath id="28dd863efb"><path d="M 51.175781 35.679688 L 51.59375 32.464844 L 48.378906 32.046875 L 47.960938 35.261719 Z M 51.175781 35.679688 " clip-rule="nonzero"/></clipPath></defs><path fill="#212245" d="M 4.59375 26.648438 L 8.699219 27.613281 L 8.824219 27.082031 L 4.722656 26.113281 L 4.59375 26.648438 M 7.910156 24.136719 C 7.976562 24.050781 8.039062 23.953125 8.105469 23.851562 C 8.167969 23.746094 8.226562 23.628906 8.28125 23.492188 C 8.375 23.269531 8.425781 23.054688 8.4375 22.855469 C 8.445312 22.652344 8.421875 22.472656 8.359375 22.308594 C 8.300781 22.148438 8.210938 22.007812 8.09375 21.886719 C 7.972656 21.769531 7.835938 21.675781 7.671875 21.609375 C 7.515625 21.542969 7.355469 21.507812 7.191406 21.5 C 7.027344 21.492188 6.871094 21.519531 6.71875 21.582031 C 6.570312 21.640625 6.429688 21.738281 6.300781 21.871094 C 6.171875 22.007812 6.0625 22.179688 5.972656 22.394531 L 5.429688 23.695312 L 9.324219 25.316406 L 9.53125 24.8125 L 7.910156 24.136719 M 5.886719 23.292969 L 6.128906 22.707031 C 6.195312 22.550781 6.28125 22.425781 6.382812 22.332031 C 6.488281 22.234375 6.605469 22.167969 6.726562 22.128906 C 6.851562 22.089844 6.976562 22.074219 7.105469 22.082031 C 7.234375 22.089844 7.355469 22.117188 7.464844 22.164062 C 7.574219 22.207031 7.675781 22.269531 7.769531 22.351562 C 7.863281 22.429688 7.941406 22.53125 7.996094 22.644531 C 8.050781 22.757812 8.085938 22.886719 8.089844 23.027344 C 8.097656 23.171875 8.066406 23.324219 7.996094 23.492188 C 7.949219 23.605469 7.898438 23.710938 7.847656 23.804688 C 7.800781 23.894531 7.742188 23.972656 7.683594 24.039062 L 5.886719 23.292969 M 11.210938 19.203125 L 12.5625 19.410156 L 12.886719 18.925781 L 8.289062 18.214844 L 8.125 18.464844 L 10.636719 22.289062 L 10.792969 22.058594 L 10.054688 20.929688 L 11.210938 19.203125 M 10.914062 19.15625 L 9.894531 20.683594 L 8.6875 18.835938 L 8.699219 18.816406 L 10.914062 19.15625 M 14.296875 17.640625 L 11.566406 14.875 L 12.714844 13.742188 L 12.480469 13.507812 L 9.796875 16.160156 L 10.027344 16.394531 L 11.175781 15.261719 L 13.90625 18.023438 L 14.296875 17.640625 M 17.234375 13.976562 C 17.320312 14.128906 17.429688 14.246094 17.566406 14.335938 C 17.703125 14.425781 17.855469 14.484375 18.027344 14.507812 C 18.199219 14.53125 18.382812 14.527344 18.578125 14.488281 C 18.773438 14.449219 18.976562 14.382812 19.179688 14.28125 C 19.390625 14.175781 19.566406 14.058594 19.707031 13.925781 C 19.847656 13.789062 19.957031 13.648438 20.027344 13.496094 C 20.101562 13.34375 20.136719 13.183594 20.136719 13.019531 C 20.132812 12.855469 20.09375 12.691406 20.011719 12.527344 C 19.902344 12.304688 19.753906 12.152344 19.574219 12.0625 C 19.390625 11.976562 19.191406 11.929688 18.976562 11.917969 C 18.765625 11.902344 18.542969 11.914062 18.3125 11.945312 C 18.085938 11.980469 17.871094 12 17.667969 12.011719 C 17.464844 12.023438 17.285156 12.011719 17.125 11.972656 C 16.96875 11.933594 16.851562 11.835938 16.773438 11.683594 C 16.730469 11.597656 16.710938 11.507812 16.710938 11.414062 C 16.710938 11.316406 16.734375 11.226562 16.78125 11.132812 C 16.824219 11.039062 16.894531 10.949219 16.984375 10.863281 C 17.078125 10.773438 17.191406 10.695312 17.332031 10.625 C 17.566406 10.511719 17.789062 10.460938 18 10.476562 C 18.214844 10.496094 18.386719 10.605469 18.523438 10.800781 L 18.886719 10.621094 C 18.800781 10.496094 18.691406 10.402344 18.566406 10.332031 C 18.4375 10.265625 18.296875 10.222656 18.144531 10.207031 C 17.992188 10.1875 17.835938 10.199219 17.671875 10.230469 C 17.507812 10.265625 17.34375 10.324219 17.1875 10.402344 C 17.023438 10.484375 16.875 10.585938 16.746094 10.703125 C 16.621094 10.820312 16.519531 10.945312 16.449219 11.085938 C 16.375 11.226562 16.335938 11.375 16.332031 11.53125 C 16.328125 11.691406 16.367188 11.851562 16.449219 12.011719 C 16.554688 12.226562 16.691406 12.371094 16.863281 12.445312 C 17.035156 12.519531 17.226562 12.5625 17.433594 12.566406 C 17.636719 12.570312 17.851562 12.558594 18.074219 12.523438 C 18.292969 12.492188 18.503906 12.472656 18.707031 12.46875 C 18.910156 12.464844 19.09375 12.492188 19.253906 12.546875 C 19.417969 12.605469 19.546875 12.730469 19.640625 12.914062 C 19.753906 13.148438 19.753906 13.363281 19.636719 13.554688 C 19.519531 13.746094 19.320312 13.914062 19.035156 14.054688 C 18.808594 14.167969 18.613281 14.230469 18.449219 14.238281 C 18.28125 14.246094 18.140625 14.226562 18.027344 14.179688 C 17.914062 14.132812 17.824219 14.070312 17.753906 13.996094 C 17.6875 13.921875 17.636719 13.851562 17.601562 13.792969 L 17.234375 13.976562 M 20.828125 11.097656 C 20.878906 11.316406 20.972656 11.542969 21.113281 11.769531 C 21.253906 12 21.441406 12.199219 21.667969 12.367188 C 21.898438 12.539062 22.167969 12.660156 22.476562 12.734375 C 22.785156 12.808594 23.136719 12.804688 23.523438 12.714844 C 23.785156 12.652344 24.015625 12.566406 24.214844 12.453125 C 24.410156 12.339844 24.582031 12.207031 24.726562 12.058594 C 24.871094 11.910156 24.992188 11.75 25.082031 11.578125 C 25.175781 11.40625 25.242188 11.234375 25.289062 11.054688 C 25.332031 10.878906 25.355469 10.707031 25.359375 10.535156 C 25.363281 10.367188 25.347656 10.207031 25.316406 10.0625 C 25.265625 9.84375 25.167969 9.621094 25.019531 9.394531 C 24.871094 9.164062 24.679688 8.96875 24.441406 8.800781 C 24.207031 8.632812 23.929688 8.511719 23.609375 8.4375 C 23.289062 8.367188 22.933594 8.375 22.542969 8.464844 C 22.15625 8.554688 21.839844 8.699219 21.59375 8.902344 C 21.347656 9.101562 21.15625 9.328125 21.027344 9.578125 C 20.894531 9.828125 20.816406 10.089844 20.789062 10.359375 C 20.761719 10.628906 20.773438 10.875 20.828125 11.097656 M 21.402344 10.964844 C 21.339844 10.691406 21.324219 10.429688 21.355469 10.183594 C 21.386719 9.933594 21.457031 9.710938 21.5625 9.511719 C 21.671875 9.316406 21.816406 9.148438 21.996094 9.007812 C 22.171875 8.871094 22.378906 8.773438 22.613281 8.722656 C 22.84375 8.667969 23.074219 8.664062 23.300781 8.707031 C 23.527344 8.753906 23.738281 8.839844 23.929688 8.96875 C 24.121094 9.097656 24.289062 9.265625 24.429688 9.472656 C 24.574219 9.679688 24.675781 9.921875 24.742188 10.195312 C 24.804688 10.46875 24.816406 10.730469 24.777344 10.980469 C 24.742188 11.230469 24.664062 11.457031 24.546875 11.65625 C 24.433594 11.855469 24.28125 12.023438 24.097656 12.164062 C 23.914062 12.304688 23.707031 12.398438 23.476562 12.453125 C 23.238281 12.507812 23.011719 12.511719 22.792969 12.464844 C 22.570312 12.417969 22.367188 12.332031 22.183594 12.199219 C 22 12.070312 21.839844 11.898438 21.703125 11.691406 C 21.566406 11.480469 21.464844 11.238281 21.402344 10.964844 M 26.976562 12.125 L 26.996094 7.910156 L 27.542969 7.914062 L 27.527344 11.796875 L 29.699219 11.804688 L 29.699219 12.136719 L 26.976562 12.125 M 31.40625 8.101562 L 30.855469 10.632812 C 30.824219 10.792969 30.800781 10.972656 30.789062 11.175781 C 30.777344 11.375 30.8125 11.570312 30.894531 11.765625 C 30.976562 11.957031 31.121094 12.132812 31.328125 12.296875 C 31.535156 12.457031 31.839844 12.582031 32.238281 12.667969 C 32.492188 12.722656 32.722656 12.730469 32.933594 12.695312 C 33.144531 12.660156 33.332031 12.585938 33.492188 12.476562 C 33.652344 12.367188 33.785156 12.230469 33.894531 12.0625 C 34 11.894531 34.074219 11.707031 34.121094 11.5 L 34.699219 8.816406 L 34.441406 8.757812 L 33.902344 11.25 C 33.882812 11.335938 33.863281 11.421875 33.839844 11.507812 C 33.816406 11.597656 33.785156 11.683594 33.746094 11.765625 C 33.707031 11.851562 33.660156 11.929688 33.601562 12.007812 C 33.539062 12.085938 33.460938 12.160156 33.363281 12.226562 C 33.191406 12.351562 33.007812 12.421875 32.820312 12.4375 C 32.632812 12.453125 32.441406 12.441406 32.25 12.398438 C 32.082031 12.363281 31.941406 12.304688 31.828125 12.226562 C 31.710938 12.148438 31.605469 12.046875 31.515625 11.921875 C 31.441406 11.820312 31.390625 11.730469 31.359375 11.640625 C 31.328125 11.550781 31.3125 11.464844 31.304688 11.382812 C 31.296875 11.304688 31.300781 11.222656 31.3125 11.144531 C 31.328125 11.0625 31.339844 10.984375 31.359375 10.90625 L 31.941406 8.21875 L 31.40625 8.101562 M 36.5 14.058594 L 38.125 10.53125 L 39.589844 11.207031 L 39.730469 10.90625 L 36.300781 9.328125 L 36.164062 9.628906 L 37.628906 10.304688 L 36 13.832031 L 36.5 14.058594 M 41.359375 11.996094 L 38.964844 15.464844 L 39.417969 15.777344 L 41.8125 12.308594 L 41.359375 11.996094 M 42.148438 15.078125 C 41.988281 15.234375 41.84375 15.433594 41.71875 15.671875 C 41.59375 15.910156 41.519531 16.171875 41.492188 16.453125 C 41.460938 16.738281 41.496094 17.03125 41.589844 17.335938 C 41.683594 17.640625 41.867188 17.933594 42.144531 18.222656 C 42.332031 18.417969 42.523438 18.570312 42.722656 18.679688 C 42.921875 18.792969 43.121094 18.871094 43.324219 18.921875 C 43.527344 18.96875 43.726562 18.988281 43.917969 18.980469 C 44.113281 18.972656 44.300781 18.941406 44.472656 18.886719 C 44.648438 18.832031 44.808594 18.765625 44.957031 18.683594 C 45.105469 18.597656 45.230469 18.503906 45.339844 18.402344 C 45.5 18.246094 45.640625 18.046875 45.761719 17.804688 C 45.882812 17.558594 45.953125 17.292969 45.976562 17.003906 C 46 16.714844 45.960938 16.414062 45.859375 16.105469 C 45.757812 15.792969 45.566406 15.492188 45.289062 15.203125 C 45.015625 14.914062 44.726562 14.71875 44.429688 14.609375 C 44.128906 14.5 43.839844 14.457031 43.554688 14.472656 C 43.273438 14.488281 43.007812 14.550781 42.765625 14.667969 C 42.519531 14.785156 42.3125 14.921875 42.148438 15.078125 M 42.558594 15.503906 C 42.761719 15.308594 42.976562 15.164062 43.207031 15.0625 C 43.433594 14.960938 43.660156 14.90625 43.886719 14.898438 C 44.113281 14.890625 44.332031 14.929688 44.542969 15.011719 C 44.75 15.09375 44.941406 15.222656 45.105469 15.394531 C 45.269531 15.566406 45.390625 15.757812 45.46875 15.976562 C 45.546875 16.195312 45.582031 16.417969 45.570312 16.648438 C 45.558594 16.882812 45.5 17.109375 45.394531 17.339844 C 45.289062 17.570312 45.132812 17.78125 44.929688 17.976562 C 44.726562 18.171875 44.507812 18.316406 44.277344 18.414062 C 44.042969 18.507812 43.8125 18.558594 43.578125 18.558594 C 43.347656 18.5625 43.125 18.519531 42.910156 18.433594 C 42.695312 18.347656 42.507812 18.21875 42.34375 18.046875 C 42.175781 17.875 42.058594 17.679688 41.984375 17.46875 C 41.910156 17.253906 41.882812 17.035156 41.898438 16.808594 C 41.914062 16.585938 41.980469 16.359375 42.089844 16.132812 C 42.199219 15.910156 42.355469 15.699219 42.558594 15.503906 M 49.792969 21.839844 L 46.960938 23.371094 L 46.949219 23.351562 L 48.253906 18.84375 L 48.238281 18.816406 L 44.46875 20.859375 L 44.601562 21.101562 L 47.433594 19.570312 L 47.445312 19.589844 L 46.140625 24.097656 L 46.15625 24.125 L 49.925781 22.082031 L 49.792969 21.839844 M 47.636719 24.84375 C 47.472656 24.894531 47.332031 24.980469 47.21875 25.097656 C 47.105469 25.214844 47.019531 25.351562 46.960938 25.515625 C 46.902344 25.679688 46.875 25.859375 46.871094 26.0625 C 46.871094 26.261719 46.898438 26.472656 46.957031 26.691406 C 47.019531 26.917969 47.101562 27.113281 47.203125 27.277344 C 47.308594 27.445312 47.425781 27.578125 47.5625 27.675781 C 47.695312 27.777344 47.847656 27.84375 48.007812 27.875 C 48.171875 27.90625 48.339844 27.898438 48.511719 27.851562 C 48.753906 27.785156 48.933594 27.671875 49.054688 27.511719 C 49.175781 27.347656 49.261719 27.164062 49.316406 26.957031 C 49.371094 26.75 49.402344 26.53125 49.417969 26.300781 C 49.429688 26.070312 49.449219 25.855469 49.476562 25.652344 C 49.507812 25.453125 49.554688 25.277344 49.625 25.128906 C 49.691406 24.984375 49.808594 24.886719 49.976562 24.839844 C 50.070312 24.816406 50.164062 24.8125 50.253906 24.832031 C 50.347656 24.851562 50.433594 24.890625 50.515625 24.953125 C 50.597656 25.019531 50.671875 25.101562 50.738281 25.207031 C 50.808594 25.316406 50.863281 25.445312 50.902344 25.59375 C 50.972656 25.847656 50.976562 26.074219 50.917969 26.28125 C 50.859375 26.484375 50.71875 26.632812 50.5 26.726562 L 50.605469 27.121094 C 50.742188 27.0625 50.855469 26.972656 50.949219 26.863281 C 51.042969 26.75 51.109375 26.621094 51.15625 26.476562 C 51.203125 26.328125 51.226562 26.171875 51.222656 26.003906 C 51.222656 25.835938 51.199219 25.667969 51.152344 25.496094 C 51.101562 25.320312 51.035156 25.15625 50.945312 25.007812 C 50.855469 24.859375 50.75 24.734375 50.625 24.636719 C 50.503906 24.539062 50.367188 24.472656 50.210938 24.4375 C 50.054688 24.402344 49.890625 24.410156 49.714844 24.457031 C 49.488281 24.519531 49.320312 24.625 49.210938 24.78125 C 49.101562 24.933594 49.027344 25.113281 48.980469 25.3125 C 48.9375 25.515625 48.90625 25.726562 48.898438 25.949219 C 48.886719 26.171875 48.863281 26.382812 48.828125 26.582031 C 48.792969 26.78125 48.730469 26.957031 48.640625 27.105469 C 48.554688 27.253906 48.40625 27.355469 48.207031 27.410156 C 47.953125 27.476562 47.746094 27.433594 47.578125 27.28125 C 47.414062 27.128906 47.289062 26.902344 47.207031 26.59375 C 47.140625 26.351562 47.121094 26.144531 47.144531 25.980469 C 47.167969 25.816406 47.214844 25.683594 47.28125 25.582031 C 47.351562 25.480469 47.429688 25.402344 47.515625 25.351562 C 47.605469 25.296875 47.679688 25.261719 47.746094 25.238281 L 47.636719 24.84375 " fill-opacity="1" fill-rule="nonzero"/><path fill="#64c6c4" d="M 8.15625 41.378906 L 7.625 40.179688 L 6.894531 40.226562 L 6.773438 39.949219 L 9.800781 39.757812 L 9.929688 40.054688 L 7.753906 42.164062 L 7.628906 41.886719 L 8.15625 41.378906 M 8.339844 41.203125 L 9.53125 40.050781 L 7.875 40.160156 L 8.339844 41.203125 M 9.382812 44.871094 L 9.230469 44.625 L 10.429688 41.984375 L 8.378906 43.273438 L 8.226562 43.03125 L 10.664062 41.496094 L 10.820312 41.738281 L 9.621094 44.378906 L 11.667969 43.089844 L 11.824219 43.335938 L 9.382812 44.871094 M 13.269531 45.09375 L 11.109375 47.007812 L 10.917969 46.789062 L 13.078125 44.878906 L 13.269531 45.09375 M 13.953125 47.796875 C 13.734375 47.796875 13.503906 47.683594 13.269531 47.460938 L 12.847656 47.058594 L 12 47.953125 L 11.792969 47.753906 L 13.773438 45.660156 L 14.40625 46.261719 C 14.640625 46.480469 14.761719 46.703125 14.777344 46.925781 C 14.792969 47.148438 14.714844 47.347656 14.542969 47.53125 C 14.371094 47.710938 14.175781 47.800781 13.953125 47.796875 M 14.328125 47.328125 C 14.460938 47.1875 14.519531 47.042969 14.511719 46.898438 C 14.5 46.753906 14.410156 46.597656 14.238281 46.4375 L 13.816406 46.035156 L 13.015625 46.878906 L 13.4375 47.28125 C 13.765625 47.589844 14.0625 47.605469 14.328125 47.328125 M 16.230469 48.664062 C 16.453125 48.539062 16.691406 48.480469 16.9375 48.484375 C 17.1875 48.492188 17.421875 48.5625 17.648438 48.703125 C 17.921875 48.871094 18.117188 49.078125 18.230469 49.328125 C 18.347656 49.578125 18.375 49.851562 18.320312 50.140625 L 18.03125 49.964844 C 18.0625 49.753906 18.039062 49.558594 17.949219 49.375 C 17.863281 49.195312 17.71875 49.039062 17.515625 48.914062 C 17.335938 48.804688 17.148438 48.746094 16.953125 48.742188 C 16.753906 48.738281 16.566406 48.789062 16.390625 48.898438 C 16.210938 49.003906 16.054688 49.164062 15.929688 49.371094 C 15.800781 49.578125 15.726562 49.789062 15.714844 49.996094 C 15.699219 50.203125 15.738281 50.390625 15.828125 50.566406 C 15.921875 50.738281 16.058594 50.878906 16.238281 50.992188 C 16.441406 51.117188 16.644531 51.175781 16.84375 51.171875 C 17.046875 51.167969 17.230469 51.105469 17.402344 50.988281 L 17.691406 51.164062 C 17.457031 51.34375 17.203125 51.4375 16.929688 51.445312 C 16.652344 51.453125 16.378906 51.371094 16.105469 51.207031 C 15.882812 51.066406 15.710938 50.886719 15.59375 50.667969 C 15.476562 50.449219 15.425781 50.214844 15.433594 49.960938 C 15.445312 49.703125 15.527344 49.457031 15.675781 49.214844 C 15.824219 48.976562 16.007812 48.792969 16.230469 48.664062 M 18.878906 52.46875 C 18.726562 52.269531 18.632812 52.042969 18.601562 51.789062 C 18.570312 51.535156 18.605469 51.277344 18.710938 51.015625 C 18.816406 50.75 18.96875 50.539062 19.171875 50.378906 C 19.371094 50.21875 19.59375 50.121094 19.84375 50.085938 C 20.089844 50.050781 20.339844 50.082031 20.585938 50.183594 C 20.835938 50.285156 21.039062 50.433594 21.191406 50.632812 C 21.347656 50.828125 21.441406 51.054688 21.46875 51.308594 C 21.5 51.5625 21.464844 51.820312 21.359375 52.082031 C 21.25 52.34375 21.097656 52.558594 20.902344 52.71875 C 20.703125 52.878906 20.476562 52.976562 20.230469 53.011719 C 19.980469 53.046875 19.734375 53.015625 19.484375 52.914062 C 19.234375 52.8125 19.035156 52.664062 18.878906 52.46875 M 20.167969 52.757812 C 20.363281 52.730469 20.542969 52.648438 20.703125 52.515625 C 20.863281 52.378906 20.992188 52.199219 21.082031 51.972656 C 21.175781 51.746094 21.207031 51.527344 21.183594 51.320312 C 21.164062 51.113281 21.089844 50.929688 20.96875 50.773438 C 20.847656 50.617188 20.6875 50.5 20.488281 50.421875 C 20.292969 50.339844 20.09375 50.3125 19.898438 50.34375 C 19.703125 50.371094 19.527344 50.449219 19.367188 50.585938 C 19.203125 50.71875 19.078125 50.898438 18.988281 51.125 C 18.894531 51.351562 18.859375 51.570312 18.882812 51.78125 C 18.90625 51.988281 18.976562 52.171875 19.097656 52.328125 C 19.21875 52.480469 19.378906 52.601562 19.578125 52.679688 C 19.777344 52.761719 19.972656 52.785156 20.167969 52.757812 M 23.988281 54.207031 L 23.707031 54.144531 L 22.691406 51.425781 L 22.152344 53.789062 L 21.871094 53.722656 L 22.511719 50.914062 L 22.792969 50.976562 L 23.808594 53.695312 L 24.347656 51.332031 L 24.628906 51.398438 L 23.988281 54.207031 M 25.507812 54.335938 C 25.371094 54.257812 25.265625 54.15625 25.195312 54.03125 C 25.121094 53.90625 25.089844 53.769531 25.097656 53.625 L 25.402344 53.652344 C 25.402344 53.792969 25.453125 53.917969 25.554688 54.035156 C 25.652344 54.148438 25.808594 54.21875 26.019531 54.234375 C 26.214844 54.253906 26.371094 54.21875 26.496094 54.128906 C 26.617188 54.035156 26.6875 53.914062 26.699219 53.761719 C 26.710938 53.640625 26.6875 53.535156 26.632812 53.457031 C 26.574219 53.375 26.503906 53.3125 26.414062 53.265625 C 26.324219 53.222656 26.199219 53.167969 26.035156 53.109375 C 25.851562 53.042969 25.703125 52.976562 25.59375 52.917969 C 25.488281 52.859375 25.398438 52.773438 25.328125 52.664062 C 25.257812 52.550781 25.230469 52.40625 25.246094 52.230469 C 25.257812 52.082031 25.308594 51.953125 25.394531 51.84375 C 25.484375 51.734375 25.597656 51.652344 25.746094 51.597656 C 25.890625 51.546875 26.054688 51.527344 26.234375 51.542969 C 26.5 51.566406 26.707031 51.652344 26.859375 51.796875 C 27.011719 51.941406 27.089844 52.117188 27.097656 52.324219 L 26.785156 52.296875 C 26.777344 52.175781 26.71875 52.066406 26.617188 51.964844 C 26.519531 51.863281 26.375 51.804688 26.1875 51.789062 C 26.015625 51.773438 25.867188 51.804688 25.746094 51.886719 C 25.621094 51.96875 25.550781 52.089844 25.539062 52.246094 C 25.527344 52.367188 25.550781 52.46875 25.605469 52.546875 C 25.664062 52.625 25.738281 52.691406 25.828125 52.738281 C 25.917969 52.785156 26.042969 52.835938 26.203125 52.894531 C 26.382812 52.960938 26.527344 53.027344 26.640625 53.089844 C 26.75 53.148438 26.839844 53.234375 26.910156 53.347656 C 26.980469 53.457031 27.007812 53.601562 26.992188 53.777344 C 26.980469 53.910156 26.933594 54.035156 26.851562 54.148438 C 26.769531 54.261719 26.65625 54.351562 26.507812 54.410156 C 26.363281 54.472656 26.191406 54.496094 26 54.476562 C 25.808594 54.460938 25.644531 54.414062 25.507812 54.335938 M 28.117188 51.667969 L 28.199219 53.480469 C 28.214844 53.765625 28.292969 53.972656 28.433594 54.105469 C 28.574219 54.238281 28.765625 54.296875 29 54.285156 C 29.238281 54.273438 29.417969 54.199219 29.546875 54.058594 C 29.671875 53.914062 29.730469 53.699219 29.714844 53.410156 L 29.632812 51.597656 L 29.921875 51.585938 L 30.003906 53.394531 C 30.019531 53.757812 29.9375 54.039062 29.75 54.230469 C 29.566406 54.425781 29.320312 54.527344 29.007812 54.542969 C 28.699219 54.554688 28.441406 54.476562 28.238281 54.300781 C 28.039062 54.125 27.929688 53.855469 27.910156 53.488281 L 27.832031 51.679688 L 28.117188 51.667969 M 31.378906 54.042969 L 32.398438 53.875 L 32.4375 54.105469 L 31.132812 54.324219 L 30.664062 51.476562 L 30.949219 51.429688 L 31.378906 54.042969 M 34.101562 50.707031 L 34.164062 50.9375 L 33.390625 51.148438 L 34.085938 53.699219 L 33.808594 53.773438 L 33.113281 51.222656 L 32.335938 51.4375 L 32.273438 51.207031 L 34.101562 50.707031 M 34.894531 50.40625 L 35.882812 53.113281 L 35.609375 53.214844 L 34.625 50.503906 L 34.894531 50.40625 M 38.824219 51.804688 L 38.5625 51.929688 L 36.070312 50.441406 L 37.125 52.625 L 36.867188 52.75 L 35.613281 50.152344 L 35.871094 50.027344 L 38.363281 51.511719 L 37.308594 49.335938 L 37.570312 49.207031 L 38.824219 51.804688 M 40.578125 48.230469 C 40.402344 48.121094 40.210938 48.070312 40.011719 48.078125 C 39.8125 48.085938 39.617188 48.15625 39.429688 48.285156 C 39.253906 48.40625 39.125 48.558594 39.042969 48.738281 C 38.957031 48.914062 38.929688 49.109375 38.949219 49.316406 C 38.972656 49.519531 39.054688 49.722656 39.195312 49.921875 C 39.332031 50.121094 39.496094 50.265625 39.679688 50.363281 C 39.867188 50.457031 40.058594 50.496094 40.253906 50.480469 C 40.453125 50.464844 40.636719 50.394531 40.8125 50.269531 C 40.976562 50.15625 41.101562 50.015625 41.183594 49.855469 C 41.265625 49.691406 41.300781 49.515625 41.289062 49.328125 C 41.277344 49.140625 41.214844 48.953125 41.105469 48.769531 L 40.109375 49.464844 L 39.976562 49.269531 L 41.222656 48.402344 L 41.339844 48.578125 C 41.476562 48.792969 41.550781 49.019531 41.566406 49.257812 C 41.582031 49.496094 41.535156 49.722656 41.433594 49.9375 C 41.332031 50.15625 41.175781 50.335938 40.960938 50.484375 C 40.742188 50.636719 40.507812 50.722656 40.257812 50.746094 C 40.011719 50.765625 39.769531 50.722656 39.539062 50.609375 C 39.308594 50.496094 39.113281 50.324219 38.949219 50.09375 C 38.789062 49.859375 38.695312 49.617188 38.667969 49.359375 C 38.644531 49.105469 38.683594 48.863281 38.789062 48.636719 C 38.898438 48.410156 39.058594 48.222656 39.277344 48.070312 C 39.53125 47.890625 39.796875 47.800781 40.074219 47.796875 C 40.351562 47.789062 40.613281 47.871094 40.855469 48.035156 L 40.578125 48.230469 M 42.894531 44.894531 L 43.066406 45.0625 L 42.191406 45.980469 L 42.96875 46.722656 L 43.707031 45.949219 L 43.882812 46.113281 L 43.140625 46.886719 L 44.101562 47.804688 L 43.902344 48.015625 L 41.816406 46.023438 L 42.894531 44.894531 M 43.433594 44.21875 L 45.671875 46.035156 L 45.492188 46.261719 L 43.253906 44.445312 L 43.433594 44.21875 M 47.160156 43.964844 L 45.761719 43.882812 L 45.464844 44.324219 L 46.464844 44.996094 L 46.304688 45.238281 L 43.910156 43.628906 L 44.394531 42.910156 C 44.574219 42.644531 44.773438 42.484375 44.992188 42.433594 C 45.214844 42.378906 45.429688 42.421875 45.636719 42.5625 C 45.808594 42.679688 45.921875 42.828125 45.980469 43.007812 C 46.035156 43.191406 46.015625 43.390625 45.921875 43.609375 L 47.351562 43.675781 L 47.160156 43.964844 M 45.269531 44.195312 L 45.59375 43.710938 C 45.71875 43.523438 45.769531 43.351562 45.742188 43.199219 C 45.714844 43.042969 45.621094 42.910156 45.46875 42.808594 C 45.3125 42.703125 45.160156 42.667969 45.011719 42.703125 C 44.867188 42.734375 44.726562 42.851562 44.59375 43.046875 L 44.273438 43.527344 L 45.269531 44.195312 M 46.53125 38.984375 L 49.109375 40.1875 L 48.988281 40.449219 L 46.929688 39.488281 L 48.558594 41.367188 L 48.46875 41.558594 L 45.988281 41.519531 L 48.039062 42.476562 L 47.917969 42.738281 L 45.339844 41.535156 L 45.46875 41.257812 L 48.167969 41.304688 L 46.398438 39.265625 L 46.53125 38.984375 " fill-opacity="1" fill-rule="nonzero"/><path fill="#64c6c4" d="M 26.4375 41.8125 L 26.4375 22.773438 L 25.003906 22.351562 L 25.003906 41.875 Z M 26.4375 41.8125 " fill-opacity="1" fill-rule="evenodd"/><path fill="#a4cb6a" d="M 24.605469 41.894531 L 24.605469 23.609375 L 23.46875 23.320312 L 23.46875 41.945312 Z M 24.605469 41.894531 " fill-opacity="1" fill-rule="evenodd"/><g clip-path="url(#e1894fbac7)"><path fill="#212245" d="M 32.8125 41.386719 L 32.8125 41.960938 L 33.683594 42 L 40.378906 42.308594 L 33.683594 41.492188 L 33.683594 23.777344 L 32.8125 23.476562 L 30.753906 22.761719 L 28.308594 21.914062 L 26.953125 21.441406 L 26.953125 41.785156 L 28.308594 41.722656 L 28.308594 23.484375 L 30.753906 24.195312 L 32.808594 24.792969 L 32.808594 41.386719 Z M 32.8125 41.386719 " fill-opacity="1" fill-rule="evenodd"/></g><g clip-path="url(#e042de1060)"><path fill="#dceac6" d="M 23.152344 41.386719 L 23.152344 41.960938 L 15.585938 42.308594 L 22.230469 41.5 L 22.230469 24.105469 L 23.152344 24.308594 Z M 23.152344 41.386719 " fill-opacity="1" fill-rule="evenodd"/></g><path fill="#212245" d="M 10.078125 31.875 C 10.078125 31.289062 10.109375 30.703125 10.164062 30.121094 C 10.222656 29.539062 10.308594 28.957031 10.421875 28.382812 C 10.539062 27.808594 10.679688 27.242188 10.851562 26.679688 C 11.019531 26.121094 11.21875 25.566406 11.441406 25.027344 C 11.667969 24.484375 11.917969 23.957031 12.195312 23.4375 C 12.472656 22.921875 12.773438 22.417969 13.097656 21.933594 C 13.421875 21.445312 13.773438 20.976562 14.144531 20.523438 C 14.515625 20.070312 14.910156 19.636719 15.324219 19.222656 C 15.738281 18.804688 16.171875 18.414062 16.625 18.042969 C 17.078125 17.667969 17.550781 17.320312 18.035156 16.996094 C 18.523438 16.667969 19.027344 16.367188 19.542969 16.09375 C 20.058594 15.816406 20.589844 15.566406 21.132812 15.339844 C 21.671875 15.117188 22.222656 14.921875 22.785156 14.75 C 23.347656 14.578125 23.914062 14.4375 24.488281 14.324219 C 25.0625 14.210938 25.644531 14.125 26.226562 14.066406 C 26.808594 14.007812 27.394531 13.980469 27.980469 13.980469 C 28.566406 13.980469 29.152344 14.007812 29.734375 14.066406 C 30.316406 14.125 30.898438 14.210938 31.472656 14.324219 C 32.046875 14.4375 32.613281 14.578125 33.175781 14.75 C 33.738281 14.921875 34.289062 15.117188 34.828125 15.339844 C 35.371094 15.566406 35.902344 15.816406 36.417969 16.09375 C 36.933594 16.367188 37.4375 16.667969 37.925781 16.996094 C 38.410156 17.320312 38.882812 17.667969 39.335938 18.042969 C 39.789062 18.414062 40.222656 18.804688 40.636719 19.222656 C 41.050781 19.636719 41.445312 20.070312 41.816406 20.523438 C 42.1875 20.976562 42.539062 21.445312 42.863281 21.933594 C 43.1875 22.417969 43.488281 22.921875 43.765625 23.4375 C 44.042969 23.957031 44.292969 24.484375 44.519531 25.027344 C 44.742188 25.566406 44.941406 26.121094 45.109375 26.679688 C 45.28125 27.242188 45.421875 27.808594 45.539062 28.382812 C 45.652344 28.957031 45.738281 29.539062 45.796875 30.121094 C 45.851562 30.703125 45.882812 31.289062 45.882812 31.875 C 45.882812 32.460938 45.851562 33.046875 45.796875 33.628906 C 45.738281 34.214844 45.652344 34.792969 45.539062 35.367188 C 45.421875 35.941406 45.28125 36.507812 45.109375 37.070312 C 44.941406 37.632812 44.742188 38.183594 44.519531 38.722656 C 44.292969 39.265625 44.042969 39.792969 43.765625 40.3125 C 43.488281 40.828125 43.1875 41.332031 42.863281 41.816406 C 42.539062 42.304688 42.1875 42.777344 41.816406 43.230469 C 41.445312 43.683594 41.050781 44.117188 40.636719 44.53125 C 40.222656 44.945312 39.789062 45.335938 39.335938 45.710938 C 38.882812 46.082031 38.410156 46.429688 37.925781 46.753906 C 37.4375 47.082031 36.933594 47.382812 36.417969 47.65625 C 35.902344 47.933594 35.371094 48.183594 34.828125 48.410156 C 34.289062 48.632812 33.738281 48.832031 33.175781 49 C 32.613281 49.171875 32.046875 49.3125 31.472656 49.425781 C 30.898438 49.542969 30.316406 49.628906 29.734375 49.683594 C 29.152344 49.742188 28.566406 49.769531 27.980469 49.769531 C 27.394531 49.769531 26.808594 49.742188 26.226562 49.683594 C 25.644531 49.628906 25.0625 49.542969 24.488281 49.425781 C 23.914062 49.3125 23.347656 49.171875 22.785156 49 C 22.222656 48.832031 21.671875 48.632812 21.132812 48.410156 C 20.589844 48.183594 20.058594 47.933594 19.542969 47.65625 C 19.027344 47.382812 18.523438 47.082031 18.035156 46.753906 C 17.550781 46.429688 17.078125 46.082031 16.625 45.710938 C 16.171875 45.335938 15.738281 44.945312 15.324219 44.53125 C 14.910156 44.117188 14.515625 43.683594 14.144531 43.230469 C 13.773438 42.777344 13.421875 42.304688 13.097656 41.816406 C 12.773438 41.332031 12.472656 40.828125 12.195312 40.3125 C 11.917969 39.792969 11.667969 39.265625 11.441406 38.722656 C 11.21875 38.183594 11.019531 37.632812 10.851562 37.070312 C 10.679688 36.507812 10.539062 35.941406 10.421875 35.367188 C 10.308594 34.792969 10.222656 34.214844 10.164062 33.628906 C 10.109375 33.046875 10.078125 32.460938 10.078125 31.875 Z M 10.242188 31.875 C 10.242188 32.457031 10.269531 33.035156 10.328125 33.613281 C 10.382812 34.191406 10.46875 34.765625 10.582031 35.335938 C 10.695312 35.90625 10.835938 36.46875 11.007812 37.023438 C 11.175781 37.582031 11.371094 38.125 11.59375 38.664062 C 11.816406 39.199219 12.0625 39.726562 12.335938 40.238281 C 12.609375 40.75 12.910156 41.246094 13.230469 41.730469 C 13.554688 42.214844 13.898438 42.679688 14.269531 43.128906 C 14.636719 43.578125 15.027344 44.007812 15.4375 44.417969 C 15.847656 44.828125 16.277344 45.21875 16.726562 45.585938 C 17.175781 45.957031 17.640625 46.300781 18.125 46.625 C 18.609375 46.945312 19.105469 47.246094 19.617188 47.519531 C 20.132812 47.792969 20.65625 48.042969 21.191406 48.261719 C 21.730469 48.484375 22.273438 48.679688 22.832031 48.851562 C 23.386719 49.019531 23.949219 49.160156 24.519531 49.273438 C 25.089844 49.386719 25.664062 49.472656 26.242188 49.527344 C 26.820312 49.585938 27.398438 49.613281 27.980469 49.613281 C 28.5625 49.613281 29.140625 49.585938 29.71875 49.527344 C 30.296875 49.472656 30.871094 49.386719 31.441406 49.273438 C 32.011719 49.160156 32.574219 49.019531 33.128906 48.851562 C 33.683594 48.679688 34.230469 48.484375 34.769531 48.261719 C 35.304688 48.042969 35.828125 47.792969 36.34375 47.519531 C 36.855469 47.246094 37.351562 46.945312 37.835938 46.625 C 38.316406 46.300781 38.785156 45.957031 39.234375 45.585938 C 39.683594 45.21875 40.113281 44.828125 40.523438 44.417969 C 40.933594 44.007812 41.324219 43.578125 41.691406 43.128906 C 42.0625 42.679688 42.40625 42.214844 42.730469 41.730469 C 43.050781 41.246094 43.351562 40.75 43.625 40.238281 C 43.898438 39.726562 44.144531 39.199219 44.367188 38.664062 C 44.589844 38.125 44.785156 37.582031 44.953125 37.023438 C 45.125 36.46875 45.265625 35.90625 45.378906 35.335938 C 45.492188 34.765625 45.578125 34.191406 45.632812 33.613281 C 45.691406 33.035156 45.71875 32.457031 45.71875 31.875 C 45.71875 31.292969 45.691406 30.714844 45.632812 30.136719 C 45.578125 29.558594 45.492188 28.984375 45.378906 28.414062 C 45.265625 27.84375 45.125 27.28125 44.953125 26.726562 C 44.785156 26.171875 44.589844 25.625 44.367188 25.085938 C 44.144531 24.550781 43.898438 24.027344 43.625 23.511719 C 43.351562 23 43.050781 22.503906 42.730469 22.019531 C 42.40625 21.539062 42.0625 21.070312 41.691406 20.621094 C 41.324219 20.171875 40.933594 19.742188 40.523438 19.332031 C 40.113281 18.921875 39.683594 18.53125 39.234375 18.164062 C 38.785156 17.792969 38.316406 17.449219 37.835938 17.125 C 37.351562 16.804688 36.855469 16.503906 36.34375 16.230469 C 35.828125 15.957031 35.304688 15.710938 34.769531 15.488281 C 34.230469 15.265625 33.683594 15.070312 33.128906 14.902344 C 32.574219 14.730469 32.011719 14.589844 31.441406 14.476562 C 30.871094 14.363281 30.296875 14.28125 29.71875 14.222656 C 29.140625 14.164062 28.5625 14.136719 27.980469 14.136719 C 27.398438 14.136719 26.820312 14.164062 26.242188 14.222656 C 25.664062 14.28125 25.089844 14.363281 24.519531 14.476562 C 23.949219 14.589844 23.386719 14.730469 22.832031 14.902344 C 22.273438 15.070312 21.730469 15.265625 21.191406 15.488281 C 20.65625 15.710938 20.132812 15.957031 19.617188 16.230469 C 19.105469 16.503906 18.609375 16.804688 18.125 17.125 C 17.640625 17.449219 17.175781 17.792969 16.726562 18.164062 C 16.277344 18.53125 15.847656 18.921875 15.4375 19.332031 C 15.027344 19.742188 14.636719 20.171875 14.269531 20.621094 C 13.898438 21.070312 13.554688 21.539062 13.230469 22.019531 C 12.910156 22.503906 12.609375 23 12.335938 23.511719 C 12.0625 24.027344 11.816406 24.550781 11.59375 25.085938 C 11.371094 25.625 11.175781 26.171875 11.007812 26.726562 C 10.835938 27.28125 10.695312 27.84375 10.582031 28.414062 C 10.46875 28.984375 10.382812 29.558594 10.328125 30.136719 C 10.269531 30.714844 10.242188 31.292969 10.242188 31.875 Z M 10.242188 31.875 " fill-opacity="1" fill-rule="nonzero"/><path fill="#212245" d="M 1.335938 31.875 C 1.335938 31.003906 1.378906 30.132812 1.464844 29.265625 C 1.550781 28.394531 1.675781 27.53125 1.847656 26.675781 C 2.019531 25.820312 2.230469 24.976562 2.484375 24.140625 C 2.738281 23.304688 3.03125 22.484375 3.363281 21.679688 C 3.699219 20.871094 4.070312 20.085938 4.480469 19.316406 C 4.894531 18.546875 5.339844 17.796875 5.828125 17.074219 C 6.3125 16.347656 6.832031 15.648438 7.382812 14.972656 C 7.9375 14.296875 8.523438 13.652344 9.140625 13.035156 C 9.757812 12.417969 10.402344 11.832031 11.078125 11.277344 C 11.75 10.726562 12.453125 10.207031 13.175781 9.722656 C 13.902344 9.238281 14.652344 8.789062 15.421875 8.378906 C 16.191406 7.964844 16.976562 7.59375 17.785156 7.257812 C 18.589844 6.925781 19.410156 6.632812 20.246094 6.378906 C 21.082031 6.125 21.925781 5.914062 22.78125 5.742188 C 23.636719 5.574219 24.5 5.445312 25.367188 5.359375 C 26.238281 5.273438 27.109375 5.230469 27.980469 5.230469 C 28.851562 5.230469 29.722656 5.273438 30.59375 5.359375 C 31.460938 5.445312 32.324219 5.574219 33.179688 5.742188 C 34.035156 5.914062 34.878906 6.125 35.714844 6.378906 C 36.550781 6.632812 37.371094 6.925781 38.175781 7.257812 C 38.984375 7.59375 39.769531 7.964844 40.539062 8.378906 C 41.308594 8.789062 42.058594 9.238281 42.785156 9.722656 C 43.507812 10.207031 44.207031 10.726562 44.882812 11.277344 C 45.558594 11.832031 46.203125 12.417969 46.820312 13.035156 C 47.4375 13.652344 48.023438 14.296875 48.578125 14.972656 C 49.128906 15.648438 49.648438 16.347656 50.132812 17.074219 C 50.621094 17.796875 51.066406 18.546875 51.480469 19.316406 C 51.890625 20.085938 52.261719 20.871094 52.597656 21.679688 C 52.929688 22.484375 53.222656 23.304688 53.476562 24.140625 C 53.730469 24.976562 53.941406 25.820312 54.113281 26.675781 C 54.28125 27.53125 54.410156 28.394531 54.496094 29.265625 C 54.582031 30.132812 54.625 31.003906 54.625 31.875 C 54.625 32.746094 54.582031 33.617188 54.496094 34.488281 C 54.410156 35.355469 54.28125 36.21875 54.113281 37.074219 C 53.941406 37.929688 53.730469 38.773438 53.476562 39.609375 C 53.222656 40.445312 52.929688 41.265625 52.597656 42.070312 C 52.261719 42.878906 51.890625 43.664062 51.480469 44.433594 C 51.066406 45.203125 50.621094 45.953125 50.132812 46.679688 C 49.648438 47.402344 49.128906 48.105469 48.578125 48.777344 C 48.023438 49.453125 47.4375 50.097656 46.820312 50.714844 C 46.203125 51.332031 45.558594 51.917969 44.882812 52.472656 C 44.207031 53.023438 43.507812 53.542969 42.785156 54.03125 C 42.058594 54.515625 41.308594 54.960938 40.539062 55.375 C 39.769531 55.785156 38.984375 56.15625 38.175781 56.492188 C 37.371094 56.824219 36.550781 57.121094 35.714844 57.371094 C 34.878906 57.625 34.035156 57.835938 33.179688 58.007812 C 32.324219 58.179688 31.460938 58.304688 30.59375 58.390625 C 29.722656 58.476562 28.851562 58.519531 27.980469 58.519531 C 27.109375 58.519531 26.238281 58.476562 25.367188 58.390625 C 24.5 58.304688 23.636719 58.179688 22.78125 58.007812 C 21.925781 57.835938 21.082031 57.625 20.246094 57.371094 C 19.410156 57.121094 18.589844 56.824219 17.785156 56.492188 C 16.976562 56.15625 16.191406 55.785156 15.421875 55.375 C 14.652344 54.960938 13.902344 54.515625 13.175781 54.03125 C 12.453125 53.542969 11.75 53.023438 11.078125 52.472656 C 10.402344 51.917969 9.757812 51.332031 9.140625 50.714844 C 8.523438 50.097656 7.9375 49.453125 7.382812 48.777344 C 6.832031 48.105469 6.3125 47.402344 5.828125 46.679688 C 5.339844 45.953125 4.894531 45.203125 4.480469 44.433594 C 4.070312 43.664062 3.699219 42.878906 3.363281 42.070312 C 3.03125 41.265625 2.738281 40.445312 2.484375 39.609375 C 2.230469 38.773438 2.019531 37.929688 1.847656 37.074219 C 1.675781 36.21875 1.550781 35.355469 1.464844 34.488281 C 1.378906 33.617188 1.335938 32.746094 1.335938 31.875 Z M 1.5 31.875 C 1.5 32.742188 1.542969 33.609375 1.628906 34.472656 C 1.710938 35.335938 1.839844 36.191406 2.007812 37.042969 C 2.175781 37.890625 2.386719 38.730469 2.640625 39.5625 C 2.890625 40.390625 3.183594 41.207031 3.515625 42.007812 C 3.847656 42.808594 4.21875 43.59375 4.625 44.359375 C 5.035156 45.125 5.480469 45.867188 5.960938 46.585938 C 6.445312 47.308594 6.960938 48.003906 7.511719 48.675781 C 8.0625 49.34375 8.640625 49.988281 9.253906 50.601562 C 9.867188 51.214844 10.511719 51.796875 11.179688 52.34375 C 11.851562 52.894531 12.546875 53.410156 13.269531 53.894531 C 13.988281 54.375 14.734375 54.820312 15.496094 55.230469 C 16.261719 55.636719 17.046875 56.007812 17.847656 56.339844 C 18.648438 56.671875 19.464844 56.964844 20.292969 57.214844 C 21.125 57.46875 21.964844 57.679688 22.8125 57.847656 C 23.664062 58.015625 24.523438 58.144531 25.386719 58.230469 C 26.246094 58.3125 27.113281 58.355469 27.980469 58.355469 C 28.847656 58.355469 29.714844 58.3125 30.574219 58.230469 C 31.4375 58.144531 32.296875 58.015625 33.148438 57.847656 C 33.996094 57.679688 34.835938 57.46875 35.667969 57.214844 C 36.496094 56.964844 37.3125 56.671875 38.113281 56.339844 C 38.914062 56.007812 39.699219 55.636719 40.464844 55.230469 C 41.226562 54.820312 41.972656 54.375 42.691406 53.894531 C 43.414062 53.410156 44.109375 52.894531 44.78125 52.34375 C 45.449219 51.796875 46.09375 51.214844 46.707031 50.601562 C 47.320312 49.988281 47.898438 49.34375 48.449219 48.675781 C 49 48.003906 49.515625 47.308594 50 46.585938 C 50.480469 45.867188 50.925781 45.125 51.335938 44.359375 C 51.742188 43.59375 52.113281 42.808594 52.445312 42.007812 C 52.777344 41.207031 53.070312 40.390625 53.320312 39.5625 C 53.574219 38.730469 53.785156 37.890625 53.953125 37.042969 C 54.121094 36.191406 54.25 35.335938 54.332031 34.472656 C 54.417969 33.609375 54.460938 32.742188 54.460938 31.875 C 54.460938 31.007812 54.417969 30.144531 54.332031 29.28125 C 54.25 28.417969 54.121094 27.558594 53.953125 26.710938 C 53.785156 25.859375 53.574219 25.019531 53.320312 24.1875 C 53.070312 23.359375 52.777344 22.542969 52.445312 21.742188 C 52.113281 20.941406 51.742188 20.15625 51.335938 19.390625 C 50.925781 18.628906 50.480469 17.882812 50 17.164062 C 49.515625 16.441406 49 15.746094 48.449219 15.074219 C 47.898438 14.40625 47.320312 13.765625 46.707031 13.152344 C 46.09375 12.539062 45.449219 11.957031 44.78125 11.40625 C 44.109375 10.855469 43.414062 10.339844 42.691406 9.855469 C 41.972656 9.375 41.226562 8.929688 40.464844 8.519531 C 39.699219 8.113281 38.914062 7.742188 38.113281 7.410156 C 37.3125 7.078125 36.496094 6.785156 35.667969 6.535156 C 34.835938 6.28125 33.996094 6.074219 33.148438 5.902344 C 32.296875 5.734375 31.4375 5.605469 30.574219 5.523438 C 29.714844 5.4375 28.847656 5.394531 27.980469 5.394531 C 27.113281 5.394531 26.246094 5.4375 25.386719 5.523438 C 24.523438 5.605469 23.664062 5.734375 22.8125 5.902344 C 21.964844 6.074219 21.125 6.28125 20.292969 6.535156 C 19.464844 6.785156 18.648438 7.078125 17.847656 7.410156 C 17.046875 7.742188 16.261719 8.113281 15.496094 8.519531 C 14.734375 8.929688 13.988281 9.375 13.269531 9.855469 C 12.546875 10.339844 11.851562 10.855469 11.179688 11.40625 C 10.511719 11.957031 9.867188 12.539062 9.253906 13.152344 C 8.640625 13.765625 8.0625 14.40625 7.511719 15.074219 C 6.960938 15.746094 6.445312 16.441406 5.960938 17.164062 C 5.480469 17.882812 5.035156 18.628906 4.625 19.390625 C 4.21875 20.15625 3.847656 20.941406 3.515625 21.742188 C 3.183594 22.542969 2.890625 23.359375 2.640625 24.1875 C 2.386719 25.019531 2.175781 25.859375 2.007812 26.710938 C 1.839844 27.558594 1.710938 28.417969 1.628906 29.28125 C 1.542969 30.144531 1.5 31.007812 1.5 31.875 Z M 1.5 31.875 " fill-opacity="1" fill-rule="nonzero"/><g clip-path="url(#fc0af9bb89)"><g clip-path="url(#5ee164f595)"><g clip-path="url(#437b08b193)"><path fill="#212245" d="M 7.300781 33.742188 L 7.292969 33.695312 L 6.472656 33.664062 L 6.65625 32.859375 L 6.617188 32.84375 L 6.175781 33.539062 L 5.574219 32.980469 L 5.539062 33.007812 L 5.921875 33.734375 L 5.132812 33.976562 L 5.140625 34.023438 L 5.960938 34.054688 L 5.78125 34.859375 L 5.824219 34.875 L 6.257812 34.179688 L 6.863281 34.738281 L 6.898438 34.710938 L 6.511719 33.984375 Z M 7.300781 33.742188 " fill-opacity="1" fill-rule="nonzero"/></g></g></g><g clip-path="url(#ffa0a2a882)"><g clip-path="url(#66aa93f985)"><g clip-path="url(#28dd863efb)"><path fill="#212245" d="M 48.660156 33.738281 L 48.664062 33.695312 L 49.488281 33.664062 L 49.300781 32.859375 L 49.339844 32.84375 L 49.78125 33.539062 L 50.382812 32.976562 L 50.417969 33.003906 L 50.039062 33.734375 L 50.824219 33.976562 L 50.816406 34.019531 L 49.996094 34.054688 L 50.175781 34.855469 L 50.136719 34.875 L 49.699219 34.175781 L 49.09375 34.738281 L 49.058594 34.710938 L 49.445312 33.980469 Z M 48.660156 33.738281 " fill-opacity="1" fill-rule="nonzero"/></g></g></g></svg>