<svg width="160" height="54" viewBox="0 0 160 54" fill="none" xmlns="http://www.w3.org/2000/svg">
<rect width="53.0739" height="53.2038" rx="26.5369" fill="#DD131A"/>
<path d="M17.625 12C15.875 12 14.5 13.375 14.5 15.125V38.875C14.5 40.625 15.875 42 17.625 42H39.5V12H17.625ZM37 39.5H17.625C17.25 39.5 17 39.25 17 38.875V15.125C17 14.75 17.25 14.5 17.625 14.5H37V39.5Z" fill="white"/>
<path d="M17.625 12C15.875 12 14.5 13.375 14.5 15.125V37H22V12H17.625ZM19.5 34.5H17V15.125C17 14.75 17.25 14.5 17.625 14.5H19.5V34.5Z" fill="white"/>
<path d="M14.5 34.5V38.875C14.5 40.625 15.875 42 17.625 42H39.5V34.5H14.5ZM37 39.5H17.625C17.25 39.5 17 39.25 17 38.875V37H36.9999V39.5H37Z" fill="white"/>
<path d="M34.125 23.5001C34.125 23.3751 34.5 21.6251 34.125 21.1251L33.375 20.1251C32.875 19.3751 31.75 19.5001 31.25 20.2501C31.125 20.2501 31 20.2501 30.75 20.2501C30.625 20.2501 30.5 20.2501 30.375 20.2501C30.125 19.25 28.875 19.25 28.375 20.1251C28.375 20.1251 28.25 20.1251 28 20.1251C27.75 20.1251 28 20.1251 27.5 20.1251C27.125 19.3751 26 19.2501 25.375 20.0001L24.75 21.0001C24.375 21.5 24.375 22.1251 24.75 22.625C24.75 22.625 25 23 25 23.2501C25 23.2501 24.5 24.7501 24.5 25.8751C24.5 26.0794 24.5 26.2012 24.5 26.375C24.5 26.4139 24.5 26.4544 24.5 26.5C24.7501 27.75 25.5001 28.75 26.6251 29.375L27.0001 29.5C27.2501 29.625 27.6251 29.75 27.875 30C28.1251 30.125 30.875 30.125 31 30C31.25 29.875 31.625 29.625 31.75 29.625L32.125 29.5C33.25 28.875 34.375 26.5 34.375 26.5C34.375 26.5 34.5 26.1251 34.5 25.8751C34.5 24.7501 34.375 24.0001 34.125 23.5001ZM31.75 26C31.625 26.6251 31.25 27.0001 30.875 27.25L29.5 28C29.375 28 28.5 27.375 28.125 27.25L27.875 27.125C27.375 26.875 27.125 26.5 27 25.8751C27 25.1251 27.125 24.6251 27.125 24.5C27.25 24.25 27.25 24.0001 27.375 23.75C27.5 23.375 27.5 23 27.375 22.625C27.625 22.625 27.75 22.625 28 22.625C28.5 22.625 29 22.5001 29.375 22.375C29.75 22.5 30.25 22.625 30.7501 22.625C31.0001 22.625 31.25 22.625 31.3751 22.625C31.3751 23 31.3751 23.375 31.3751 23.75C31.3751 24.0001 31.5001 24.25 31.6251 24.5C31.7501 24.625 31.7501 25.1251 31.7501 25.8751V26H31.75Z" fill="white"/>
<path d="M147.545 41.357L139.483 21.9216H145.15L150.498 36.7675H148.582L154.13 21.9216H159.837L151.256 41.317L147.545 41.357ZM142.197 49.2588L148.064 36.8473L151.256 41.317L147.744 49.2588H142.197Z" fill="#1D1D1D"/>
<path d="M128.579 41.1973V19.8464C128.579 18.3033 128.912 16.9464 129.577 15.7758C130.242 14.5785 131.187 13.634 132.411 12.9423C133.634 12.2505 135.071 11.9047 136.721 11.9047C137.971 11.9047 139.049 12.1175 139.953 12.5432C140.858 12.9689 141.669 13.5542 142.388 14.2992L139.075 17.6515C138.783 17.3588 138.463 17.1326 138.117 16.973C137.772 16.8134 137.333 16.7336 136.8 16.7336C135.843 16.7336 135.098 16.9996 134.566 17.5317C134.06 18.0372 133.807 18.7689 133.807 19.7267V41.1973H128.579ZM124.11 26.5111V21.9216H139.514V26.5111H124.11Z" fill="#1D1D1D"/>
<path d="M116.924 41.1973V21.9216H122.192V41.1973H116.924ZM119.558 18.8087C118.707 18.8087 118.002 18.5294 117.443 17.9707C116.884 17.3854 116.605 16.667 116.605 15.8156C116.605 14.9909 116.884 14.2858 117.443 13.7005C118.002 13.1152 118.707 12.8225 119.558 12.8225C120.436 12.8225 121.141 13.1152 121.673 13.7005C122.232 14.2858 122.511 14.9909 122.511 15.8156C122.511 16.667 122.232 17.3854 121.673 17.9707C121.141 18.5294 120.436 18.8087 119.558 18.8087Z" fill="#1D1D1D"/>
<path d="M107.862 41.1973V12.3436H113.09V41.1973H107.862Z" fill="#1D1D1D"/>
<path d="M95.7972 41.5964C94.0945 41.5964 92.578 41.2372 91.2477 40.5189C89.944 39.8005 88.9197 38.8028 88.1747 37.5258C87.4298 36.2487 87.0573 34.7721 87.0573 33.0959V21.9216H92.3252V32.9762C92.3252 33.7744 92.4582 34.4661 92.7243 35.0514C92.9903 35.6102 93.3894 36.0359 93.9215 36.3285C94.4536 36.6212 95.0789 36.7675 95.7972 36.7675C96.888 36.7675 97.7394 36.4349 98.3513 35.7698C98.9633 35.1047 99.2692 34.1735 99.2692 32.9762V21.9216H104.497V33.0959C104.497 34.7987 104.125 36.2886 103.38 37.5657C102.661 38.8427 101.637 39.8404 100.307 40.5588C99.0032 41.2505 97.5 41.5964 95.7972 41.5964Z" fill="#1D1D1D"/>
<path d="M67.8642 29.4643V25.234H74.3693C75.6996 25.234 76.7239 24.9015 77.4422 24.2363C78.1872 23.5446 78.5597 22.6001 78.5597 21.4029C78.5597 20.312 78.1872 19.4074 77.4422 18.6891C76.7239 17.9441 75.6996 17.5717 74.3693 17.5717H67.8642V13.1418H74.8482C76.6574 13.1418 78.2404 13.501 79.5973 14.2194C80.9808 14.9111 82.045 15.8689 82.7899 17.0928C83.5615 18.3166 83.9473 19.7267 83.9473 21.323C83.9473 22.9726 83.5615 24.4093 82.7899 25.6331C82.045 26.8304 80.9808 27.7749 79.5973 28.4666C78.2138 29.1318 76.6041 29.4643 74.7684 29.4643H67.8642ZM63.8734 41.1973V13.1418H69.3009V41.1973H63.8734ZM79.1982 41.1973L69.9395 29.0652L74.928 27.5088L85.783 41.1973H79.1982Z" fill="#1D1D1D"/>
</svg>
