<svg xmlns="http://www.w3.org/2000/svg" xmlns:xlink="http://www.w3.org/1999/xlink" width="160" zoomAndPan="magnify" viewBox="0 0 120 40.499999" height="54" preserveAspectRatio="xMidYMid meet" version="1.0"><defs><g/><clipPath id="f9ae326471"><path d="M 20 15.191406 L 22 15.191406 L 22 25.375 L 20 25.375 Z M 20 15.191406 " clip-rule="nonzero"/></clipPath><clipPath id="b6916664a7"><path d="M 19 16 L 21 16 L 21 25.375 L 19 25.375 Z M 19 16 " clip-rule="nonzero"/></clipPath><clipPath id="11e0180b4e"><path d="M 21 15.191406 L 27.816406 15.191406 L 27.816406 25.375 L 21 25.375 Z M 21 15.191406 " clip-rule="nonzero"/></clipPath><clipPath id="df4ed75da8"><path d="M 15.71875 16 L 20 16 L 20 25.375 L 15.71875 25.375 Z M 15.71875 16 " clip-rule="nonzero"/></clipPath><clipPath id="7904f6ae47"><path d="M 10 20 L 12 20 L 12 22 L 10 22 Z M 10 20 " clip-rule="nonzero"/></clipPath><clipPath id="f8b2585a4c"><path d="M 10.101562 23.203125 L 9.6875 20.035156 L 12.855469 19.621094 L 13.269531 22.789062 Z M 10.101562 23.203125 " clip-rule="nonzero"/></clipPath><clipPath id="6c06847834"><path d="M 10.445312 22.140625 L 10.242188 20.574219 L 11.808594 20.367188 L 12.015625 21.9375 Z M 10.445312 22.140625 " clip-rule="nonzero"/></clipPath><clipPath id="ae3e4ab33b"><path d="M 31 20 L 33 20 L 33 22 L 31 22 Z M 31 20 " clip-rule="nonzero"/></clipPath><clipPath id="4d9177c481"><path d="M 33.367188 23.710938 L 33.777344 20.542969 L 30.609375 20.128906 L 30.199219 23.296875 Z M 33.367188 23.710938 " clip-rule="nonzero"/></clipPath><clipPath id="30cb4ab2d3"><path d="M 33.089844 22.140625 L 33.292969 20.574219 L 31.722656 20.367188 L 31.519531 21.9375 Z M 33.089844 22.140625 " clip-rule="nonzero"/></clipPath></defs><path fill="#212245" d="M 10.351562 17.734375 L 12.355469 18.203125 L 12.417969 17.945312 L 10.414062 17.472656 L 10.351562 17.734375 M 11.972656 16.507812 C 12.003906 16.464844 12.035156 16.417969 12.066406 16.367188 C 12.097656 16.316406 12.125 16.257812 12.152344 16.195312 C 12.199219 16.082031 12.222656 15.980469 12.230469 15.882812 C 12.234375 15.785156 12.222656 15.695312 12.191406 15.617188 C 12.160156 15.535156 12.117188 15.46875 12.058594 15.410156 C 12.003906 15.351562 11.933594 15.304688 11.855469 15.273438 C 11.777344 15.242188 11.699219 15.222656 11.621094 15.21875 C 11.539062 15.214844 11.464844 15.230469 11.390625 15.261719 C 11.316406 15.289062 11.25 15.335938 11.1875 15.402344 C 11.125 15.46875 11.070312 15.550781 11.027344 15.65625 L 10.761719 16.292969 L 12.660156 17.082031 L 12.761719 16.835938 L 11.972656 16.507812 M 10.984375 16.09375 L 11.101562 15.808594 C 11.132812 15.734375 11.175781 15.671875 11.226562 15.625 C 11.277344 15.578125 11.332031 15.546875 11.394531 15.527344 C 11.453125 15.507812 11.515625 15.5 11.578125 15.503906 C 11.640625 15.507812 11.699219 15.519531 11.753906 15.542969 C 11.808594 15.566406 11.855469 15.597656 11.902344 15.636719 C 11.949219 15.675781 11.984375 15.722656 12.011719 15.777344 C 12.039062 15.835938 12.054688 15.898438 12.058594 15.96875 C 12.0625 16.035156 12.046875 16.109375 12.011719 16.191406 C 11.988281 16.25 11.964844 16.300781 11.941406 16.34375 C 11.917969 16.390625 11.890625 16.429688 11.859375 16.460938 L 10.984375 16.09375 M 13.582031 14.097656 L 14.242188 14.199219 L 14.398438 13.964844 L 12.15625 13.617188 L 12.074219 13.738281 L 13.304688 15.605469 L 13.378906 15.492188 L 13.019531 14.941406 L 13.582031 14.097656 M 13.4375 14.078125 L 12.9375 14.820312 L 12.351562 13.917969 L 12.355469 13.910156 L 13.4375 14.078125 M 15.089844 13.335938 L 13.753906 11.988281 L 14.316406 11.433594 L 14.203125 11.320312 L 12.890625 12.613281 L 13.003906 12.730469 L 13.566406 12.175781 L 14.898438 13.523438 L 15.089844 13.335938 M 16.523438 11.546875 C 16.5625 11.621094 16.617188 11.679688 16.683594 11.722656 C 16.75 11.765625 16.824219 11.796875 16.910156 11.808594 C 16.992188 11.820312 17.082031 11.816406 17.179688 11.796875 C 17.273438 11.78125 17.371094 11.746094 17.472656 11.695312 C 17.574219 11.644531 17.660156 11.589844 17.730469 11.523438 C 17.796875 11.457031 17.851562 11.386719 17.886719 11.3125 C 17.921875 11.238281 17.9375 11.160156 17.9375 11.082031 C 17.9375 11 17.917969 10.921875 17.878906 10.839844 C 17.824219 10.734375 17.753906 10.65625 17.664062 10.613281 C 17.574219 10.574219 17.476562 10.546875 17.375 10.542969 C 17.269531 10.535156 17.160156 10.542969 17.050781 10.558594 C 16.9375 10.574219 16.832031 10.585938 16.734375 10.589844 C 16.636719 10.59375 16.546875 10.589844 16.46875 10.570312 C 16.394531 10.550781 16.335938 10.503906 16.296875 10.429688 C 16.277344 10.386719 16.265625 10.34375 16.265625 10.296875 C 16.265625 10.25 16.277344 10.207031 16.300781 10.160156 C 16.324219 10.113281 16.355469 10.070312 16.402344 10.027344 C 16.445312 9.984375 16.5 9.945312 16.570312 9.914062 C 16.683594 9.855469 16.792969 9.832031 16.898438 9.839844 C 17 9.847656 17.085938 9.902344 17.152344 10 L 17.328125 9.910156 C 17.285156 9.851562 17.234375 9.804688 17.171875 9.769531 C 17.109375 9.738281 17.039062 9.714844 16.96875 9.707031 C 16.894531 9.699219 16.816406 9.703125 16.734375 9.722656 C 16.65625 9.738281 16.578125 9.765625 16.5 9.804688 C 16.417969 9.84375 16.347656 9.890625 16.285156 9.949219 C 16.222656 10.007812 16.171875 10.070312 16.136719 10.136719 C 16.101562 10.207031 16.085938 10.277344 16.082031 10.355469 C 16.082031 10.433594 16.097656 10.511719 16.136719 10.589844 C 16.191406 10.695312 16.257812 10.765625 16.339844 10.800781 C 16.425781 10.839844 16.519531 10.859375 16.617188 10.859375 C 16.71875 10.863281 16.824219 10.855469 16.933594 10.839844 C 17.039062 10.824219 17.144531 10.8125 17.242188 10.8125 C 17.339844 10.808594 17.429688 10.824219 17.507812 10.851562 C 17.589844 10.878906 17.652344 10.9375 17.695312 11.03125 C 17.753906 11.144531 17.753906 11.25 17.695312 11.34375 C 17.636719 11.4375 17.539062 11.519531 17.402344 11.585938 C 17.292969 11.640625 17.195312 11.671875 17.113281 11.675781 C 17.035156 11.679688 16.964844 11.671875 16.910156 11.648438 C 16.855469 11.625 16.808594 11.59375 16.777344 11.558594 C 16.742188 11.519531 16.71875 11.488281 16.703125 11.460938 L 16.523438 11.546875 M 18.277344 10.144531 C 18.300781 10.25 18.347656 10.359375 18.417969 10.472656 C 18.484375 10.582031 18.574219 10.679688 18.6875 10.761719 C 18.796875 10.847656 18.929688 10.90625 19.082031 10.941406 C 19.234375 10.980469 19.402344 10.976562 19.589844 10.933594 C 19.71875 10.902344 19.832031 10.859375 19.929688 10.804688 C 20.027344 10.75 20.109375 10.683594 20.179688 10.613281 C 20.25 10.539062 20.308594 10.460938 20.355469 10.378906 C 20.398438 10.292969 20.433594 10.210938 20.453125 10.121094 C 20.472656 10.035156 20.484375 9.953125 20.488281 9.867188 C 20.488281 9.785156 20.484375 9.710938 20.464844 9.636719 C 20.441406 9.53125 20.394531 9.421875 20.320312 9.3125 C 20.25 9.199219 20.15625 9.105469 20.039062 9.023438 C 19.925781 8.941406 19.789062 8.882812 19.632812 8.84375 C 19.476562 8.808594 19.304688 8.816406 19.113281 8.859375 C 18.925781 8.902344 18.769531 8.972656 18.648438 9.070312 C 18.53125 9.167969 18.4375 9.28125 18.375 9.402344 C 18.308594 9.523438 18.269531 9.652344 18.257812 9.78125 C 18.246094 9.914062 18.25 10.035156 18.277344 10.144531 M 18.554688 10.078125 C 18.527344 9.945312 18.519531 9.816406 18.53125 9.695312 C 18.546875 9.574219 18.582031 9.464844 18.636719 9.371094 C 18.6875 9.273438 18.757812 9.191406 18.847656 9.125 C 18.933594 9.054688 19.035156 9.007812 19.148438 8.984375 C 19.261719 8.957031 19.371094 8.957031 19.484375 8.976562 C 19.59375 9 19.695312 9.039062 19.789062 9.105469 C 19.882812 9.167969 19.964844 9.25 20.035156 9.351562 C 20.105469 9.453125 20.15625 9.570312 20.1875 9.703125 C 20.21875 9.835938 20.222656 9.964844 20.203125 10.085938 C 20.1875 10.207031 20.148438 10.316406 20.09375 10.414062 C 20.035156 10.511719 19.960938 10.597656 19.871094 10.664062 C 19.78125 10.730469 19.679688 10.777344 19.566406 10.804688 C 19.453125 10.832031 19.34375 10.832031 19.234375 10.8125 C 19.128906 10.789062 19.027344 10.746094 18.9375 10.679688 C 18.847656 10.617188 18.769531 10.535156 18.703125 10.433594 C 18.636719 10.332031 18.585938 10.210938 18.554688 10.078125 M 21.277344 10.644531 L 21.289062 8.585938 L 21.554688 8.589844 L 21.546875 10.484375 L 22.605469 10.488281 L 22.605469 10.652344 L 21.277344 10.644531 M 23.4375 8.679688 L 23.171875 9.914062 C 23.15625 9.996094 23.144531 10.082031 23.136719 10.179688 C 23.132812 10.277344 23.148438 10.375 23.191406 10.46875 C 23.230469 10.5625 23.300781 10.648438 23.402344 10.726562 C 23.503906 10.808594 23.652344 10.867188 23.847656 10.910156 C 23.96875 10.9375 24.082031 10.941406 24.183594 10.921875 C 24.289062 10.90625 24.378906 10.871094 24.457031 10.816406 C 24.535156 10.761719 24.601562 10.695312 24.652344 10.613281 C 24.707031 10.53125 24.742188 10.441406 24.765625 10.339844 L 25.046875 9.027344 L 24.921875 9 L 24.65625 10.214844 C 24.648438 10.257812 24.640625 10.300781 24.628906 10.34375 C 24.617188 10.386719 24.601562 10.429688 24.582031 10.46875 C 24.5625 10.511719 24.539062 10.550781 24.511719 10.585938 C 24.480469 10.625 24.441406 10.660156 24.394531 10.695312 C 24.308594 10.753906 24.222656 10.789062 24.128906 10.796875 C 24.039062 10.804688 23.945312 10.800781 23.851562 10.777344 C 23.769531 10.761719 23.703125 10.734375 23.644531 10.695312 C 23.589844 10.65625 23.539062 10.605469 23.492188 10.542969 C 23.457031 10.496094 23.429688 10.453125 23.417969 10.40625 C 23.402344 10.363281 23.394531 10.324219 23.390625 10.285156 C 23.386719 10.242188 23.386719 10.203125 23.394531 10.164062 C 23.402344 10.125 23.40625 10.089844 23.417969 10.050781 L 23.699219 8.738281 L 23.4375 8.679688 M 25.925781 11.589844 L 26.71875 9.867188 L 27.433594 10.199219 L 27.503906 10.050781 L 25.828125 9.277344 L 25.761719 9.425781 L 26.476562 9.753906 L 25.683594 11.476562 L 25.925781 11.589844 M 28.296875 10.582031 L 27.128906 12.277344 L 27.351562 12.425781 L 28.519531 10.734375 L 28.296875 10.582031 M 28.683594 12.085938 C 28.605469 12.164062 28.535156 12.257812 28.472656 12.375 C 28.414062 12.492188 28.375 12.621094 28.363281 12.757812 C 28.347656 12.894531 28.363281 13.039062 28.410156 13.1875 C 28.457031 13.335938 28.546875 13.480469 28.679688 13.621094 C 28.773438 13.714844 28.867188 13.789062 28.964844 13.84375 C 29.058594 13.898438 29.160156 13.9375 29.257812 13.960938 C 29.355469 13.984375 29.453125 13.996094 29.546875 13.992188 C 29.640625 13.984375 29.734375 13.972656 29.816406 13.945312 C 29.902344 13.917969 29.980469 13.886719 30.054688 13.84375 C 30.125 13.804688 30.1875 13.757812 30.238281 13.707031 C 30.320312 13.632812 30.386719 13.535156 30.445312 13.417969 C 30.503906 13.296875 30.539062 13.167969 30.550781 13.027344 C 30.5625 12.886719 30.542969 12.738281 30.492188 12.585938 C 30.445312 12.433594 30.351562 12.289062 30.214844 12.148438 C 30.082031 12.007812 29.941406 11.910156 29.796875 11.859375 C 29.648438 11.804688 29.507812 11.78125 29.371094 11.789062 C 29.230469 11.796875 29.101562 11.828125 28.984375 11.886719 C 28.863281 11.941406 28.761719 12.007812 28.683594 12.085938 M 28.882812 12.292969 C 28.980469 12.199219 29.085938 12.128906 29.199219 12.078125 C 29.308594 12.027344 29.421875 12.003906 29.53125 12 C 29.640625 11.996094 29.75 12.011719 29.851562 12.054688 C 29.953125 12.09375 30.046875 12.15625 30.125 12.242188 C 30.207031 12.324219 30.265625 12.417969 30.304688 12.523438 C 30.339844 12.628906 30.359375 12.742188 30.351562 12.851562 C 30.347656 12.964844 30.316406 13.078125 30.265625 13.191406 C 30.214844 13.300781 30.140625 13.40625 30.039062 13.5 C 29.941406 13.59375 29.835938 13.667969 29.722656 13.714844 C 29.609375 13.761719 29.492188 13.785156 29.382812 13.785156 C 29.269531 13.785156 29.160156 13.765625 29.054688 13.722656 C 28.949219 13.679688 28.859375 13.617188 28.777344 13.535156 C 28.695312 13.449219 28.636719 13.355469 28.601562 13.253906 C 28.566406 13.148438 28.550781 13.042969 28.5625 12.929688 C 28.570312 12.820312 28.601562 12.710938 28.652344 12.601562 C 28.707031 12.492188 28.785156 12.390625 28.882812 12.292969 M 32.414062 15.386719 L 31.03125 16.132812 L 31.027344 16.125 L 31.664062 13.925781 L 31.65625 13.910156 L 29.816406 14.90625 L 29.878906 15.027344 L 31.261719 14.277344 L 31.269531 14.289062 L 30.632812 16.488281 L 30.636719 16.5 L 32.480469 15.503906 L 32.414062 15.386719 M 31.363281 16.851562 C 31.28125 16.878906 31.214844 16.917969 31.15625 16.976562 C 31.101562 17.03125 31.058594 17.101562 31.03125 17.179688 C 31.003906 17.261719 30.988281 17.347656 30.988281 17.445312 C 30.988281 17.542969 31 17.648438 31.03125 17.753906 C 31.058594 17.863281 31.101562 17.960938 31.152344 18.039062 C 31.199219 18.121094 31.257812 18.1875 31.324219 18.234375 C 31.390625 18.285156 31.464844 18.316406 31.542969 18.332031 C 31.621094 18.347656 31.703125 18.34375 31.789062 18.320312 C 31.90625 18.289062 31.996094 18.234375 32.054688 18.15625 C 32.113281 18.074219 32.15625 17.984375 32.179688 17.882812 C 32.207031 17.78125 32.222656 17.675781 32.230469 17.5625 C 32.234375 17.449219 32.246094 17.34375 32.261719 17.246094 C 32.273438 17.148438 32.296875 17.0625 32.332031 16.992188 C 32.363281 16.921875 32.421875 16.875 32.503906 16.851562 C 32.550781 16.839844 32.59375 16.835938 32.640625 16.847656 C 32.683594 16.855469 32.726562 16.875 32.765625 16.90625 C 32.804688 16.9375 32.84375 16.980469 32.875 17.03125 C 32.910156 17.082031 32.9375 17.144531 32.957031 17.21875 C 32.988281 17.34375 32.992188 17.453125 32.960938 17.554688 C 32.933594 17.652344 32.867188 17.726562 32.757812 17.773438 L 32.8125 17.964844 C 32.878906 17.933594 32.933594 17.890625 32.980469 17.835938 C 33.023438 17.78125 33.058594 17.71875 33.078125 17.648438 C 33.101562 17.578125 33.113281 17.5 33.113281 17.417969 C 33.113281 17.335938 33.101562 17.253906 33.078125 17.171875 C 33.054688 17.085938 33.019531 17.003906 32.976562 16.933594 C 32.933594 16.859375 32.878906 16.800781 32.820312 16.75 C 32.761719 16.703125 32.695312 16.671875 32.617188 16.65625 C 32.542969 16.636719 32.460938 16.640625 32.375 16.664062 C 32.265625 16.695312 32.183594 16.746094 32.128906 16.820312 C 32.078125 16.898438 32.039062 16.984375 32.019531 17.082031 C 31.996094 17.179688 31.980469 17.285156 31.976562 17.390625 C 31.972656 17.5 31.960938 17.605469 31.941406 17.703125 C 31.925781 17.796875 31.894531 17.882812 31.851562 17.957031 C 31.808594 18.027344 31.738281 18.078125 31.640625 18.105469 C 31.515625 18.136719 31.414062 18.117188 31.332031 18.042969 C 31.253906 17.96875 31.191406 17.855469 31.152344 17.707031 C 31.121094 17.585938 31.109375 17.488281 31.121094 17.40625 C 31.132812 17.328125 31.15625 17.261719 31.1875 17.214844 C 31.222656 17.164062 31.261719 17.125 31.300781 17.101562 C 31.34375 17.074219 31.382812 17.054688 31.414062 17.046875 L 31.363281 16.851562 " fill-opacity="1" fill-rule="nonzero"/><path fill="#64c6c4" d="M 12.089844 24.921875 L 11.832031 24.339844 L 11.476562 24.359375 L 11.414062 24.226562 L 12.894531 24.132812 L 12.957031 24.277344 L 11.894531 25.308594 L 11.835938 25.171875 L 12.089844 24.921875 M 12.179688 24.835938 L 12.761719 24.273438 L 11.957031 24.328125 L 12.179688 24.835938 M 12.691406 26.628906 L 12.617188 26.507812 L 13.203125 25.21875 L 12.199219 25.847656 L 12.125 25.730469 L 13.316406 24.980469 L 13.390625 25.097656 L 12.804688 26.386719 L 13.804688 25.757812 L 13.882812 25.878906 L 12.691406 26.628906 M 14.585938 26.738281 L 13.535156 27.667969 L 13.441406 27.5625 L 14.492188 26.632812 L 14.585938 26.738281 M 14.921875 28.054688 C 14.8125 28.054688 14.703125 28 14.585938 27.890625 L 14.378906 27.695312 L 13.96875 28.132812 L 13.867188 28.035156 L 14.832031 27.011719 L 15.140625 27.304688 C 15.253906 27.414062 15.316406 27.523438 15.324219 27.628906 C 15.332031 27.738281 15.292969 27.835938 15.207031 27.925781 C 15.125 28.011719 15.03125 28.058594 14.921875 28.054688 M 15.101562 27.828125 C 15.167969 27.757812 15.199219 27.6875 15.191406 27.617188 C 15.1875 27.546875 15.144531 27.472656 15.058594 27.390625 L 14.855469 27.195312 L 14.464844 27.609375 L 14.667969 27.804688 C 14.828125 27.957031 14.972656 27.960938 15.101562 27.828125 M 16.03125 28.480469 C 16.140625 28.417969 16.257812 28.390625 16.378906 28.390625 C 16.5 28.394531 16.613281 28.429688 16.722656 28.496094 C 16.859375 28.578125 16.953125 28.683594 17.007812 28.804688 C 17.066406 28.925781 17.082031 29.058594 17.050781 29.199219 L 16.910156 29.113281 C 16.925781 29.011719 16.914062 28.914062 16.871094 28.828125 C 16.828125 28.738281 16.757812 28.664062 16.660156 28.601562 C 16.570312 28.546875 16.480469 28.519531 16.382812 28.515625 C 16.289062 28.515625 16.199219 28.539062 16.109375 28.59375 C 16.023438 28.644531 15.949219 28.722656 15.882812 28.824219 C 15.820312 28.925781 15.789062 29.027344 15.78125 29.128906 C 15.773438 29.230469 15.792969 29.324219 15.835938 29.40625 C 15.882812 29.492188 15.949219 29.5625 16.035156 29.613281 C 16.136719 29.675781 16.234375 29.707031 16.332031 29.703125 C 16.429688 29.703125 16.519531 29.671875 16.605469 29.613281 L 16.746094 29.699219 C 16.632812 29.785156 16.507812 29.832031 16.371094 29.835938 C 16.238281 29.839844 16.105469 29.800781 15.972656 29.71875 C 15.863281 29.652344 15.777344 29.566406 15.722656 29.457031 C 15.664062 29.351562 15.640625 29.234375 15.644531 29.109375 C 15.648438 28.988281 15.6875 28.867188 15.761719 28.75 C 15.832031 28.628906 15.925781 28.542969 16.03125 28.480469 M 17.324219 30.335938 C 17.25 30.238281 17.203125 30.128906 17.1875 30.003906 C 17.171875 29.878906 17.191406 29.753906 17.242188 29.625 C 17.296875 29.5 17.371094 29.394531 17.46875 29.316406 C 17.566406 29.238281 17.675781 29.191406 17.796875 29.171875 C 17.917969 29.15625 18.039062 29.171875 18.160156 29.222656 C 18.28125 29.269531 18.378906 29.34375 18.453125 29.4375 C 18.53125 29.535156 18.574219 29.644531 18.589844 29.769531 C 18.605469 29.894531 18.585938 30.019531 18.535156 30.148438 C 18.484375 30.277344 18.410156 30.378906 18.3125 30.457031 C 18.214844 30.535156 18.105469 30.585938 17.984375 30.601562 C 17.863281 30.617188 17.742188 30.601562 17.621094 30.554688 C 17.5 30.503906 17.402344 30.433594 17.324219 30.335938 M 17.953125 30.476562 C 18.050781 30.464844 18.136719 30.425781 18.214844 30.359375 C 18.292969 30.292969 18.355469 30.203125 18.402344 30.09375 C 18.445312 29.984375 18.460938 29.875 18.449219 29.773438 C 18.441406 29.671875 18.40625 29.585938 18.34375 29.507812 C 18.285156 29.433594 18.207031 29.375 18.113281 29.335938 C 18.015625 29.296875 17.917969 29.285156 17.824219 29.296875 C 17.726562 29.3125 17.640625 29.351562 17.5625 29.417969 C 17.484375 29.480469 17.421875 29.570312 17.378906 29.679688 C 17.332031 29.792969 17.316406 29.898438 17.328125 30 C 17.339844 30.101562 17.371094 30.191406 17.433594 30.265625 C 17.492188 30.34375 17.570312 30.398438 17.667969 30.4375 C 17.761719 30.480469 17.859375 30.492188 17.953125 30.476562 M 19.820312 31.183594 L 19.679688 31.152344 L 19.1875 29.828125 L 18.921875 30.980469 L 18.785156 30.949219 L 19.097656 29.578125 L 19.234375 29.609375 L 19.730469 30.933594 L 19.996094 29.78125 L 20.132812 29.8125 L 19.820312 31.183594 M 20.5625 31.246094 C 20.492188 31.207031 20.441406 31.160156 20.40625 31.097656 C 20.371094 31.035156 20.355469 30.972656 20.359375 30.898438 L 20.507812 30.914062 C 20.507812 30.980469 20.535156 31.042969 20.582031 31.101562 C 20.632812 31.15625 20.707031 31.1875 20.8125 31.199219 C 20.90625 31.207031 20.984375 31.1875 21.042969 31.144531 C 21.101562 31.101562 21.136719 31.042969 21.140625 30.96875 C 21.148438 30.90625 21.136719 30.855469 21.109375 30.816406 C 21.082031 30.777344 21.046875 30.746094 21.003906 30.726562 C 20.957031 30.703125 20.898438 30.679688 20.820312 30.648438 C 20.726562 30.617188 20.65625 30.585938 20.601562 30.554688 C 20.550781 30.527344 20.507812 30.484375 20.472656 30.429688 C 20.4375 30.375 20.425781 30.304688 20.433594 30.21875 C 20.4375 30.148438 20.464844 30.085938 20.507812 30.03125 C 20.546875 29.976562 20.605469 29.9375 20.675781 29.910156 C 20.746094 29.886719 20.828125 29.875 20.914062 29.882812 C 21.042969 29.894531 21.148438 29.9375 21.21875 30.007812 C 21.292969 30.078125 21.332031 30.164062 21.335938 30.265625 L 21.183594 30.25 C 21.179688 30.195312 21.152344 30.140625 21.101562 30.089844 C 21.054688 30.039062 20.984375 30.011719 20.890625 30.003906 C 20.808594 29.996094 20.734375 30.011719 20.675781 30.050781 C 20.617188 30.09375 20.582031 30.152344 20.574219 30.226562 C 20.570312 30.285156 20.582031 30.335938 20.609375 30.375 C 20.636719 30.414062 20.671875 30.445312 20.71875 30.46875 C 20.761719 30.488281 20.820312 30.515625 20.898438 30.542969 C 20.988281 30.578125 21.058594 30.609375 21.113281 30.636719 C 21.167969 30.667969 21.210938 30.710938 21.246094 30.765625 C 21.28125 30.820312 21.292969 30.886719 21.285156 30.972656 C 21.28125 31.039062 21.257812 31.101562 21.214844 31.15625 C 21.175781 31.210938 21.121094 31.253906 21.050781 31.285156 C 20.976562 31.316406 20.894531 31.324219 20.800781 31.316406 C 20.707031 31.308594 20.628906 31.285156 20.5625 31.246094 M 21.835938 29.945312 L 21.875 30.828125 C 21.882812 30.96875 21.917969 31.070312 21.988281 31.136719 C 22.058594 31.199219 22.148438 31.226562 22.265625 31.222656 C 22.378906 31.21875 22.46875 31.179688 22.53125 31.109375 C 22.59375 31.042969 22.621094 30.9375 22.613281 30.796875 L 22.574219 29.910156 L 22.714844 29.90625 L 22.753906 30.789062 C 22.761719 30.964844 22.722656 31.101562 22.632812 31.195312 C 22.542969 31.289062 22.421875 31.339844 22.269531 31.347656 C 22.117188 31.355469 21.992188 31.316406 21.894531 31.230469 C 21.796875 31.144531 21.742188 31.011719 21.734375 30.835938 L 21.695312 29.953125 L 21.835938 29.945312 M 23.425781 31.105469 L 23.925781 31.023438 L 23.941406 31.136719 L 23.304688 31.242188 L 23.078125 29.851562 L 23.214844 29.828125 L 23.425781 31.105469 M 24.753906 29.476562 L 24.785156 29.589844 L 24.410156 29.691406 L 24.75 30.9375 L 24.613281 30.972656 L 24.273438 29.730469 L 23.894531 29.832031 L 23.863281 29.71875 L 24.753906 29.476562 M 25.140625 29.328125 L 25.625 30.652344 L 25.492188 30.699219 L 25.011719 29.378906 L 25.140625 29.328125 M 27.058594 30.011719 L 26.933594 30.074219 L 25.714844 29.347656 L 26.230469 30.410156 L 26.105469 30.472656 L 25.492188 29.207031 L 25.621094 29.144531 L 26.835938 29.871094 L 26.320312 28.804688 L 26.449219 28.746094 L 27.058594 30.011719 M 27.914062 28.265625 C 27.828125 28.214844 27.738281 28.1875 27.640625 28.191406 C 27.542969 28.195312 27.445312 28.230469 27.355469 28.292969 C 27.269531 28.355469 27.207031 28.425781 27.167969 28.515625 C 27.125 28.601562 27.109375 28.695312 27.121094 28.796875 C 27.132812 28.898438 27.171875 28.996094 27.242188 29.09375 C 27.308594 29.191406 27.386719 29.261719 27.476562 29.308594 C 27.570312 29.355469 27.664062 29.371094 27.757812 29.363281 C 27.855469 29.355469 27.945312 29.324219 28.03125 29.261719 C 28.113281 29.207031 28.171875 29.140625 28.210938 29.058594 C 28.253906 28.980469 28.269531 28.894531 28.265625 28.804688 C 28.257812 28.710938 28.226562 28.621094 28.171875 28.53125 L 27.6875 28.871094 L 27.621094 28.777344 L 28.230469 28.351562 L 28.289062 28.4375 C 28.355469 28.542969 28.390625 28.652344 28.398438 28.769531 C 28.40625 28.886719 28.382812 28.996094 28.335938 29.101562 C 28.285156 29.207031 28.207031 29.296875 28.105469 29.367188 C 27.996094 29.441406 27.882812 29.484375 27.761719 29.496094 C 27.640625 29.503906 27.523438 29.484375 27.410156 29.429688 C 27.296875 29.375 27.199219 29.289062 27.121094 29.175781 C 27.042969 29.0625 26.996094 28.945312 26.984375 28.820312 C 26.972656 28.695312 26.992188 28.578125 27.042969 28.464844 C 27.097656 28.355469 27.175781 28.261719 27.28125 28.1875 C 27.40625 28.101562 27.535156 28.058594 27.671875 28.054688 C 27.804688 28.050781 27.933594 28.089844 28.050781 28.171875 L 27.914062 28.265625 M 29.046875 26.640625 L 29.128906 26.71875 L 28.703125 27.167969 L 29.082031 27.53125 L 29.445312 27.152344 L 29.527344 27.234375 L 29.167969 27.613281 L 29.636719 28.058594 L 29.539062 28.160156 L 28.519531 27.191406 L 29.046875 26.640625 M 29.308594 26.308594 L 30.402344 27.195312 L 30.3125 27.304688 L 29.222656 26.417969 L 29.308594 26.308594 M 31.128906 26.183594 L 30.445312 26.144531 L 30.300781 26.363281 L 30.789062 26.6875 L 30.710938 26.804688 L 29.542969 26.023438 L 29.777344 25.671875 C 29.867188 25.539062 29.964844 25.460938 30.070312 25.4375 C 30.179688 25.410156 30.285156 25.433594 30.386719 25.5 C 30.46875 25.558594 30.523438 25.628906 30.550781 25.71875 C 30.578125 25.808594 30.570312 25.90625 30.523438 26.011719 L 31.222656 26.042969 L 31.128906 26.183594 M 30.207031 26.296875 L 30.363281 26.0625 C 30.425781 25.96875 30.449219 25.886719 30.4375 25.8125 C 30.421875 25.734375 30.378906 25.671875 30.304688 25.621094 C 30.226562 25.570312 30.152344 25.550781 30.082031 25.570312 C 30.007812 25.585938 29.941406 25.640625 29.878906 25.738281 L 29.71875 25.972656 L 30.207031 26.296875 M 30.820312 23.753906 L 32.078125 24.34375 L 32.019531 24.46875 L 31.015625 24 L 31.8125 24.917969 L 31.765625 25.011719 L 30.554688 24.992188 L 31.558594 25.460938 L 31.5 25.585938 L 30.238281 25 L 30.304688 24.863281 L 31.621094 24.886719 L 30.757812 23.890625 L 30.820312 23.753906 " fill-opacity="1" fill-rule="nonzero"/><g clip-path="url(#f9ae326471)"><path fill="#64c6c4" d="M 21.015625 25.132812 L 21.015625 15.84375 L 20.3125 15.636719 L 20.3125 25.164062 Z M 21.015625 25.132812 " fill-opacity="1" fill-rule="evenodd"/></g><g clip-path="url(#b6916664a7)"><path fill="#a4cb6a" d="M 20.121094 25.175781 L 20.121094 16.25 L 19.566406 16.109375 L 19.566406 25.199219 Z M 20.121094 25.175781 " fill-opacity="1" fill-rule="evenodd"/></g><g clip-path="url(#11e0180b4e)"><path fill="#212245" d="M 24.125 24.925781 L 24.125 25.207031 L 24.550781 25.226562 L 27.816406 25.375 L 24.550781 24.980469 L 24.550781 16.332031 L 24.125 16.183594 L 23.121094 15.835938 L 21.929688 15.421875 L 21.265625 15.191406 L 21.265625 25.121094 L 21.929688 25.089844 L 21.929688 16.1875 L 23.121094 16.535156 L 24.125 16.828125 Z M 24.125 24.925781 " fill-opacity="1" fill-rule="evenodd"/></g><g clip-path="url(#df4ed75da8)"><path fill="#dceac6" d="M 19.410156 24.925781 L 19.410156 25.207031 L 15.71875 25.375 L 18.960938 24.980469 L 18.960938 16.492188 L 19.410156 16.59375 Z M 19.410156 24.925781 " fill-opacity="1" fill-rule="evenodd"/></g><path fill="#212245" d="M 13.03125 20.285156 C 13.03125 19.710938 13.085938 19.144531 13.199219 18.582031 C 13.308594 18.019531 13.476562 17.472656 13.695312 16.941406 C 13.914062 16.410156 14.183594 15.910156 14.503906 15.429688 C 14.820312 14.953125 15.183594 14.511719 15.589844 14.109375 C 15.996094 13.703125 16.4375 13.339844 16.914062 13.023438 C 17.390625 12.703125 17.894531 12.433594 18.425781 12.214844 C 18.953125 11.996094 19.5 11.828125 20.0625 11.71875 C 20.625 11.605469 21.195312 11.550781 21.765625 11.550781 C 22.339844 11.550781 22.910156 11.605469 23.472656 11.71875 C 24.035156 11.828125 24.582031 11.996094 25.109375 12.214844 C 25.640625 12.433594 26.144531 12.703125 26.621094 13.023438 C 27.097656 13.339844 27.539062 13.703125 27.945312 14.109375 C 28.351562 14.511719 28.710938 14.953125 29.03125 15.429688 C 29.351562 15.910156 29.621094 16.410156 29.839844 16.941406 C 30.058594 17.472656 30.226562 18.019531 30.335938 18.582031 C 30.449219 19.144531 30.503906 19.710938 30.503906 20.285156 C 30.503906 20.859375 30.449219 21.425781 30.335938 21.988281 C 30.226562 22.550781 30.058594 23.097656 29.839844 23.628906 C 29.621094 24.15625 29.351562 24.660156 29.03125 25.136719 C 28.710938 25.613281 28.351562 26.054688 27.945312 26.460938 C 27.539062 26.867188 27.097656 27.230469 26.621094 27.546875 C 26.144531 27.867188 25.640625 28.136719 25.109375 28.355469 C 24.582031 28.574219 24.035156 28.738281 23.472656 28.851562 C 22.910156 28.964844 22.339844 29.019531 21.765625 29.019531 C 21.195312 29.019531 20.625 28.964844 20.0625 28.851562 C 19.5 28.738281 18.953125 28.574219 18.425781 28.355469 C 17.894531 28.136719 17.390625 27.867188 16.914062 27.546875 C 16.4375 27.230469 15.996094 26.867188 15.589844 26.460938 C 15.183594 26.054688 14.820312 25.613281 14.503906 25.136719 C 14.183594 24.660156 13.914062 24.15625 13.695312 23.628906 C 13.476562 23.097656 13.308594 22.550781 13.199219 21.988281 C 13.085938 21.425781 13.03125 20.859375 13.03125 20.285156 Z M 13.109375 20.285156 C 13.109375 20.851562 13.164062 21.417969 13.277344 21.972656 C 13.386719 22.53125 13.550781 23.074219 13.769531 23.597656 C 13.984375 24.121094 14.253906 24.621094 14.570312 25.09375 C 14.882812 25.566406 15.242188 26.003906 15.644531 26.40625 C 16.046875 26.808594 16.484375 27.167969 16.957031 27.484375 C 17.429688 27.800781 17.929688 28.066406 18.453125 28.285156 C 18.980469 28.5 19.519531 28.664062 20.078125 28.777344 C 20.636719 28.886719 21.199219 28.941406 21.765625 28.941406 C 22.335938 28.941406 22.898438 28.886719 23.457031 28.777344 C 24.015625 28.664062 24.554688 28.5 25.082031 28.285156 C 25.605469 28.066406 26.105469 27.800781 26.578125 27.484375 C 27.050781 27.167969 27.488281 26.808594 27.890625 26.40625 C 28.292969 26.003906 28.652344 25.566406 28.964844 25.09375 C 29.28125 24.621094 29.546875 24.121094 29.765625 23.597656 C 29.984375 23.074219 30.148438 22.53125 30.257812 21.972656 C 30.371094 21.417969 30.425781 20.851562 30.425781 20.285156 C 30.425781 19.714844 30.371094 19.152344 30.257812 18.59375 C 30.148438 18.039062 29.984375 17.496094 29.765625 16.972656 C 29.546875 16.445312 29.28125 15.945312 28.964844 15.472656 C 28.652344 15 28.292969 14.566406 27.890625 14.164062 C 27.488281 13.761719 27.050781 13.402344 26.578125 13.085938 C 26.105469 12.769531 25.605469 12.503906 25.082031 12.285156 C 24.554688 12.066406 24.015625 11.902344 23.457031 11.792969 C 22.898438 11.683594 22.335938 11.625 21.765625 11.625 C 21.199219 11.625 20.636719 11.683594 20.078125 11.792969 C 19.519531 11.902344 18.980469 12.066406 18.453125 12.285156 C 17.929688 12.503906 17.429688 12.769531 16.957031 13.085938 C 16.484375 13.402344 16.046875 13.761719 15.644531 14.164062 C 15.242188 14.566406 14.882812 15 14.570312 15.472656 C 14.253906 15.945312 13.984375 16.445312 13.769531 16.972656 C 13.550781 17.496094 13.386719 18.039062 13.277344 18.59375 C 13.164062 19.152344 13.109375 19.714844 13.109375 20.285156 Z M 13.109375 20.285156 " fill-opacity="1" fill-rule="nonzero"/><path fill="#212245" d="M 8.761719 20.285156 C 8.761719 19.429688 8.847656 18.585938 9.011719 17.746094 C 9.179688 16.910156 9.425781 16.097656 9.753906 15.308594 C 10.078125 14.519531 10.480469 13.769531 10.953125 13.058594 C 11.429688 12.347656 11.96875 11.691406 12.570312 11.089844 C 13.175781 10.484375 13.832031 9.945312 14.542969 9.472656 C 15.253906 8.996094 16 8.597656 16.789062 8.269531 C 17.578125 7.941406 18.394531 7.695312 19.230469 7.53125 C 20.066406 7.363281 20.914062 7.28125 21.765625 7.28125 C 22.621094 7.28125 23.46875 7.363281 24.304688 7.53125 C 25.140625 7.695312 25.957031 7.941406 26.746094 8.269531 C 27.53125 8.597656 28.28125 8.996094 28.992188 9.472656 C 29.703125 9.945312 30.359375 10.484375 30.964844 11.089844 C 31.566406 11.691406 32.105469 12.347656 32.582031 13.058594 C 33.054688 13.769531 33.457031 14.519531 33.78125 15.308594 C 34.109375 16.097656 34.355469 16.910156 34.523438 17.746094 C 34.6875 18.585938 34.773438 19.429688 34.773438 20.285156 C 34.773438 21.136719 34.6875 21.984375 34.523438 22.820312 C 34.355469 23.660156 34.109375 24.472656 33.78125 25.261719 C 33.457031 26.050781 33.054688 26.800781 32.582031 27.507812 C 32.105469 28.21875 31.566406 28.875 30.964844 29.480469 C 30.359375 30.085938 29.703125 30.625 28.992188 31.097656 C 28.28125 31.570312 27.53125 31.972656 26.746094 32.300781 C 25.957031 32.625 25.140625 32.871094 24.304688 33.039062 C 23.46875 33.207031 22.621094 33.289062 21.765625 33.289062 C 20.914062 33.289062 20.066406 33.207031 19.230469 33.039062 C 18.394531 32.871094 17.578125 32.625 16.789062 32.300781 C 16 31.972656 15.253906 31.570312 14.542969 31.097656 C 13.832031 30.625 13.175781 30.085938 12.570312 29.480469 C 11.96875 28.875 11.429688 28.21875 10.953125 27.507812 C 10.480469 26.800781 10.078125 26.050781 9.753906 25.261719 C 9.425781 24.472656 9.179688 23.660156 9.011719 22.820312 C 8.847656 21.984375 8.761719 21.136719 8.761719 20.285156 Z M 8.84375 20.285156 C 8.84375 21.132812 8.925781 21.972656 9.089844 22.804688 C 9.257812 23.636719 9.5 24.445312 9.828125 25.230469 C 10.152344 26.015625 10.550781 26.757812 11.019531 27.464844 C 11.492188 28.171875 12.027344 28.824219 12.628906 29.425781 C 13.226562 30.023438 13.882812 30.558594 14.585938 31.03125 C 15.292969 31.503906 16.039062 31.902344 16.820312 32.226562 C 17.605469 32.550781 18.414062 32.796875 19.246094 32.960938 C 20.078125 33.125 20.917969 33.210938 21.765625 33.210938 C 22.617188 33.210938 23.457031 33.125 24.289062 32.960938 C 25.121094 32.796875 25.929688 32.550781 26.714844 32.226562 C 27.496094 31.902344 28.242188 31.503906 28.949219 31.03125 C 29.652344 30.558594 30.308594 30.023438 30.90625 29.425781 C 31.507812 28.824219 32.042969 28.171875 32.515625 27.464844 C 32.984375 26.757812 33.382812 26.015625 33.707031 25.230469 C 34.035156 24.445312 34.277344 23.636719 34.445312 22.804688 C 34.609375 21.972656 34.691406 21.132812 34.691406 20.285156 C 34.691406 19.4375 34.609375 18.59375 34.445312 17.761719 C 34.277344 16.929688 34.035156 16.121094 33.707031 15.339844 C 33.382812 14.554688 32.984375 13.808594 32.515625 13.105469 C 32.042969 12.398438 31.507812 11.746094 30.90625 11.144531 C 30.308594 10.546875 29.652344 10.007812 28.949219 9.539062 C 28.242188 9.066406 27.496094 8.667969 26.714844 8.34375 C 25.929688 8.019531 25.121094 7.773438 24.289062 7.609375 C 23.457031 7.441406 22.617188 7.359375 21.765625 7.359375 C 20.917969 7.359375 20.078125 7.441406 19.246094 7.609375 C 18.414062 7.773438 17.605469 8.019531 16.820312 8.34375 C 16.039062 8.667969 15.292969 9.066406 14.585938 9.539062 C 13.882812 10.007812 13.226562 10.546875 12.628906 11.144531 C 12.027344 11.746094 11.492188 12.398438 11.019531 13.105469 C 10.550781 13.808594 10.152344 14.554688 9.828125 15.339844 C 9.5 16.121094 9.257812 16.929688 9.089844 17.761719 C 8.925781 18.59375 8.84375 19.4375 8.84375 20.285156 Z M 8.84375 20.285156 " fill-opacity="1" fill-rule="nonzero"/><g clip-path="url(#7904f6ae47)"><g clip-path="url(#f8b2585a4c)"><g clip-path="url(#6c06847834)"><path fill="#212245" d="M 11.671875 21.195312 L 11.671875 21.171875 L 11.269531 21.15625 L 11.359375 20.765625 L 11.339844 20.757812 L 11.125 21.097656 L 10.832031 20.824219 L 10.8125 20.835938 L 11 21.191406 L 10.617188 21.3125 L 10.617188 21.332031 L 11.019531 21.347656 L 10.933594 21.742188 L 10.953125 21.75 L 11.164062 21.410156 L 11.460938 21.683594 L 11.476562 21.667969 L 11.289062 21.3125 Z M 11.671875 21.195312 " fill-opacity="1" fill-rule="nonzero"/></g></g></g><g clip-path="url(#ae3e4ab33b)"><g clip-path="url(#4d9177c481)"><g clip-path="url(#30cb4ab2d3)"><path fill="#212245" d="M 31.859375 21.195312 L 31.863281 21.171875 L 32.265625 21.15625 L 32.171875 20.765625 L 32.195312 20.757812 L 32.410156 21.097656 L 32.703125 20.824219 L 32.71875 20.835938 L 32.535156 21.191406 L 32.917969 21.308594 L 32.914062 21.332031 L 32.511719 21.347656 L 32.601562 21.738281 L 32.582031 21.746094 L 32.367188 21.410156 L 32.074219 21.679688 L 32.054688 21.667969 L 32.242188 21.3125 Z M 31.859375 21.195312 " fill-opacity="1" fill-rule="nonzero"/></g></g></g><g fill="#ff5055" fill-opacity="0.302"><g transform="translate(42.595647, 30.686822)"><g><path d="M 1.15625 -0.703125 L 1.390625 -0.1875 L 1.875 -0.03125 L 9 0.03125 L 9.453125 -0.21875 L 9.71875 -0.640625 L 9.71875 -1.171875 L 9.671875 -1.609375 L 9.734375 -3.0625 L 9.40625 -3.484375 L 7.796875 -3.984375 L 7.53125 -4.46875 L 7.578125 -6.421875 L 7.484375 -7.390625 L 7.578125 -8.390625 L 7.53125 -9.109375 L 7.578125 -9.859375 L 7.53125 -10.3125 L 7.578125 -10.796875 L 7.53125 -11.296875 L 7.53125 -12.296875 L 7.796875 -12.734375 L 8.25 -13 L 8.78125 -13.03125 L 9.234375 -13.28125 L 9.5 -13.75 L 9.5 -15.15625 L 9.546875 -15.59375 L 9.5 -16.0625 L 9.3125 -16.546875 L 8.53125 -16.765625 L 5.5 -16.796875 L 4.96875 -16.734375 L 3.5 -16.765625 L 3.046875 -16.734375 L 2.109375 -16.796875 L 1.578125 -16.546875 L 1.3125 -16.046875 L 1.3125 -15.59375 L 1.265625 -15.1875 L 1.265625 -14.65625 L 1.3125 -14.171875 L 1.3125 -13.71875 L 1.5625 -13.265625 L 3.015625 -12.765625 L 3.328125 -12.328125 L 3.265625 -10.296875 L 3.28125 -9.875 L 3.359375 -9.328125 L 3.328125 -8.34375 L 3.28125 -7.859375 L 3.375 -6.9375 L 3.265625 -6.453125 L 3.359375 -5.421875 L 3.3125 -4.484375 L 3.0625 -3.953125 L 1.484375 -3.453125 L 1.203125 -3 L 1.15625 -2.546875 Z M 8.171875 -5.03125 L 8.34375 -4.5625 L 8.875 -4.53125 L 9.0625 -5.015625 L 9.140625 -7.9375 L 9.0625 -8.34375 L 9.109375 -8.828125 L 9.0625 -9.8125 L 9.140625 -10.75 L 9.3125 -11.265625 L 9.78125 -11.515625 L 10.34375 -11.484375 L 10.796875 -11.65625 L 11.03125 -12.140625 L 10.984375 -14.03125 L 11.03125 -14.515625 L 10.765625 -14.9375 L 10.359375 -14.96875 L 10.125 -14.5625 L 10.078125 -13.53125 L 10.09375 -13.09375 L 9.875 -12.640625 L 9.375 -12.40625 L 8.875 -12.421875 L 8.421875 -12.203125 L 8.125 -11.703125 L 8.171875 -9.328125 L 8.078125 -8.640625 L 8.171875 -7.921875 Z M 2.96875 0.8125 L 2.96875 1.34375 L 3.40625 1.609375 L 3.90625 1.5625 L 4.390625 1.625 L 4.890625 1.5625 L 10.296875 1.5625 L 10.984375 1.390625 L 11.21875 0.90625 L 11.125 -0.28125 L 11.21875 -1.4375 L 10.953125 -1.9375 L 10.453125 -1.96875 L 10.265625 -1.46875 L 10.3125 -0.5 L 10.265625 -0.046875 L 10.078125 0.359375 L 9.59375 0.578125 L 6 0.59375 L 5.34375 0.640625 L 4.84375 0.59375 L 4.34375 0.625 L 3.890625 0.59375 L 3.4375 0.625 Z M 2.96875 0.8125 "/></g></g></g><g fill="#ff5055" fill-opacity="0.302"><g transform="translate(53.487398, 30.686822)"><g><path d="M 1.78125 -0.75 L 1.96875 -0.234375 L 2.46875 -0.046875 L 2.953125 0 L 4.359375 -0.03125 L 4.890625 0.03125 L 5.390625 0.03125 L 5.875 -0.234375 L 6.09375 -0.75 L 6.109375 -1.703125 L 6.0625 -2.15625 L 6.140625 -2.59375 L 6.09375 -3.125 L 6.09375 -3.625 L 6.265625 -4.03125 L 6.90625 -4.265625 L 7.4375 -4.34375 L 8.15625 -4.265625 L 9.40625 -4.296875 L 10.390625 -4.484375 L 11.78125 -4.890625 L 12.59375 -5.390625 L 12.96875 -5.6875 L 13.6875 -6.375 L 14.46875 -7.53125 L 14.671875 -7.96875 L 14.84375 -8.390625 L 15.0625 -9.375 L 15.109375 -9.8125 L 15.140625 -11.21875 L 14.703125 -13.09375 L 14.21875 -13.953125 L 13.90625 -14.359375 L 13.59375 -14.703125 L 13.328125 -15.0625 L 12.921875 -15.421875 L 12.203125 -15.90625 L 11.34375 -16.359375 L 10.84375 -16.453125 L 10.359375 -16.640625 L 9.921875 -16.734375 L 2.765625 -16.765625 L 2.109375 -16.546875 L 1.875 -16.09375 L 1.828125 -15.59375 L 1.828125 -14.609375 L 1.75 -14.171875 L 1.75 -13.71875 L 1.828125 -13.21875 L 1.828125 -10.765625 L 1.78125 -10.296875 L 1.828125 -9.859375 L 1.78125 -9.328125 L 1.84375 -8.34375 L 1.75 -7.703125 L 1.828125 -6.984375 L 1.78125 -6.53125 L 1.78125 -5.515625 L 1.84375 -5.0625 L 1.78125 -4.09375 L 1.84375 -2.59375 L 1.734375 -2.109375 L 1.828125 -1.65625 L 1.75 -1.203125 Z M 3.59375 0.8125 L 3.59375 1.34375 L 4 1.53125 L 4.515625 1.5625 L 5.015625 1.515625 L 5.65625 1.578125 L 6.9375 1.5625 L 7.359375 1.296875 L 7.625 0.796875 L 7.65625 0.328125 L 7.625 -0.125 L 7.703125 -0.625 L 7.625 -1.5625 L 7.65625 -2.09375 L 7.890625 -2.5625 L 8.4375 -2.78125 L 9.953125 -2.78125 L 10.53125 -2.859375 L 11.890625 -3.1875 L 12.765625 -3.546875 L 13.390625 -3.9375 L 13.9375 -4.390625 L 14.3125 -4.65625 L 14.65625 -5.015625 L 14.984375 -5.296875 L 15.203125 -5.703125 L 15.78125 -6.5 L 16.375 -7.859375 L 16.421875 -10.21875 L 16.3125 -10.71875 L 16.265625 -11.25 L 15.96875 -12.25 L 15.46875 -13.09375 L 15.203125 -13.265625 L 15.234375 -12.96875 L 15.453125 -12.546875 L 15.703125 -11.578125 L 15.6875 -11.171875 L 15.75 -10.71875 L 15.6875 -9.234375 L 15.203125 -7.390625 L 14.921875 -6.90625 L 14.625 -6.546875 L 14.46875 -6.109375 L 13.75 -5.390625 L 12.546875 -4.578125 L 12.0625 -4.3125 L 10.65625 -3.890625 L 8.96875 -3.71875 L 7.359375 -3.734375 L 6.9375 -3.453125 L 6.671875 -2.96875 L 6.734375 -0.59375 L 6.671875 -0.125 L 6.421875 0.328125 L 5.953125 0.578125 L 5.46875 0.578125 L 5.015625 0.625 L 4.515625 0.578125 L 4.03125 0.59375 Z M 6.859375 -8.171875 L 6.40625 -8.390625 L 6.109375 -8.875 L 6.0625 -12.203125 L 6.359375 -12.734375 L 6.828125 -12.921875 L 7.4375 -12.96875 L 9.359375 -12.875 L 9.765625 -12.65625 L 10.125 -12.40625 L 10.5 -12.046875 L 10.75 -11.625 L 10.953125 -10.5 L 10.703125 -9.40625 L 10.140625 -8.734375 L 9.765625 -8.46875 L 9.375 -8.25 L 7.40625 -8.125 Z M 6.671875 -9.5 L 6.90625 -9.046875 L 7.34375 -9 L 7.65625 -9.421875 L 7.609375 -9.90625 L 7.671875 -10.3125 L 7.625 -10.75 L 7.84375 -11.15625 L 8.328125 -11.390625 L 8.796875 -11.4375 L 9.515625 -11.375 L 10.046875 -11.46875 L 9.90625 -11.796875 L 9.59375 -12.09375 L 9.203125 -12.25 L 8.59375 -12.375 L 7.921875 -12.40625 L 7.359375 -12.359375 L 6.9375 -12.140625 L 6.71875 -11.515625 Z M 6.671875 -9.5 "/></g></g></g><g fill="#ff5055" fill-opacity="0.302"><g transform="translate(69.273239, 30.686822)"><g><path d="M 0.3125 -0.640625 L 0.4375 -0.140625 L 0.90625 -0.03125 L 3.015625 -0.03125 L 3.640625 0.046875 L 4.203125 -0.1875 L 4.625 -0.625 L 5.03125 -1.4375 L 5.4375 -1.890625 L 6.015625 -2.140625 L 6.5 -2.09375 L 7.84375 -2.109375 L 8.34375 -2.03125 L 8.890625 -2.109375 L 9.328125 -2.109375 L 9.828125 -2.0625 L 10.953125 -2.109375 L 11.75 -1.84375 L 12.25 -1.46875 L 12.375 -1.03125 L 12.640625 -0.59375 L 13.046875 -0.21875 L 13.671875 0.03125 L 14.109375 -0.03125 L 14.9375 0.046875 L 16.421875 0 L 16.859375 -0.140625 L 16.953125 -0.640625 L 16.8125 -1.25 L 16.640625 -1.671875 L 16.328125 -2.09375 L 16.1875 -2.5625 L 15.953125 -2.921875 L 15.8125 -3.375 L 15.390625 -4.25 L 15.234375 -4.703125 L 14.984375 -5.109375 L 14.65625 -6 L 14.390625 -6.375 L 14.203125 -6.859375 L 13.984375 -7.265625 L 13.8125 -7.75 L 13.59375 -8.109375 L 13.453125 -8.59375 L 13.1875 -9.015625 L 13 -9.421875 L 12.765625 -9.828125 L 12.640625 -10.296875 L 12.15625 -11.125 L 12.015625 -11.578125 L 11.578125 -12.5 L 11.46875 -12.875 L 11.109375 -13.71875 L 10.625 -14.609375 L 10.234375 -15.515625 L 10.03125 -15.875 L 9.875 -16.328125 L 9.453125 -16.796875 L 8.640625 -17 L 7.859375 -16.765625 L 7.40625 -16.328125 L 7.265625 -15.90625 L 6.234375 -13.75 L 5.96875 -13.3125 L 4.625 -10.296875 L 4.515625 -9.875 L 4.25 -9.453125 L 3.859375 -8.59375 L 3.5 -7.96875 L 3.328125 -7.5 L 3 -6.890625 L 2.859375 -6.375 L 2.640625 -6 L 2.46875 -5.515625 L 1.796875 -4.265625 L 1.109375 -2.515625 L 0.8125 -2.140625 L 0.59375 -1.65625 Z M 11.734375 -15.203125 L 11.21875 -15.234375 L 11.171875 -14.75 L 12.65625 -11.734375 L 12.765625 -11.25 L 13 -10.796875 L 13.265625 -10.40625 L 13.453125 -10.03125 L 13.59375 -9.546875 L 13.859375 -9.09375 L 14.03125 -8.6875 L 14.25 -8.28125 L 14.78125 -6.90625 L 15.03125 -6.53125 L 16.046875 -4.359375 L 16.1875 -3.890625 L 16.6875 -3.015625 L 16.796875 -2.59375 L 17.078125 -2.140625 L 17.203125 -1.734375 L 17.4375 -1.25 L 17.71875 0 L 17.53125 0.390625 L 17.03125 0.625 L 16.578125 0.59375 L 16.0625 0.640625 L 14.125 0.625 L 13.8125 0.84375 L 13.984375 1.359375 L 14.609375 1.5625 L 16.734375 1.5625 L 17.25 1.609375 L 17.703125 1.609375 L 18.421875 1.390625 L 18.78125 0.640625 L 18.75 0 L 18.421875 -1.359375 L 18.1875 -1.796875 L 18.0625 -2.25 L 17.359375 -3.484375 L 16.859375 -4.84375 L 16.578125 -5.234375 L 15.953125 -6.546875 L 15.78125 -7.03125 L 15.515625 -7.40625 L 15.375 -7.8125 L 15.140625 -8.25 L 14.796875 -9.1875 L 14.15625 -10.4375 L 14.03125 -10.890625 L 13.765625 -11.328125 L 13.625 -11.734375 L 13.328125 -12.15625 L 12.953125 -13 L 12.78125 -13.5 L 12.546875 -13.890625 L 12.15625 -14.796875 Z M 7.71875 -5.921875 L 7.265625 -6.109375 L 7.203125 -6.59375 L 8.15625 -8.78125 L 8.375 -9.15625 L 8.6875 -9.40625 L 8.96875 -9.203125 L 9.28125 -8.28125 L 9.546875 -7.859375 L 9.640625 -7.484375 L 9.875 -7 L 10.046875 -6.578125 L 10 -6.140625 L 9.59375 -5.953125 Z M 8.015625 -6.9375 L 8.125 -6.453125 L 8.65625 -6.578125 L 9.015625 -7.390625 L 8.796875 -8.078125 L 8.375 -7.890625 L 8.125 -7.4375 Z M 1.203125 1.078125 L 1.359375 1.46875 L 1.796875 1.578125 L 3.484375 1.5625 L 4.078125 1.625 L 4.578125 1.609375 L 5.15625 1.359375 L 5.5625 0.984375 L 5.96875 0.078125 L 6.453125 -0.28125 L 6.953125 -0.546875 L 9.359375 -0.578125 L 9.875 -0.5 L 10.296875 -0.546875 L 11.21875 -0.546875 L 11.578125 -0.75 L 11.421875 -1.265625 L 10.765625 -1.484375 L 10.3125 -1.515625 L 9.0625 -1.46875 L 8.421875 -1.515625 L 7.890625 -1.46875 L 6.90625 -1.515625 L 6.375 -1.484375 L 5.796875 -1.296875 L 5.34375 -0.859375 L 4.96875 0.03125 L 4.5625 0.4375 L 3.90625 0.640625 L 2.96875 0.59375 L 2.546875 0.640625 L 1.984375 0.625 L 1.484375 0.75 Z M 1.203125 1.078125 "/></g></g></g><g fill="#ff5055" fill-opacity="0.302"><g transform="translate(86.690447, 30.686822)"><g><path d="M 4.609375 -0.75 L 4.796875 -0.234375 L 5.296875 0 L 5.75 -0.046875 L 6.234375 0 L 6.6875 -0.046875 L 8.171875 -0.046875 L 8.65625 -0.234375 L 8.84375 -0.71875 L 8.828125 -1.171875 L 8.875 -1.734375 L 8.84375 -2.6875 L 8.78125 -3.09375 L 8.84375 -3.59375 L 8.890625 -5.0625 L 8.84375 -5.5 L 8.921875 -6.5 L 8.828125 -11.265625 L 8.890625 -11.75 L 8.84375 -12.28125 L 9.046875 -12.71875 L 9.5625 -12.921875 L 9.984375 -12.953125 L 10.453125 -12.921875 L 10.890625 -12.96875 L 12.203125 -12.953125 L 12.765625 -13.171875 L 13 -13.640625 L 12.953125 -14.15625 L 13 -16.125 L 12.765625 -16.59375 L 12.28125 -16.84375 L 11.703125 -16.796875 L 11.328125 -16.84375 L 10.859375 -16.84375 L 10.34375 -16.765625 L 9.859375 -16.765625 L 9.375 -16.8125 L 8.890625 -16.8125 L 8.34375 -16.734375 L 1.203125 -16.796875 L 0.671875 -16.546875 L 0.4375 -16.0625 L 0.40625 -13.671875 L 0.671875 -13.140625 L 1.15625 -12.90625 L 1.78125 -12.96875 L 3.90625 -12.953125 L 4.34375 -12.6875 L 4.578125 -12.234375 L 4.65625 -9.59375 L 4.578125 -8.84375 L 4.625 -8.390625 L 4.578125 -7.921875 L 4.578125 -6.953125 L 4.65625 -6.265625 L 4.5625 -5.546875 L 4.578125 -5.0625 L 4.5625 -4.5625 L 4.625 -3.09375 L 4.578125 -2.609375 Z M 6.40625 0.859375 L 6.375 1.3125 L 7.09375 1.609375 L 8.34375 1.515625 L 8.78125 1.578125 L 9.671875 1.609375 L 10.140625 1.34375 L 10.484375 0.859375 L 10.40625 0.390625 L 10.390625 -0.125 L 10.453125 -0.578125 L 10.390625 -2.515625 L 10.40625 -2.96875 L 10.390625 -3.484375 L 10.4375 -4.4375 L 10.359375 -4.9375 L 10.453125 -5.390625 L 10.4375 -5.859375 L 10.453125 -6.328125 L 10.359375 -7.8125 L 10.4375 -8.28125 L 10.359375 -8.75 L 10.390625 -10.671875 L 10.625 -11.171875 L 11.078125 -11.421875 L 12.046875 -11.4375 L 12.96875 -11.375 L 13.84375 -11.390625 L 14.296875 -11.65625 L 14.515625 -12.109375 L 14.53125 -12.609375 L 14.484375 -13.046875 L 14.53125 -14.5625 L 14.296875 -14.984375 L 13.859375 -15.015625 L 13.578125 -14.53125 L 13.53125 -14.03125 L 13.546875 -13.578125 L 13.53125 -13.078125 L 13.3125 -12.609375 L 12.859375 -12.328125 L 12.5 -12.359375 L 11.9375 -12.328125 L 11.109375 -12.40625 L 10.625 -12.359375 L 10.1875 -12.375 L 9.71875 -12.140625 L 9.5 -11.625 L 9.375 -8.03125 L 9.453125 -7.359375 L 9.453125 -6.890625 L 9.515625 -6.375 L 9.421875 -5.828125 L 9.5 -4.890625 L 9.421875 -4.46875 L 9.515625 -2.515625 L 9.421875 -2.0625 L 9.421875 -0.09375 L 9.1875 0.359375 L 8.734375 0.578125 L 7.265625 0.640625 L 6.828125 0.625 Z M 2.140625 -12.0625 L 2.09375 -11.625 L 2.609375 -11.390625 L 3.359375 -11.390625 L 3.859375 -11.625 L 3.859375 -12.140625 L 3.375 -12.40625 L 2.609375 -12.328125 Z M 2.140625 -12.0625 "/></g></g></g><g fill="#ff5055" fill-opacity="0.502"><g transform="translate(40.475071, 28.566246)"><g><path d="M 1.15625 -0.703125 L 1.390625 -0.1875 L 1.875 -0.03125 L 9 0.03125 L 9.453125 -0.21875 L 9.71875 -0.640625 L 9.71875 -1.171875 L 9.671875 -1.609375 L 9.734375 -3.0625 L 9.40625 -3.484375 L 7.796875 -3.984375 L 7.53125 -4.46875 L 7.578125 -6.421875 L 7.484375 -7.390625 L 7.578125 -8.390625 L 7.53125 -9.109375 L 7.578125 -9.859375 L 7.53125 -10.3125 L 7.578125 -10.796875 L 7.53125 -11.296875 L 7.53125 -12.296875 L 7.796875 -12.734375 L 8.25 -13 L 8.78125 -13.03125 L 9.234375 -13.28125 L 9.5 -13.75 L 9.5 -15.15625 L 9.546875 -15.59375 L 9.5 -16.0625 L 9.3125 -16.546875 L 8.53125 -16.765625 L 5.5 -16.796875 L 4.96875 -16.734375 L 3.5 -16.765625 L 3.046875 -16.734375 L 2.109375 -16.796875 L 1.578125 -16.546875 L 1.3125 -16.046875 L 1.3125 -15.59375 L 1.265625 -15.1875 L 1.265625 -14.65625 L 1.3125 -14.171875 L 1.3125 -13.71875 L 1.5625 -13.265625 L 3.015625 -12.765625 L 3.328125 -12.328125 L 3.265625 -10.296875 L 3.28125 -9.875 L 3.359375 -9.328125 L 3.328125 -8.34375 L 3.28125 -7.859375 L 3.375 -6.9375 L 3.265625 -6.453125 L 3.359375 -5.421875 L 3.3125 -4.484375 L 3.0625 -3.953125 L 1.484375 -3.453125 L 1.203125 -3 L 1.15625 -2.546875 Z M 8.171875 -5.03125 L 8.34375 -4.5625 L 8.875 -4.53125 L 9.0625 -5.015625 L 9.140625 -7.9375 L 9.0625 -8.34375 L 9.109375 -8.828125 L 9.0625 -9.8125 L 9.140625 -10.75 L 9.3125 -11.265625 L 9.78125 -11.515625 L 10.34375 -11.484375 L 10.796875 -11.65625 L 11.03125 -12.140625 L 10.984375 -14.03125 L 11.03125 -14.515625 L 10.765625 -14.9375 L 10.359375 -14.96875 L 10.125 -14.5625 L 10.078125 -13.53125 L 10.09375 -13.09375 L 9.875 -12.640625 L 9.375 -12.40625 L 8.875 -12.421875 L 8.421875 -12.203125 L 8.125 -11.703125 L 8.171875 -9.328125 L 8.078125 -8.640625 L 8.171875 -7.921875 Z M 2.96875 0.8125 L 2.96875 1.34375 L 3.40625 1.609375 L 3.90625 1.5625 L 4.390625 1.625 L 4.890625 1.5625 L 10.296875 1.5625 L 10.984375 1.390625 L 11.21875 0.90625 L 11.125 -0.28125 L 11.21875 -1.4375 L 10.953125 -1.9375 L 10.453125 -1.96875 L 10.265625 -1.46875 L 10.3125 -0.5 L 10.265625 -0.046875 L 10.078125 0.359375 L 9.59375 0.578125 L 6 0.59375 L 5.34375 0.640625 L 4.84375 0.59375 L 4.34375 0.625 L 3.890625 0.59375 L 3.4375 0.625 Z M 2.96875 0.8125 "/></g></g></g><g fill="#ff5055" fill-opacity="0.502"><g transform="translate(51.366822, 28.566246)"><g><path d="M 1.78125 -0.75 L 1.96875 -0.234375 L 2.46875 -0.046875 L 2.953125 0 L 4.359375 -0.03125 L 4.890625 0.03125 L 5.390625 0.03125 L 5.875 -0.234375 L 6.09375 -0.75 L 6.109375 -1.703125 L 6.0625 -2.15625 L 6.140625 -2.59375 L 6.09375 -3.125 L 6.09375 -3.625 L 6.265625 -4.03125 L 6.90625 -4.265625 L 7.4375 -4.34375 L 8.15625 -4.265625 L 9.40625 -4.296875 L 10.390625 -4.484375 L 11.78125 -4.890625 L 12.59375 -5.390625 L 12.96875 -5.6875 L 13.6875 -6.375 L 14.46875 -7.53125 L 14.671875 -7.96875 L 14.84375 -8.390625 L 15.0625 -9.375 L 15.109375 -9.8125 L 15.140625 -11.21875 L 14.703125 -13.09375 L 14.21875 -13.953125 L 13.90625 -14.359375 L 13.59375 -14.703125 L 13.328125 -15.0625 L 12.921875 -15.421875 L 12.203125 -15.90625 L 11.34375 -16.359375 L 10.84375 -16.453125 L 10.359375 -16.640625 L 9.921875 -16.734375 L 2.765625 -16.765625 L 2.109375 -16.546875 L 1.875 -16.09375 L 1.828125 -15.59375 L 1.828125 -14.609375 L 1.75 -14.171875 L 1.75 -13.71875 L 1.828125 -13.21875 L 1.828125 -10.765625 L 1.78125 -10.296875 L 1.828125 -9.859375 L 1.78125 -9.328125 L 1.84375 -8.34375 L 1.75 -7.703125 L 1.828125 -6.984375 L 1.78125 -6.53125 L 1.78125 -5.515625 L 1.84375 -5.0625 L 1.78125 -4.09375 L 1.84375 -2.59375 L 1.734375 -2.109375 L 1.828125 -1.65625 L 1.75 -1.203125 Z M 3.59375 0.8125 L 3.59375 1.34375 L 4 1.53125 L 4.515625 1.5625 L 5.015625 1.515625 L 5.65625 1.578125 L 6.9375 1.5625 L 7.359375 1.296875 L 7.625 0.796875 L 7.65625 0.328125 L 7.625 -0.125 L 7.703125 -0.625 L 7.625 -1.5625 L 7.65625 -2.09375 L 7.890625 -2.5625 L 8.4375 -2.78125 L 9.953125 -2.78125 L 10.53125 -2.859375 L 11.890625 -3.1875 L 12.765625 -3.546875 L 13.390625 -3.9375 L 13.9375 -4.390625 L 14.3125 -4.65625 L 14.65625 -5.015625 L 14.984375 -5.296875 L 15.203125 -5.703125 L 15.78125 -6.5 L 16.375 -7.859375 L 16.421875 -10.21875 L 16.3125 -10.71875 L 16.265625 -11.25 L 15.96875 -12.25 L 15.46875 -13.09375 L 15.203125 -13.265625 L 15.234375 -12.96875 L 15.453125 -12.546875 L 15.703125 -11.578125 L 15.6875 -11.171875 L 15.75 -10.71875 L 15.6875 -9.234375 L 15.203125 -7.390625 L 14.921875 -6.90625 L 14.625 -6.546875 L 14.46875 -6.109375 L 13.75 -5.390625 L 12.546875 -4.578125 L 12.0625 -4.3125 L 10.65625 -3.890625 L 8.96875 -3.71875 L 7.359375 -3.734375 L 6.9375 -3.453125 L 6.671875 -2.96875 L 6.734375 -0.59375 L 6.671875 -0.125 L 6.421875 0.328125 L 5.953125 0.578125 L 5.46875 0.578125 L 5.015625 0.625 L 4.515625 0.578125 L 4.03125 0.59375 Z M 6.859375 -8.171875 L 6.40625 -8.390625 L 6.109375 -8.875 L 6.0625 -12.203125 L 6.359375 -12.734375 L 6.828125 -12.921875 L 7.4375 -12.96875 L 9.359375 -12.875 L 9.765625 -12.65625 L 10.125 -12.40625 L 10.5 -12.046875 L 10.75 -11.625 L 10.953125 -10.5 L 10.703125 -9.40625 L 10.140625 -8.734375 L 9.765625 -8.46875 L 9.375 -8.25 L 7.40625 -8.125 Z M 6.671875 -9.5 L 6.90625 -9.046875 L 7.34375 -9 L 7.65625 -9.421875 L 7.609375 -9.90625 L 7.671875 -10.3125 L 7.625 -10.75 L 7.84375 -11.15625 L 8.328125 -11.390625 L 8.796875 -11.4375 L 9.515625 -11.375 L 10.046875 -11.46875 L 9.90625 -11.796875 L 9.59375 -12.09375 L 9.203125 -12.25 L 8.59375 -12.375 L 7.921875 -12.40625 L 7.359375 -12.359375 L 6.9375 -12.140625 L 6.71875 -11.515625 Z M 6.671875 -9.5 "/></g></g></g><g fill="#ff5055" fill-opacity="0.502"><g transform="translate(67.152664, 28.566246)"><g><path d="M 0.3125 -0.640625 L 0.4375 -0.140625 L 0.90625 -0.03125 L 3.015625 -0.03125 L 3.640625 0.046875 L 4.203125 -0.1875 L 4.625 -0.625 L 5.03125 -1.4375 L 5.4375 -1.890625 L 6.015625 -2.140625 L 6.5 -2.09375 L 7.84375 -2.109375 L 8.34375 -2.03125 L 8.890625 -2.109375 L 9.328125 -2.109375 L 9.828125 -2.0625 L 10.953125 -2.109375 L 11.75 -1.84375 L 12.25 -1.46875 L 12.375 -1.03125 L 12.640625 -0.59375 L 13.046875 -0.21875 L 13.671875 0.03125 L 14.109375 -0.03125 L 14.9375 0.046875 L 16.421875 0 L 16.859375 -0.140625 L 16.953125 -0.640625 L 16.8125 -1.25 L 16.640625 -1.671875 L 16.328125 -2.09375 L 16.1875 -2.5625 L 15.953125 -2.921875 L 15.8125 -3.375 L 15.390625 -4.25 L 15.234375 -4.703125 L 14.984375 -5.109375 L 14.65625 -6 L 14.390625 -6.375 L 14.203125 -6.859375 L 13.984375 -7.265625 L 13.8125 -7.75 L 13.59375 -8.109375 L 13.453125 -8.59375 L 13.1875 -9.015625 L 13 -9.421875 L 12.765625 -9.828125 L 12.640625 -10.296875 L 12.15625 -11.125 L 12.015625 -11.578125 L 11.578125 -12.5 L 11.46875 -12.875 L 11.109375 -13.71875 L 10.625 -14.609375 L 10.234375 -15.515625 L 10.03125 -15.875 L 9.875 -16.328125 L 9.453125 -16.796875 L 8.640625 -17 L 7.859375 -16.765625 L 7.40625 -16.328125 L 7.265625 -15.90625 L 6.234375 -13.75 L 5.96875 -13.3125 L 4.625 -10.296875 L 4.515625 -9.875 L 4.25 -9.453125 L 3.859375 -8.59375 L 3.5 -7.96875 L 3.328125 -7.5 L 3 -6.890625 L 2.859375 -6.375 L 2.640625 -6 L 2.46875 -5.515625 L 1.796875 -4.265625 L 1.109375 -2.515625 L 0.8125 -2.140625 L 0.59375 -1.65625 Z M 11.734375 -15.203125 L 11.21875 -15.234375 L 11.171875 -14.75 L 12.65625 -11.734375 L 12.765625 -11.25 L 13 -10.796875 L 13.265625 -10.40625 L 13.453125 -10.03125 L 13.59375 -9.546875 L 13.859375 -9.09375 L 14.03125 -8.6875 L 14.25 -8.28125 L 14.78125 -6.90625 L 15.03125 -6.53125 L 16.046875 -4.359375 L 16.1875 -3.890625 L 16.6875 -3.015625 L 16.796875 -2.59375 L 17.078125 -2.140625 L 17.203125 -1.734375 L 17.4375 -1.25 L 17.71875 0 L 17.53125 0.390625 L 17.03125 0.625 L 16.578125 0.59375 L 16.0625 0.640625 L 14.125 0.625 L 13.8125 0.84375 L 13.984375 1.359375 L 14.609375 1.5625 L 16.734375 1.5625 L 17.25 1.609375 L 17.703125 1.609375 L 18.421875 1.390625 L 18.78125 0.640625 L 18.75 0 L 18.421875 -1.359375 L 18.1875 -1.796875 L 18.0625 -2.25 L 17.359375 -3.484375 L 16.859375 -4.84375 L 16.578125 -5.234375 L 15.953125 -6.546875 L 15.78125 -7.03125 L 15.515625 -7.40625 L 15.375 -7.8125 L 15.140625 -8.25 L 14.796875 -9.1875 L 14.15625 -10.4375 L 14.03125 -10.890625 L 13.765625 -11.328125 L 13.625 -11.734375 L 13.328125 -12.15625 L 12.953125 -13 L 12.78125 -13.5 L 12.546875 -13.890625 L 12.15625 -14.796875 Z M 7.71875 -5.921875 L 7.265625 -6.109375 L 7.203125 -6.59375 L 8.15625 -8.78125 L 8.375 -9.15625 L 8.6875 -9.40625 L 8.96875 -9.203125 L 9.28125 -8.28125 L 9.546875 -7.859375 L 9.640625 -7.484375 L 9.875 -7 L 10.046875 -6.578125 L 10 -6.140625 L 9.59375 -5.953125 Z M 8.015625 -6.9375 L 8.125 -6.453125 L 8.65625 -6.578125 L 9.015625 -7.390625 L 8.796875 -8.078125 L 8.375 -7.890625 L 8.125 -7.4375 Z M 1.203125 1.078125 L 1.359375 1.46875 L 1.796875 1.578125 L 3.484375 1.5625 L 4.078125 1.625 L 4.578125 1.609375 L 5.15625 1.359375 L 5.5625 0.984375 L 5.96875 0.078125 L 6.453125 -0.28125 L 6.953125 -0.546875 L 9.359375 -0.578125 L 9.875 -0.5 L 10.296875 -0.546875 L 11.21875 -0.546875 L 11.578125 -0.75 L 11.421875 -1.265625 L 10.765625 -1.484375 L 10.3125 -1.515625 L 9.0625 -1.46875 L 8.421875 -1.515625 L 7.890625 -1.46875 L 6.90625 -1.515625 L 6.375 -1.484375 L 5.796875 -1.296875 L 5.34375 -0.859375 L 4.96875 0.03125 L 4.5625 0.4375 L 3.90625 0.640625 L 2.96875 0.59375 L 2.546875 0.640625 L 1.984375 0.625 L 1.484375 0.75 Z M 1.203125 1.078125 "/></g></g></g><g fill="#ff5055" fill-opacity="0.502"><g transform="translate(84.569872, 28.566246)"><g><path d="M 4.609375 -0.75 L 4.796875 -0.234375 L 5.296875 0 L 5.75 -0.046875 L 6.234375 0 L 6.6875 -0.046875 L 8.171875 -0.046875 L 8.65625 -0.234375 L 8.84375 -0.71875 L 8.828125 -1.171875 L 8.875 -1.734375 L 8.84375 -2.6875 L 8.78125 -3.09375 L 8.84375 -3.59375 L 8.890625 -5.0625 L 8.84375 -5.5 L 8.921875 -6.5 L 8.828125 -11.265625 L 8.890625 -11.75 L 8.84375 -12.28125 L 9.046875 -12.71875 L 9.5625 -12.921875 L 9.984375 -12.953125 L 10.453125 -12.921875 L 10.890625 -12.96875 L 12.203125 -12.953125 L 12.765625 -13.171875 L 13 -13.640625 L 12.953125 -14.15625 L 13 -16.125 L 12.765625 -16.59375 L 12.28125 -16.84375 L 11.703125 -16.796875 L 11.328125 -16.84375 L 10.859375 -16.84375 L 10.34375 -16.765625 L 9.859375 -16.765625 L 9.375 -16.8125 L 8.890625 -16.8125 L 8.34375 -16.734375 L 1.203125 -16.796875 L 0.671875 -16.546875 L 0.4375 -16.0625 L 0.40625 -13.671875 L 0.671875 -13.140625 L 1.15625 -12.90625 L 1.78125 -12.96875 L 3.90625 -12.953125 L 4.34375 -12.6875 L 4.578125 -12.234375 L 4.65625 -9.59375 L 4.578125 -8.84375 L 4.625 -8.390625 L 4.578125 -7.921875 L 4.578125 -6.953125 L 4.65625 -6.265625 L 4.5625 -5.546875 L 4.578125 -5.0625 L 4.5625 -4.5625 L 4.625 -3.09375 L 4.578125 -2.609375 Z M 6.40625 0.859375 L 6.375 1.3125 L 7.09375 1.609375 L 8.34375 1.515625 L 8.78125 1.578125 L 9.671875 1.609375 L 10.140625 1.34375 L 10.484375 0.859375 L 10.40625 0.390625 L 10.390625 -0.125 L 10.453125 -0.578125 L 10.390625 -2.515625 L 10.40625 -2.96875 L 10.390625 -3.484375 L 10.4375 -4.4375 L 10.359375 -4.9375 L 10.453125 -5.390625 L 10.4375 -5.859375 L 10.453125 -6.328125 L 10.359375 -7.8125 L 10.4375 -8.28125 L 10.359375 -8.75 L 10.390625 -10.671875 L 10.625 -11.171875 L 11.078125 -11.421875 L 12.046875 -11.4375 L 12.96875 -11.375 L 13.84375 -11.390625 L 14.296875 -11.65625 L 14.515625 -12.109375 L 14.53125 -12.609375 L 14.484375 -13.046875 L 14.53125 -14.5625 L 14.296875 -14.984375 L 13.859375 -15.015625 L 13.578125 -14.53125 L 13.53125 -14.03125 L 13.546875 -13.578125 L 13.53125 -13.078125 L 13.3125 -12.609375 L 12.859375 -12.328125 L 12.5 -12.359375 L 11.9375 -12.328125 L 11.109375 -12.40625 L 10.625 -12.359375 L 10.1875 -12.375 L 9.71875 -12.140625 L 9.5 -11.625 L 9.375 -8.03125 L 9.453125 -7.359375 L 9.453125 -6.890625 L 9.515625 -6.375 L 9.421875 -5.828125 L 9.5 -4.890625 L 9.421875 -4.46875 L 9.515625 -2.515625 L 9.421875 -2.0625 L 9.421875 -0.09375 L 9.1875 0.359375 L 8.734375 0.578125 L 7.265625 0.640625 L 6.828125 0.625 Z M 2.140625 -12.0625 L 2.09375 -11.625 L 2.609375 -11.390625 L 3.359375 -11.390625 L 3.859375 -11.625 L 3.859375 -12.140625 L 3.375 -12.40625 L 2.609375 -12.328125 Z M 2.140625 -12.0625 "/></g></g></g><g fill="#ffffff" fill-opacity="1"><g transform="translate(38.354495, 26.445671)"><g><path d="M 1.15625 -0.703125 L 1.390625 -0.1875 L 1.875 -0.03125 L 9 0.03125 L 9.453125 -0.21875 L 9.71875 -0.640625 L 9.71875 -1.171875 L 9.671875 -1.609375 L 9.734375 -3.0625 L 9.40625 -3.484375 L 7.796875 -3.984375 L 7.53125 -4.46875 L 7.578125 -6.421875 L 7.484375 -7.390625 L 7.578125 -8.390625 L 7.53125 -9.109375 L 7.578125 -9.859375 L 7.53125 -10.3125 L 7.578125 -10.796875 L 7.53125 -11.296875 L 7.53125 -12.296875 L 7.796875 -12.734375 L 8.25 -13 L 8.78125 -13.03125 L 9.234375 -13.28125 L 9.5 -13.75 L 9.5 -15.15625 L 9.546875 -15.59375 L 9.5 -16.0625 L 9.3125 -16.546875 L 8.53125 -16.765625 L 5.5 -16.796875 L 4.96875 -16.734375 L 3.5 -16.765625 L 3.046875 -16.734375 L 2.109375 -16.796875 L 1.578125 -16.546875 L 1.3125 -16.046875 L 1.3125 -15.59375 L 1.265625 -15.1875 L 1.265625 -14.65625 L 1.3125 -14.171875 L 1.3125 -13.71875 L 1.5625 -13.265625 L 3.015625 -12.765625 L 3.328125 -12.328125 L 3.265625 -10.296875 L 3.28125 -9.875 L 3.359375 -9.328125 L 3.328125 -8.34375 L 3.28125 -7.859375 L 3.375 -6.9375 L 3.265625 -6.453125 L 3.359375 -5.421875 L 3.3125 -4.484375 L 3.0625 -3.953125 L 1.484375 -3.453125 L 1.203125 -3 L 1.15625 -2.546875 Z M 8.171875 -5.03125 L 8.34375 -4.5625 L 8.875 -4.53125 L 9.0625 -5.015625 L 9.140625 -7.9375 L 9.0625 -8.34375 L 9.109375 -8.828125 L 9.0625 -9.8125 L 9.140625 -10.75 L 9.3125 -11.265625 L 9.78125 -11.515625 L 10.34375 -11.484375 L 10.796875 -11.65625 L 11.03125 -12.140625 L 10.984375 -14.03125 L 11.03125 -14.515625 L 10.765625 -14.9375 L 10.359375 -14.96875 L 10.125 -14.5625 L 10.078125 -13.53125 L 10.09375 -13.09375 L 9.875 -12.640625 L 9.375 -12.40625 L 8.875 -12.421875 L 8.421875 -12.203125 L 8.125 -11.703125 L 8.171875 -9.328125 L 8.078125 -8.640625 L 8.171875 -7.921875 Z M 2.96875 0.8125 L 2.96875 1.34375 L 3.40625 1.609375 L 3.90625 1.5625 L 4.390625 1.625 L 4.890625 1.5625 L 10.296875 1.5625 L 10.984375 1.390625 L 11.21875 0.90625 L 11.125 -0.28125 L 11.21875 -1.4375 L 10.953125 -1.9375 L 10.453125 -1.96875 L 10.265625 -1.46875 L 10.3125 -0.5 L 10.265625 -0.046875 L 10.078125 0.359375 L 9.59375 0.578125 L 6 0.59375 L 5.34375 0.640625 L 4.84375 0.59375 L 4.34375 0.625 L 3.890625 0.59375 L 3.4375 0.625 Z M 2.96875 0.8125 "/></g></g></g><g fill="#ffffff" fill-opacity="1"><g transform="translate(49.246246, 26.445671)"><g><path d="M 1.78125 -0.75 L 1.96875 -0.234375 L 2.46875 -0.046875 L 2.953125 0 L 4.359375 -0.03125 L 4.890625 0.03125 L 5.390625 0.03125 L 5.875 -0.234375 L 6.09375 -0.75 L 6.109375 -1.703125 L 6.0625 -2.15625 L 6.140625 -2.59375 L 6.09375 -3.125 L 6.09375 -3.625 L 6.265625 -4.03125 L 6.90625 -4.265625 L 7.4375 -4.34375 L 8.15625 -4.265625 L 9.40625 -4.296875 L 10.390625 -4.484375 L 11.78125 -4.890625 L 12.59375 -5.390625 L 12.96875 -5.6875 L 13.6875 -6.375 L 14.46875 -7.53125 L 14.671875 -7.96875 L 14.84375 -8.390625 L 15.0625 -9.375 L 15.109375 -9.8125 L 15.140625 -11.21875 L 14.703125 -13.09375 L 14.21875 -13.953125 L 13.90625 -14.359375 L 13.59375 -14.703125 L 13.328125 -15.0625 L 12.921875 -15.421875 L 12.203125 -15.90625 L 11.34375 -16.359375 L 10.84375 -16.453125 L 10.359375 -16.640625 L 9.921875 -16.734375 L 2.765625 -16.765625 L 2.109375 -16.546875 L 1.875 -16.09375 L 1.828125 -15.59375 L 1.828125 -14.609375 L 1.75 -14.171875 L 1.75 -13.71875 L 1.828125 -13.21875 L 1.828125 -10.765625 L 1.78125 -10.296875 L 1.828125 -9.859375 L 1.78125 -9.328125 L 1.84375 -8.34375 L 1.75 -7.703125 L 1.828125 -6.984375 L 1.78125 -6.53125 L 1.78125 -5.515625 L 1.84375 -5.0625 L 1.78125 -4.09375 L 1.84375 -2.59375 L 1.734375 -2.109375 L 1.828125 -1.65625 L 1.75 -1.203125 Z M 3.59375 0.8125 L 3.59375 1.34375 L 4 1.53125 L 4.515625 1.5625 L 5.015625 1.515625 L 5.65625 1.578125 L 6.9375 1.5625 L 7.359375 1.296875 L 7.625 0.796875 L 7.65625 0.328125 L 7.625 -0.125 L 7.703125 -0.625 L 7.625 -1.5625 L 7.65625 -2.09375 L 7.890625 -2.5625 L 8.4375 -2.78125 L 9.953125 -2.78125 L 10.53125 -2.859375 L 11.890625 -3.1875 L 12.765625 -3.546875 L 13.390625 -3.9375 L 13.9375 -4.390625 L 14.3125 -4.65625 L 14.65625 -5.015625 L 14.984375 -5.296875 L 15.203125 -5.703125 L 15.78125 -6.5 L 16.375 -7.859375 L 16.421875 -10.21875 L 16.3125 -10.71875 L 16.265625 -11.25 L 15.96875 -12.25 L 15.46875 -13.09375 L 15.203125 -13.265625 L 15.234375 -12.96875 L 15.453125 -12.546875 L 15.703125 -11.578125 L 15.6875 -11.171875 L 15.75 -10.71875 L 15.6875 -9.234375 L 15.203125 -7.390625 L 14.921875 -6.90625 L 14.625 -6.546875 L 14.46875 -6.109375 L 13.75 -5.390625 L 12.546875 -4.578125 L 12.0625 -4.3125 L 10.65625 -3.890625 L 8.96875 -3.71875 L 7.359375 -3.734375 L 6.9375 -3.453125 L 6.671875 -2.96875 L 6.734375 -0.59375 L 6.671875 -0.125 L 6.421875 0.328125 L 5.953125 0.578125 L 5.46875 0.578125 L 5.015625 0.625 L 4.515625 0.578125 L 4.03125 0.59375 Z M 6.859375 -8.171875 L 6.40625 -8.390625 L 6.109375 -8.875 L 6.0625 -12.203125 L 6.359375 -12.734375 L 6.828125 -12.921875 L 7.4375 -12.96875 L 9.359375 -12.875 L 9.765625 -12.65625 L 10.125 -12.40625 L 10.5 -12.046875 L 10.75 -11.625 L 10.953125 -10.5 L 10.703125 -9.40625 L 10.140625 -8.734375 L 9.765625 -8.46875 L 9.375 -8.25 L 7.40625 -8.125 Z M 6.671875 -9.5 L 6.90625 -9.046875 L 7.34375 -9 L 7.65625 -9.421875 L 7.609375 -9.90625 L 7.671875 -10.3125 L 7.625 -10.75 L 7.84375 -11.15625 L 8.328125 -11.390625 L 8.796875 -11.4375 L 9.515625 -11.375 L 10.046875 -11.46875 L 9.90625 -11.796875 L 9.59375 -12.09375 L 9.203125 -12.25 L 8.59375 -12.375 L 7.921875 -12.40625 L 7.359375 -12.359375 L 6.9375 -12.140625 L 6.71875 -11.515625 Z M 6.671875 -9.5 "/></g></g></g><g fill="#ffffff" fill-opacity="1"><g transform="translate(65.032088, 26.445671)"><g><path d="M 0.3125 -0.640625 L 0.4375 -0.140625 L 0.90625 -0.03125 L 3.015625 -0.03125 L 3.640625 0.046875 L 4.203125 -0.1875 L 4.625 -0.625 L 5.03125 -1.4375 L 5.4375 -1.890625 L 6.015625 -2.140625 L 6.5 -2.09375 L 7.84375 -2.109375 L 8.34375 -2.03125 L 8.890625 -2.109375 L 9.328125 -2.109375 L 9.828125 -2.0625 L 10.953125 -2.109375 L 11.75 -1.84375 L 12.25 -1.46875 L 12.375 -1.03125 L 12.640625 -0.59375 L 13.046875 -0.21875 L 13.671875 0.03125 L 14.109375 -0.03125 L 14.9375 0.046875 L 16.421875 0 L 16.859375 -0.140625 L 16.953125 -0.640625 L 16.8125 -1.25 L 16.640625 -1.671875 L 16.328125 -2.09375 L 16.1875 -2.5625 L 15.953125 -2.921875 L 15.8125 -3.375 L 15.390625 -4.25 L 15.234375 -4.703125 L 14.984375 -5.109375 L 14.65625 -6 L 14.390625 -6.375 L 14.203125 -6.859375 L 13.984375 -7.265625 L 13.8125 -7.75 L 13.59375 -8.109375 L 13.453125 -8.59375 L 13.1875 -9.015625 L 13 -9.421875 L 12.765625 -9.828125 L 12.640625 -10.296875 L 12.15625 -11.125 L 12.015625 -11.578125 L 11.578125 -12.5 L 11.46875 -12.875 L 11.109375 -13.71875 L 10.625 -14.609375 L 10.234375 -15.515625 L 10.03125 -15.875 L 9.875 -16.328125 L 9.453125 -16.796875 L 8.640625 -17 L 7.859375 -16.765625 L 7.40625 -16.328125 L 7.265625 -15.90625 L 6.234375 -13.75 L 5.96875 -13.3125 L 4.625 -10.296875 L 4.515625 -9.875 L 4.25 -9.453125 L 3.859375 -8.59375 L 3.5 -7.96875 L 3.328125 -7.5 L 3 -6.890625 L 2.859375 -6.375 L 2.640625 -6 L 2.46875 -5.515625 L 1.796875 -4.265625 L 1.109375 -2.515625 L 0.8125 -2.140625 L 0.59375 -1.65625 Z M 11.734375 -15.203125 L 11.21875 -15.234375 L 11.171875 -14.75 L 12.65625 -11.734375 L 12.765625 -11.25 L 13 -10.796875 L 13.265625 -10.40625 L 13.453125 -10.03125 L 13.59375 -9.546875 L 13.859375 -9.09375 L 14.03125 -8.6875 L 14.25 -8.28125 L 14.78125 -6.90625 L 15.03125 -6.53125 L 16.046875 -4.359375 L 16.1875 -3.890625 L 16.6875 -3.015625 L 16.796875 -2.59375 L 17.078125 -2.140625 L 17.203125 -1.734375 L 17.4375 -1.25 L 17.71875 0 L 17.53125 0.390625 L 17.03125 0.625 L 16.578125 0.59375 L 16.0625 0.640625 L 14.125 0.625 L 13.8125 0.84375 L 13.984375 1.359375 L 14.609375 1.5625 L 16.734375 1.5625 L 17.25 1.609375 L 17.703125 1.609375 L 18.421875 1.390625 L 18.78125 0.640625 L 18.75 0 L 18.421875 -1.359375 L 18.1875 -1.796875 L 18.0625 -2.25 L 17.359375 -3.484375 L 16.859375 -4.84375 L 16.578125 -5.234375 L 15.953125 -6.546875 L 15.78125 -7.03125 L 15.515625 -7.40625 L 15.375 -7.8125 L 15.140625 -8.25 L 14.796875 -9.1875 L 14.15625 -10.4375 L 14.03125 -10.890625 L 13.765625 -11.328125 L 13.625 -11.734375 L 13.328125 -12.15625 L 12.953125 -13 L 12.78125 -13.5 L 12.546875 -13.890625 L 12.15625 -14.796875 Z M 7.71875 -5.921875 L 7.265625 -6.109375 L 7.203125 -6.59375 L 8.15625 -8.78125 L 8.375 -9.15625 L 8.6875 -9.40625 L 8.96875 -9.203125 L 9.28125 -8.28125 L 9.546875 -7.859375 L 9.640625 -7.484375 L 9.875 -7 L 10.046875 -6.578125 L 10 -6.140625 L 9.59375 -5.953125 Z M 8.015625 -6.9375 L 8.125 -6.453125 L 8.65625 -6.578125 L 9.015625 -7.390625 L 8.796875 -8.078125 L 8.375 -7.890625 L 8.125 -7.4375 Z M 1.203125 1.078125 L 1.359375 1.46875 L 1.796875 1.578125 L 3.484375 1.5625 L 4.078125 1.625 L 4.578125 1.609375 L 5.15625 1.359375 L 5.5625 0.984375 L 5.96875 0.078125 L 6.453125 -0.28125 L 6.953125 -0.546875 L 9.359375 -0.578125 L 9.875 -0.5 L 10.296875 -0.546875 L 11.21875 -0.546875 L 11.578125 -0.75 L 11.421875 -1.265625 L 10.765625 -1.484375 L 10.3125 -1.515625 L 9.0625 -1.46875 L 8.421875 -1.515625 L 7.890625 -1.46875 L 6.90625 -1.515625 L 6.375 -1.484375 L 5.796875 -1.296875 L 5.34375 -0.859375 L 4.96875 0.03125 L 4.5625 0.4375 L 3.90625 0.640625 L 2.96875 0.59375 L 2.546875 0.640625 L 1.984375 0.625 L 1.484375 0.75 Z M 1.203125 1.078125 "/></g></g></g><g fill="#ffffff" fill-opacity="1"><g transform="translate(82.449296, 26.445671)"><g><path d="M 4.609375 -0.75 L 4.796875 -0.234375 L 5.296875 0 L 5.75 -0.046875 L 6.234375 0 L 6.6875 -0.046875 L 8.171875 -0.046875 L 8.65625 -0.234375 L 8.84375 -0.71875 L 8.828125 -1.171875 L 8.875 -1.734375 L 8.84375 -2.6875 L 8.78125 -3.09375 L 8.84375 -3.59375 L 8.890625 -5.0625 L 8.84375 -5.5 L 8.921875 -6.5 L 8.828125 -11.265625 L 8.890625 -11.75 L 8.84375 -12.28125 L 9.046875 -12.71875 L 9.5625 -12.921875 L 9.984375 -12.953125 L 10.453125 -12.921875 L 10.890625 -12.96875 L 12.203125 -12.953125 L 12.765625 -13.171875 L 13 -13.640625 L 12.953125 -14.15625 L 13 -16.125 L 12.765625 -16.59375 L 12.28125 -16.84375 L 11.703125 -16.796875 L 11.328125 -16.84375 L 10.859375 -16.84375 L 10.34375 -16.765625 L 9.859375 -16.765625 L 9.375 -16.8125 L 8.890625 -16.8125 L 8.34375 -16.734375 L 1.203125 -16.796875 L 0.671875 -16.546875 L 0.4375 -16.0625 L 0.40625 -13.671875 L 0.671875 -13.140625 L 1.15625 -12.90625 L 1.78125 -12.96875 L 3.90625 -12.953125 L 4.34375 -12.6875 L 4.578125 -12.234375 L 4.65625 -9.59375 L 4.578125 -8.84375 L 4.625 -8.390625 L 4.578125 -7.921875 L 4.578125 -6.953125 L 4.65625 -6.265625 L 4.5625 -5.546875 L 4.578125 -5.0625 L 4.5625 -4.5625 L 4.625 -3.09375 L 4.578125 -2.609375 Z M 6.40625 0.859375 L 6.375 1.3125 L 7.09375 1.609375 L 8.34375 1.515625 L 8.78125 1.578125 L 9.671875 1.609375 L 10.140625 1.34375 L 10.484375 0.859375 L 10.40625 0.390625 L 10.390625 -0.125 L 10.453125 -0.578125 L 10.390625 -2.515625 L 10.40625 -2.96875 L 10.390625 -3.484375 L 10.4375 -4.4375 L 10.359375 -4.9375 L 10.453125 -5.390625 L 10.4375 -5.859375 L 10.453125 -6.328125 L 10.359375 -7.8125 L 10.4375 -8.28125 L 10.359375 -8.75 L 10.390625 -10.671875 L 10.625 -11.171875 L 11.078125 -11.421875 L 12.046875 -11.4375 L 12.96875 -11.375 L 13.84375 -11.390625 L 14.296875 -11.65625 L 14.515625 -12.109375 L 14.53125 -12.609375 L 14.484375 -13.046875 L 14.53125 -14.5625 L 14.296875 -14.984375 L 13.859375 -15.015625 L 13.578125 -14.53125 L 13.53125 -14.03125 L 13.546875 -13.578125 L 13.53125 -13.078125 L 13.3125 -12.609375 L 12.859375 -12.328125 L 12.5 -12.359375 L 11.9375 -12.328125 L 11.109375 -12.40625 L 10.625 -12.359375 L 10.1875 -12.375 L 9.71875 -12.140625 L 9.5 -11.625 L 9.375 -8.03125 L 9.453125 -7.359375 L 9.453125 -6.890625 L 9.515625 -6.375 L 9.421875 -5.828125 L 9.5 -4.890625 L 9.421875 -4.46875 L 9.515625 -2.515625 L 9.421875 -2.0625 L 9.421875 -0.09375 L 9.1875 0.359375 L 8.734375 0.578125 L 7.265625 0.640625 L 6.828125 0.625 Z M 2.140625 -12.0625 L 2.09375 -11.625 L 2.609375 -11.390625 L 3.359375 -11.390625 L 3.859375 -11.625 L 3.859375 -12.140625 L 3.375 -12.40625 L 2.609375 -12.328125 Z M 2.140625 -12.0625 "/></g></g></g></svg>