<svg width="18" height="18" viewBox="0 0 18 18" fill="none" xmlns="http://www.w3.org/2000/svg">
<path d="M10.3053 4.36842C11.1278 4.5289 11.8837 4.93117 12.4763 5.52374C13.0689 6.1163 13.4712 6.87222 13.6316 7.69474M10.3053 1C12.0141 1.18984 13.6077 1.95509 14.8243 3.17011C16.0408 4.38513 16.8081 5.97769 17 7.68632M14.0526 17C6.84387 17 1 11.1561 1 3.94737C1 3.62213 1.0119 3.29967 1.03528 2.9804C1.06211 2.614 1.07552 2.4308 1.17154 2.26403C1.25107 2.1259 1.392 1.99491 1.53556 1.92568C1.70889 1.84211 1.91106 1.84211 2.31538 1.84211H4.68785C5.02786 1.84211 5.19786 1.84211 5.3436 1.89806C5.47233 1.94749 5.58696 2.02778 5.67741 2.13187C5.7798 2.24971 5.83789 2.40948 5.9541 2.72902L6.93608 5.42952C7.07124 5.80129 7.13886 5.98717 7.12741 6.16354C7.11731 6.31905 7.06417 6.4687 6.97406 6.59584C6.87188 6.74002 6.70227 6.84179 6.36306 7.04532L5.21053 7.73684C6.22265 9.96749 8.03166 11.7789 10.2632 12.7895L10.9547 11.637C11.1582 11.2977 11.26 11.1281 11.4041 11.0259C11.5313 10.9358 11.6809 10.8827 11.8365 10.8726C12.0128 10.8611 12.1987 10.9288 12.5705 11.0639L15.271 12.0459C15.5905 12.1621 15.7503 12.2202 15.8681 12.3226C15.9722 12.4131 16.0525 12.5277 16.1019 12.6564C16.1579 12.8021 16.1579 12.9721 16.1579 13.3122V15.6846C16.1579 16.0889 16.1579 16.2911 16.0743 16.4644C16.0051 16.608 15.8741 16.749 15.736 16.8285C15.5692 16.9245 15.386 16.9379 15.0196 16.9647C14.7003 16.9881 14.3779 17 14.0526 17Z" stroke="white" stroke-width="1.5" stroke-linecap="round" stroke-linejoin="round"/>
</svg>
